<?xml version="1.0" standalone="no"?>
<!DOCTYPE svg PUBLIC "-//W3C//DTD SVG 1.1//EN" "http://www.w3.org/Graphics/SVG/1.1/DTD/svg11.dtd" >
<svg xmlns="http://www.w3.org/2000/svg" xmlns:xlink="http://www.w3.org/1999/xlink" version="1.1">
<metadata>
Created by FontForge 20141024 at Mon Jan 11 10:24:34 2016
 By Jimmy Warting
Copyright (c) 2015 by Brittney Murphy. All rights reserved.
</metadata>
<defs>
<font id="Morningtype" horiz-adv-x="413" >
  <font-face 
    font-family="Morningtype"
    font-weight="400"
    font-stretch="normal"
    units-per-em="1000"
    panose-1="0 0 0 0 0 0 0 0 0 0"
    ascent="764"
    descent="-236"
    x-height="470"
    cap-height="658"
    bbox="-162 -237 897 917"
    underline-thickness="50"
    underline-position="-50"
    unicode-range="U+000D-FB06"
  />
<missing-glyph horiz-adv-x="153" 
 />
    <glyph glyph-name=".notdef" horiz-adv-x="153" 
 />
    <glyph glyph-name="NULL" horiz-adv-x="0" 
 />
    <glyph glyph-name="NULL" horiz-adv-x="0" 
 />
    <glyph glyph-name="nonmarkingreturn" unicode="&#xd;" horiz-adv-x="153" 
 />
    <glyph glyph-name="space" unicode=" " horiz-adv-x="153" 
 />
    <glyph glyph-name="E" unicode="E" 
d="M19 0v658h375v-74h-301v-218h301v-75h-301v-216h301v-75h-375z" />
    <glyph glyph-name="G" unicode="G" horiz-adv-x="524" 
d="M317 -1q-70 0 -127 27t-97 72.5t-62 106t-22 127.5q0 66 22.5 125t63 104t97.5 71t125 26q51 0 99.5 -17.5t88.5 -49.5l-47 -58q-30 24 -66.5 37t-74.5 13q-54 0 -97 -20t-73 -54.5t-45.5 -80t-15.5 -97.5q0 -53 15 -99.5t44.5 -81.5t72.5 -55t99 -20q30 0 58.5 7
t54.5 23v186h-189v75h264v-299q-40 -32 -88.5 -50t-99.5 -18z" />
    <glyph glyph-name="H" unicode="H" horiz-adv-x="474" 
d="M381 291h-288v-291h-74v658h74v-292h288v292h75v-658h-75v291z" />
    <glyph glyph-name="J" unicode="J" horiz-adv-x="402" 
d="M383 658v-423q0 -47 -16.5 -89.5t-46.5 -75t-70.5 -52t-88.5 -19.5q-46 0 -87.5 19t-72.5 54l51 53q20 -25 48.5 -37.5t60.5 -12.5q34 0 61 13t46 35t29.5 51t10.5 61v423h75z" />
    <glyph glyph-name="K" unicode="K" horiz-adv-x="494" 
d="M380 0l-234 309l-53 -62v-247h-74v658h74v-297l249 297h99l-246 -290l280 -368h-95z" />
    <glyph glyph-name="L" unicode="L" 
d="M19 658h74v-583h301v-75h-375v658z" />
    <glyph glyph-name="M" unicode="M" horiz-adv-x="667" 
d="M62 658h80l187 -542l186 542h80l53 -658h-74l-39 483l-166 -483h-80l-166 482l-39 -482h-75z" />
    <glyph glyph-name="N" unicode="N" horiz-adv-x="486" 
d="M19 658h86l287 -522v522h75v-658h-85l-289 524v-524h-74v658z" />
    <glyph glyph-name="P" unicode="P" horiz-adv-x="439" 
d="M19 658h137q50 0 98.5 -12.5t86 -39t60.5 -67t23 -97.5q0 -73 -30.5 -115.5t-78.5 -65t-107 -29t-115 -6.5v-226h-74v658zM93 584v-283h63q33 0 67.5 7.5t62 24t45.5 43.5t18 66t-17.5 66.5t-45.5 44t-62.5 24t-67.5 7.5h-63z" />
    <glyph glyph-name="T" unicode="T" horiz-adv-x="519" 
d="M296 584v-584h-74v584h-213v74h500v-74h-213z" />
    <glyph glyph-name="O" unicode="O" horiz-adv-x="660" 
d="M9 329q0 66 24 126t66.5 105t100 72t125.5 27q67 0 125 -27t100.5 -72t66.5 -105t24 -126t-24 -126t-66.5 -105t-100.5 -72t-125 -27q-68 0 -125.5 27t-100 72t-66.5 105t-24 126zM85 329q0 -52 17.5 -98t49 -80.5t76 -55t97.5 -20.5t97.5 20.5t76.5 55t49.5 80.5
t17.5 98q0 50 -18.5 96t-50.5 81.5t-76 56.5t-96 21q-53 0 -97.5 -20.5t-76 -55.5t-49 -81.5t-17.5 -97.5z" />
    <glyph glyph-name="Q" unicode="Q" horiz-adv-x="677" 
d="M9 329q0 66 24 126t66.5 105t100 72t125.5 27q67 0 125 -27t100.5 -72t66.5 -105t24 -126q0 -57 -18.5 -111t-53.5 -99l99 -119h-95l-56 67q-41 -32 -90 -50t-102 -18q-68 0 -125.5 27t-100 72t-66.5 105t-24 126zM379 349l142 -172q23 34 34 72.5t11 79.5q0 50 -18.5 96
t-50.5 81.5t-76 56.5t-96 21q-53 0 -97.5 -20.5t-76 -55.5t-49 -81.5t-17.5 -97.5q0 -52 17.5 -98t49 -80.5t76 -55t97.5 -20.5q40 0 77 12t69 37l-185 225h93z" />
    <glyph glyph-name="R" unicode="R" horiz-adv-x="489" 
d="M19 658h137q50 0 98.5 -12.5t86 -39t60.5 -67t23 -97.5q0 -69 -35.5 -118.5t-99.5 -74.5l190 -249h-95l-174 229q-29 -3 -58.5 -3h-58.5v-226h-74v658zM93 584v-283h63q33 0 67.5 7.5t62 24t45.5 43.5t18 66t-17.5 66.5t-45.5 44t-62.5 24t-67.5 7.5h-63z" />
    <glyph glyph-name="W" unicode="W" horiz-adv-x="830" 
d="M411 527l-149 -527h-75l-186 658h74l149 -529l150 529h74l149 -527l149 527h75l-186 -658h-76z" />
    <glyph glyph-name="V" unicode="V" horiz-adv-x="543" 
d="M227 0l-226 658h80l186 -541l187 541h80l-226 -658h-81z" />
    <glyph glyph-name="Y" unicode="Y" horiz-adv-x="506" 
d="M496 658l-210 -432v-226h-75v226l-210 432h80l164 -338h7l164 338h80z" />
    <glyph glyph-name="Z" unicode="Z" horiz-adv-x="465" 
d="M98 75h353v-75h-442v75l353 509h-353v74h442v-74z" />
    <glyph glyph-name="X" unicode="X" horiz-adv-x="541" 
d="M266 395l177 263h89l-221 -329l221 -329h-89l-177 263l-176 -263h-89l221 329l-221 329h89z" />
    <glyph glyph-name="U" unicode="U" horiz-adv-x="491" 
d="M472 658v-348q0 -56 -11.5 -112t-38 -100t-71 -71.5t-110.5 -27.5t-110.5 27.5t-71.5 71.5t-38.5 99.5t-11.5 112.5v348h76v-348q0 -40 5.5 -82t22 -76t47.5 -55.5t81 -21.5t80.5 21.5t47 55.5t22 76t5.5 82v348h76z" />
    <glyph glyph-name="u" unicode="u" horiz-adv-x="434" 
d="M415 0h-74v48q-56 -48 -129 -48q-49 0 -86.5 19.5t-63.5 52t-39.5 74.5t-13.5 87v237h76v-237q0 -29 7.5 -57.5t23 -51t39.5 -36t57 -13.5t57 13.5t40 36t23.5 51t7.5 57.5v237h75v-470z" />
    <glyph glyph-name="i" unicode="i" horiz-adv-x="131" 
d="M28 470h75v-470h-75v470zM28 581h75v-74h-75v74z" />
    <glyph glyph-name="o" unicode="o" horiz-adv-x="467" 
d="M9 235q0 46 16.5 89t46.5 75.5t70.5 52t88.5 19.5t88.5 -19.5t70.5 -52t46.5 -75.5t16.5 -89q0 -47 -16.5 -89.5t-46.5 -75t-70.5 -52t-88.5 -19.5t-88.5 19.5t-70.5 52t-46.5 75t-16.5 89.5zM85 235q0 -32 10 -61t29 -51t46 -35t61 -13t61 13t46 35t29 51t10 61
q0 30 -11 59t-30.5 51.5t-46 36t-58.5 13.5q-34 0 -61 -13t-46 -35t-29 -51t-10 -61z" />
    <glyph glyph-name="v" unicode="v" 
d="M162 0l-161 470h80l121 -354l122 354h80l-162 -470h-80z" />
    <glyph glyph-name="e" unicode="e" horiz-adv-x="453" 
d="M232 75q32 0 60.5 12.5t48.5 37.5l51 -53q-30 -35 -72 -54t-88 -19q-48 0 -88.5 19.5t-70.5 52t-46.5 75t-16.5 89.5q0 45 15.5 87.5t43.5 75.5t67 53t87 20q47 0 86 -20.5t66.5 -53.5t43 -75.5t15.5 -86.5q0 -14 -2 -28t-5 -28h-333q14 -48 51 -76t87 -28zM222 395
q-31 0 -55 -11t-41 -30.5t-27 -45t-12 -54.5h270q-3 27 -13.5 52.5t-27.5 45t-41 31.5t-53 12z" />
    <glyph glyph-name="b" unicode="b" horiz-adv-x="467" 
d="M9 658h75v-247q30 29 67.5 44.5t79.5 15.5q48 0 88.5 -19.5t70.5 -52t46.5 -75.5t16.5 -89q0 -47 -16.5 -89.5t-46.5 -75t-70.5 -52t-88.5 -19.5q-85 0 -147 59v-58h-75v658zM85 235q0 -32 10 -61t29 -51t46 -35t61 -13t61 13t46 35t29 51t10 61q0 30 -11 59t-30.5 51.5
t-46 36t-58.5 13.5q-34 0 -61 -13t-46 -35t-29 -51t-10 -61z" />
    <glyph glyph-name="a" unicode="a" horiz-adv-x="472" 
d="M378 58q-29 -28 -67.5 -43.5t-79.5 -15.5q-48 0 -88.5 19.5t-70.5 52t-46.5 75t-16.5 89.5q0 46 16.5 89t46.5 75.5t70.5 52t88.5 19.5q42 0 80 -16t67 -44v59h75v-470h-75v58zM85 235q0 -32 10 -61t29 -51t46 -35t61 -13t61 13t46 35t29 51t10 61q0 30 -11 59
t-30.5 51.5t-46 36t-58.5 13.5q-34 0 -61 -13t-46 -35t-29 -51t-10 -61z" />
    <glyph glyph-name="c" unicode="c" horiz-adv-x="401" 
d="M226 471q47 0 88 -20t73 -53l-51 -53q-21 23 -49.5 36.5t-60.5 13.5q-34 0 -61 -13t-46 -35t-29 -51t-10 -61t10 -61t29 -51t46 -35t61 -13q32 0 60.5 12.5t49.5 37.5l51 -53q-31 -35 -72.5 -54t-88.5 -19q-48 0 -88.5 19.5t-70 52.5t-46 75.5t-16.5 88.5t16.5 88.5
t46 75.5t70 52.5t88.5 19.5z" />
    <glyph glyph-name="d" unicode="d" horiz-adv-x="472" 
d="M378 58q-29 -28 -67.5 -43.5t-79.5 -15.5q-48 0 -88.5 19.5t-70.5 52t-46.5 75t-16.5 89.5q0 46 16.5 89t46.5 75.5t70.5 52t88.5 19.5q42 0 80 -16t67 -44v247h75v-658h-75v58zM85 235q0 -32 10 -61t29 -51t46 -35t61 -13t61 13t46 35t29 51t10 61q0 30 -11 59
t-30.5 51.5t-46 36t-58.5 13.5q-34 0 -61 -13t-46 -35t-29 -51t-10 -61z" />
    <glyph glyph-name="h" unicode="h" horiz-adv-x="434" 
d="M9 658h75v-236q26 24 59.5 36t68.5 12q49 0 86.5 -19.5t63.5 -51.5t39.5 -74.5t13.5 -87.5v-237h-75v237q0 29 -7.5 57.5t-23.5 50.5t-40 35.5t-57 13.5t-57 -13.5t-39.5 -35.5t-23 -50.5t-7.5 -57.5v-237h-76v658z" />
    <glyph glyph-name="k" unicode="k" 
d="M19 658h74v-391l170 203h99l-167 -197l209 -273h-96l-162 215l-53 -62v-153h-74v658z" />
    <glyph glyph-name="l" unicode="l" horiz-adv-x="131" 
d="M28 658h75v-658h-75v658z" />
    <glyph glyph-name="n" unicode="n" horiz-adv-x="434" 
d="M9 470h75v-48q26 24 59.5 36t68.5 12q49 0 86.5 -19.5t63.5 -51.5t39.5 -74.5t13.5 -87.5v-237h-75v237q0 29 -7.5 57.5t-23.5 50.5t-40 35.5t-57 13.5t-57 -13.5t-39.5 -35.5t-23 -50.5t-7.5 -57.5v-237h-76v470z" />
    <glyph glyph-name="m" unicode="m" horiz-adv-x="689" 
d="M9 470h75v-41q23 20 51 30.5t58 10.5q47 0 85 -22.5t61 -62.5q24 39 62 62t85 23t82 -21t57.5 -54t33.5 -74.5t11 -83.5v-237h-76v237q0 24 -6 51.5t-19 51t-33.5 39t-49.5 15.5t-50 -15.5t-34 -39t-19 -51t-6 -51.5v-237h-75v237q0 24 -6 51.5t-19.5 51t-34 39
t-49.5 15.5t-49.5 -15.5t-33.5 -39t-19 -51t-6 -51.5v-237h-76v470z" />
    <glyph glyph-name="p" unicode="p" horiz-adv-x="467" 
d="M9 470h75v-59q30 29 67.5 44.5t79.5 15.5q48 0 88.5 -19.5t70.5 -52t46.5 -75.5t16.5 -89q0 -47 -16.5 -89.5t-46.5 -75t-70.5 -52t-88.5 -19.5q-85 0 -147 59v-247h-75v659zM85 235q0 -32 10 -61t29 -51t46 -35t61 -13t61 13t46 35t29 51t10 61q0 30 -11 59t-30.5 51.5
t-46 36t-58.5 13.5q-34 0 -61 -13t-46 -35t-29 -51t-10 -61z" />
    <glyph glyph-name="q" unicode="q" horiz-adv-x="472" 
d="M378 58q-29 -28 -67.5 -43.5t-79.5 -15.5q-48 0 -88.5 19.5t-70.5 52t-46.5 75t-16.5 89.5q0 46 16.5 89t46.5 75.5t70.5 52t88.5 19.5q42 0 80 -16t67 -44v59h75v-659h-75v247zM85 235q0 -32 10 -61t29 -51t46 -35t61 -13t61 13t46 35t29 51t10 61q0 30 -11 59
t-30.5 51.5t-46 36t-58.5 13.5q-34 0 -61 -13t-46 -35t-29 -51t-10 -61z" />
    <glyph glyph-name="s" unicode="s" horiz-adv-x="335" 
d="M87 337q0 -21 17.5 -35.5t43.5 -27t56 -25t56 -28.5t43.5 -38t17.5 -54q0 -33 -13.5 -57t-35.5 -40.5t-50 -24.5t-57 -8q-42 0 -82 17.5t-64 52.5l57 49q19 -20 40.5 -31.5t50.5 -11.5q10 0 23.5 2.5t24.5 8.5t19 15.5t8 22.5q0 20 -17.5 33.5t-43 24.5t-56 22.5
t-56 27.5t-43 39t-17.5 58q0 33 12.5 59t34 45t50 29t59.5 10q43 0 84 -18.5t65 -55.5l-57 -49q-18 21 -41.5 34t-52.5 13q-12 0 -25.5 -4t-25 -11.5t-18.5 -18.5t-7 -25z" />
    <glyph glyph-name="w" unicode="w" horiz-adv-x="617" 
d="M134 0l-133 470h74l96 -339l96 339h74l96 -339l96 339h74l-133 -470h-74l-96 339l-96 -339h-74z" />
    <glyph glyph-name="z" unicode="z" horiz-adv-x="338" 
d="M98 75h221v-75h-310v75l221 320h-221v75h310v-75z" />
    <glyph glyph-name="x" unicode="x" horiz-adv-x="414" 
d="M203 301l113 169h89l-158 -235l158 -235h-89l-113 168l-113 -168h-89l157 235l-157 235h89z" />
    <glyph glyph-name="y" unicode="y" 
d="M97 -189l65 189l-161 470h80l121 -354l122 354h80l-227 -659h-80z" />
    <glyph glyph-name="t" unicode="t" horiz-adv-x="342" 
d="M206 386v-386h-75v386h-122v74h122v198h75v-198h122v-74h-122z" />
    <glyph glyph-name="f" unicode="f" horiz-adv-x="341" 
d="M141 291v-291h-75v291h-57v75h57q0 48 5 100t23.5 94.5t55 70t100.5 27.5q21 0 42 -4t40 -14l-27 -74q-25 17 -55 17q-31 0 -52 -15t-33.5 -38.5t-18 -51.5t-5.5 -53v-59h168v-75h-168z" />
    <glyph glyph-name="j" unicode="j" horiz-adv-x="132" 
d="M-135 -96q23 -17 55 -17q31 0 52 15t33.5 38t17.5 50.5t5 53.5v426h76v-426q0 -43 -10.5 -85t-32.5 -75t-57 -53t-84 -20q-21 0 -42 4.5t-40 14.5zM28 581h75v-74h-75v74z" />
    <glyph glyph-name="r" unicode="r" horiz-adv-x="292" 
d="M258 377q-12 8 -27.5 12.5t-30.5 4.5q-31 0 -51.5 -15t-32.5 -38t-17 -51t-5 -53v-237h-75v470h74v-37q23 20 51 28.5t57 8.5q42 0 82 -19z" />
    <glyph glyph-name="g" unicode="g" horiz-adv-x="472" 
d="M453 470v-424q0 -47 -16.5 -89.5t-46.5 -75t-70.5 -52t-88.5 -19.5q-46 0 -88 19t-72 54l51 53q20 -24 48.5 -37t60.5 -13q34 0 61 13t46 35t29 51t10 61v11q-30 -28 -67.5 -43t-78.5 -15q-48 0 -88.5 19.5t-70.5 52t-46.5 75t-16.5 89.5q0 46 16.5 89t46.5 75.5t70.5 52
t88.5 19.5q41 0 79 -15.5t67 -43.5v58h76zM85 235q0 -32 10 -61t29 -51t46 -35t61 -13q32 0 58.5 12t46 33t30.5 48.5t11 59.5q0 31 -10 61.5t-29 53.5t-46 37.5t-61 14.5t-61 -13t-46 -35t-29 -51t-10 -61z" />
    <glyph glyph-name="C" unicode="C" horiz-adv-x="524" 
d="M317 -1q-70 0 -127 27t-97 72.5t-62 106t-22 127.5q0 66 22.5 125t63 104t97.5 71t125 26q51 0 99.5 -17.5t88.5 -49.5l-47 -58q-30 24 -66.5 37t-74.5 13q-54 0 -97 -20t-73 -54.5t-45.5 -80t-15.5 -97.5q0 -53 15 -99.5t44.5 -81.5t72.5 -55t99 -20q38 0 75 12.5
t66 37.5l47 -58q-40 -32 -88.5 -50t-99.5 -18z" />
    <glyph glyph-name="F" unicode="F" 
d="M93 291v-291h-74v658h375v-74h-301v-218h301v-75h-301z" />
    <glyph glyph-name="S" unicode="S" horiz-adv-x="429" 
d="M87 488q0 -40 24.5 -66.5t60.5 -47t79 -38t79 -40t60.5 -53t24.5 -76.5q0 -43 -16.5 -74.5t-44 -52.5t-63.5 -31t-75 -10q-25 0 -53.5 5.5t-55.5 17t-50 28t-38 38.5l57 49q27 -30 64 -46t78 -16q20 0 41 4.5t38.5 14.5t28.5 26.5t11 40.5q0 34 -24.5 56.5t-60.5 40
t-79 34.5t-79 41t-60.5 59t-24.5 88q0 42 17.5 75.5t47 56.5t66.5 35.5t76 12.5q26 0 53.5 -6t53.5 -17.5t48 -28.5t37 -40l-57 -49q-26 31 -61.5 48.5t-75.5 17.5q-20 0 -42.5 -6.5t-41.5 -18.5t-31 -30t-12 -42z" />
    <glyph glyph-name="_0003" horiz-adv-x="663" 
d="M193 235q0 -32 10.5 -61t29.5 -51t46 -35t61 -13t61 13t46 35t29 51t10 61q0 30 -11 59t-30.5 51.5t-46 36t-58.5 13.5q-34 0 -61 -13t-46 -35t-29.5 -51t-10.5 -61zM138 140l-129 95l129 99l-19 136l126 -19l95 113l89 -113l131 19l-19 -146l113 -89l-113 -84l19 -151
l-141 19l-79 -99l-84 99l-137 -19z" />
    <glyph glyph-name="period" unicode="." horiz-adv-x="131" 
d="M28 74h75v-74h-75v74z" />
    <glyph glyph-name="exclam" unicode="!" horiz-adv-x="131" 
d="M28 581h75v-470h-75v470zM28 74h75v-74h-75v74z" />
    <glyph glyph-name="question" unicode="?" horiz-adv-x="409" 
d="M157 258q24 11 53 24t54 30.5t42 41t17 55.5q0 24 -12.5 42t-31.5 30.5t-41.5 19t-42.5 6.5q-40 0 -75.5 -18t-61.5 -48l-57 49q15 22 37.5 39.5t48 29t53 17.5t53.5 6q39 0 76 -12.5t66.5 -35.5t47 -56.5t17.5 -75.5q0 -40 -14 -69.5t-37.5 -52t-54 -39.5t-63.5 -31v-99
h-74v147zM157 74h74v-74h-74v74z" />
    <glyph glyph-name="colon" unicode=":" horiz-adv-x="131" 
d="M28 121h75v-74h-75v74zM28 375h75v-73h-75v73z" />
    <glyph glyph-name="semicolon" unicode=";" horiz-adv-x="131" 
d="M28 375h75v-73h-75v73zM28 120h75q1 -14 1.5 -26.5t0.5 -26.5q0 -17 -1 -30.5t-3.5 -25.5t-7.5 -24t-14 -27h-38q9 11 16 24t7 27q0 17 -10.5 25.5t-25.5 10.5v73z" />
    <glyph glyph-name="comma" unicode="," horiz-adv-x="131" 
d="M28 74h75q1 -14 1.5 -26.5t0.5 -26.5q0 -17 -1 -30.5t-3.5 -25.5t-7.5 -24t-14 -27h-38q10 10 16.5 23.5t6.5 27.5q0 16 -10.5 25t-25.5 11v73z" />
    <glyph glyph-name="bar" unicode="|" horiz-adv-x="131" 
d="M28 753h75v-942h-75v942z" />
    <glyph glyph-name="brokenbar" unicode="&#xa6;" horiz-adv-x="131" 
d="M28 179h75v-368h-75v368zM28 658h75v-404h-75v404z" />
    <glyph glyph-name="daggerdbl" unicode="&#x2021;" horiz-adv-x="342" 
d="M131 8h-122v75h122v303h-122v74h122v293h75v-293h122v-74h-122v-303h122v-75h-122v-197h-75v197z" />
    <glyph glyph-name="dagger" unicode="&#x2020;" horiz-adv-x="342" 
d="M131 386h-122v74h122v293h75v-293h122v-74h-122v-575h-75v575z" />
    <glyph glyph-name="zero" unicode="0" horiz-adv-x="491" 
d="M9 329q0 55 11.5 113.5t38.5 106.5t71.5 79t110.5 31t110 -31t71 -79.5t38.5 -107t11.5 -112.5t-11.5 -112.5t-38.5 -107t-71 -79.5t-110 -31t-110.5 31t-71.5 79t-38.5 106.5t-11.5 113.5zM85 329q0 -39 5.5 -84t22 -82.5t47 -62.5t81.5 -25t81.5 25t47 63t21.5 82.5
t5 83.5q0 37 -6 81.5t-23.5 83t-47.5 64.5t-78 26q-51 0 -81.5 -25t-47 -63t-22 -83t-5.5 -84z" />
    <glyph glyph-name="one" unicode="1" horiz-adv-x="187" 
d="M93 540l-36 -42l-56 50l92 110h75v-658h-75v540z" />
    <glyph glyph-name="two" unicode="2" horiz-adv-x="424" 
d="M10 0v75q0 43 24 78t59.5 66t77 60.5t77 61t59.5 67t24 79.5q0 23 -12.5 41t-31 30.5t-41 19t-42.5 6.5q-40 0 -75.5 -17.5t-61.5 -48.5l-58 49q15 23 37 40t48 28.5t53.5 17.5t54.5 6q39 0 76 -12.5t66 -35.5t46.5 -56.5t17.5 -75.5q0 -51 -19.5 -89t-50.5 -69
t-68.5 -58t-72.5 -55t-64 -60t-43 -73h319v-75h-399z" />
    <glyph glyph-name="three" unicode="3" horiz-adv-x="443" 
d="M156 292v76q28 0 61.5 2.5t63 13.5t49 33t19.5 61q0 24 -12.5 43.5t-32 33t-43 21t-44.5 7.5t-44 -8t-43 -22t-33 -33.5t-13 -42.5q0 -2 0.5 -4t0.5 -4h-74q0 44 16.5 79t44.5 59.5t65.5 37.5t79.5 13t79.5 -13t65 -37.5t44 -59.5t16.5 -79t-21.5 -83t-64.5 -54
q44 -18 66.5 -57t22.5 -85q0 -44 -17 -79.5t-45.5 -60t-66 -38t-79.5 -13.5q-41 0 -78.5 12.5t-66 36.5t-45.5 58.5t-18 77.5h75q0 -2 -0.5 -4t-0.5 -4q0 -22 14 -40.5t34.5 -32t43.5 -21t42 -7.5q21 0 44.5 7.5t43 22t32.5 34t13 43.5q0 36 -16.5 58t-42 33.5t-56.5 15
t-60 3.5h-19z" />
    <glyph glyph-name="four" unicode="4" horiz-adv-x="460" 
d="M277 196h-268v75l268 385v2h75v-387h94v-75h-94v-196h-75v196zM277 271v258l-179 -258h179z" />
    <glyph glyph-name="five" unicode="5" horiz-adv-x="427" 
d="M93 584v-190q25 18 54.5 28.5t60.5 10.5q46 0 83.5 -16.5t63 -46t39.5 -68.5t14 -84q0 -44 -14 -84t-39.5 -70t-63 -47.5t-83.5 -17.5q-41 0 -74.5 14.5t-59 39.5t-42.5 58.5t-23 71.5h76q10 -48 41 -78t82 -30q30 0 53.5 11t40 29.5t25 43.5t8.5 54q0 28 -8.5 54
t-25 46.5t-40 32.5t-53.5 12q-15 0 -32 -4t-32.5 -12t-28.5 -19t-22 -24h-74v359h356v-74h-282z" />
    <glyph glyph-name="six" unicode="6" horiz-adv-x="462" 
d="M235 -1q-44 0 -77.5 14.5t-57.5 39.5t-39.5 58.5t-25 70t-13 74.5t-3.5 73q0 55 12.5 113.5t41 106.5t74.5 79t112 31q46 0 86 -18t69 -53l-51 -56q-19 25 -45.5 38.5t-58.5 13.5q-47 0 -77.5 -21t-49.5 -54t-27.5 -73.5t-10.5 -78.5q29 35 69.5 55.5t86.5 20.5
q45 0 81 -18t60.5 -48.5t38 -69.5t13.5 -81q0 -46 -15 -85.5t-42 -69t-65.5 -46t-85.5 -16.5zM234 75q66 0 100 38.5t34 102.5q0 26 -7.5 51.5t-22.5 45.5t-37 32.5t-51 12.5q-30 0 -55 -11t-43 -30.5t-28.5 -45.5t-10.5 -55q0 -27 8 -52.5t23.5 -45t38 -31.5t51.5 -12z" />
    <glyph glyph-name="seven" unicode="7" horiz-adv-x="423" 
d="M192 0h-88l220 584h-315v74h404v-74z" />
    <glyph glyph-name="eight" unicode="8" horiz-adv-x="455" 
d="M230 0q-40 0 -78 9.5t-67.5 30t-47.5 52.5t-18 77q0 26 7.5 52t22 47.5t35 38.5t46.5 25q-23 9 -39.5 26t-27.5 38.5t-16.5 45.5t-5.5 47q0 42 14.5 73.5t40 53t60 32t74.5 10.5t74.5 -10.5t60 -32t40.5 -53t15 -73.5q0 -23 -5.5 -47t-17 -45.5t-28.5 -38.5t-39 -26
q26 -8 46.5 -25t35 -38.5t22 -47.5t7.5 -52q0 -45 -18 -77t-47.5 -52.5t-67.5 -30t-78 -9.5zM230 75q25 0 49.5 7t44 21t32 34.5t12.5 48.5t-12.5 48t-32 33t-44.5 19t-49 6t-49 -6t-44.5 -19t-32 -33t-12.5 -48t12.5 -48.5t32 -34.5t44 -21t49.5 -7zM230 368q24 0 45.5 8
t37 22.5t25 35t9.5 45.5t-9.5 44.5t-25.5 33t-37 20.5t-45 7t-45 -7t-37 -20.5t-25.5 -33t-9.5 -44.5t9.5 -45.5t25 -35t37 -22.5t45.5 -8z" />
    <glyph glyph-name="nine" unicode="9" horiz-adv-x="462" 
d="M227 659q67 0 109 -31.5t66 -80.5t32.5 -107t8.5 -111q0 -56 -13 -114.5t-41.5 -106.5t-74 -78.5t-111.5 -30.5q-46 0 -86 18.5t-69 53.5l51 55q40 -51 104 -51q46 0 77 21t50 54t27.5 73.5t10.5 78.5q-29 -35 -69.5 -56t-86.5 -21q-45 0 -80.5 18t-60.5 48.5t-38.5 69.5
t-13.5 81q0 46 15 85.5t42 68.5t65.5 46t85.5 17zM228 584q-66 0 -100 -39t-34 -103q0 -26 7.5 -51t22.5 -45t37 -32.5t51 -12.5q30 0 55 11t43 30t28.5 45t10.5 55q0 27 -8 52.5t-23.5 45.5t-38 32t-51.5 12z" />
    <glyph glyph-name="dotlessi" unicode="&#x131;" horiz-adv-x="131" 
d="M28 470h75v-470h-75v470z" />
    <glyph glyph-name="mu" unicode="&#xb5;" horiz-adv-x="434" 
d="M9 470h76v-237q0 -29 7.5 -57.5t23 -51t39.5 -36t57 -13.5t57 13.5t40 36t23.5 51t7.5 57.5v237h75v-470h-74v48q-56 -48 -129 -48q-35 0 -68.5 12t-59.5 36v-237h-75v659z" />
    <glyph glyph-name="quotedbl" unicode="&#x22;" horiz-adv-x="244" 
d="M28 658h75v-281h-75v281zM141 658h75v-281h-75v281z" />
    <glyph glyph-name="quotesingle" unicode="'" horiz-adv-x="131" 
d="M28 658h75v-281h-75v281z" />
    <glyph glyph-name="numbersign" unicode="#" horiz-adv-x="564" 
d="M337 131h-140v-131h-67v131h-121v75h132v133h-103v74h113v113h68v-113h139v113h69v-113h118v-74h-129v-133h101v-75h-112v-131h-75zM208 206h129v133h-129v-133z" />
    <glyph glyph-name="dollar" unicode="$" horiz-adv-x="335" 
d="M128 96q-32 7 -61.5 23t-47.5 44l57 49q11 -12 23.5 -22t28.5 -15v123q-21 9 -42.5 19.5t-38.5 25.5t-27.5 34.5t-10.5 46.5q0 54 34 91t85 47v96h75v-96q33 -6 62.5 -23.5t48.5 -46.5l-57 -49q-11 13 -24.5 23.5t-29.5 16.5v-139q19 -9 40 -19.5t38 -25t28.5 -33
t11.5 -42.5q0 -54 -34 -86t-84 -42v-96h-75v96zM87 431q0 -19 13 -32t28 -21v106q-16 -7 -28.5 -20.5t-12.5 -32.5zM242 218q0 17 -12.5 28.5t-26.5 19.5v-91q14 5 26.5 15.5t12.5 27.5z" />
    <glyph glyph-name="cent" unicode="&#xa2;" horiz-adv-x="406" 
d="M178 100q-39 10 -70 32.5t-53 53t-34 67.5t-12 76t12 76t34 67.5t53.5 53t69.5 32.5v100h75v-94q40 -5 75.5 -24t62.5 -48l-50 -52q-38 39 -88 48v-318q26 4 48.5 16.5t39.5 32.5l50 -53q-27 -30 -62.5 -48.5t-75.5 -23.5v-94h-75v100zM85 329q0 -48 23 -90t70 -60v301
q-47 -18 -70 -60.5t-23 -90.5z" />
    <glyph glyph-name="florin" unicode="&#x192;" horiz-adv-x="381" 
d="M228 291q0 -17 0.5 -35.5t0.5 -38.5q0 -38 -4 -77t-18 -70.5t-41.5 -51t-73.5 -19.5q-45 0 -83 19l28 74q9 -7 20 -12t22 -5q26 0 40.5 12t22 30.5t9.5 41.5t2 45v28v59h-95v75h95q0 17 -0.5 35t-0.5 38q0 39 4 78t18 70.5t41.5 51t74.5 19.5q21 0 42 -4t40 -14l-28 -74
q-14 9 -25.5 13t-28.5 4q-25 0 -37.5 -18.5t-18 -44t-6 -52.5t-0.5 -43v-59h94v-75h-94z" />
    <glyph glyph-name="sterling" unicode="&#xa3;" horiz-adv-x="418" 
d="M9 0v75q46 0 69.5 9t33.5 28t11 48.5t1 71.5v59h-95v75h95q0 48 5 100t23.5 94.5t55 70t100.5 27.5q21 0 42 -4t40 -14l-28 -74q-25 17 -54 17q-32 0 -52.5 -15t-33.5 -38t-18 -51t-5 -54v-59h132v-75h-132v-62q0 -40 -3 -80.5t-16 -73.5h224v-75h-395z" />
    <glyph glyph-name="currency" unicode="&#xa4;" horiz-adv-x="472" 
d="M9 329q0 46 16.5 89.5t48.5 77.5l-52 78l60 42l51 -76q23 13 47.5 19t50.5 6t50 -6.5t47 -17.5l51 75l61 -42l-52 -78q32 -34 48.5 -77.5t16.5 -89.5q0 -47 -17 -90.5t-49 -77.5l53 -77l-61 -42l-51 75q-45 -24 -97 -24q-26 0 -51 6.5t-48 17.5l-50 -75l-60 42l52 78
q-32 34 -48.5 77.5t-16.5 89.5zM85 329q0 -32 10 -61t29 -51t46 -35t61 -13t61 13t46 35t29 51t10 61q0 31 -10.5 60t-30 51.5t-46.5 36t-59 13.5q-34 0 -61 -13t-46 -35t-29 -51.5t-10 -61.5z" />
    <glyph glyph-name="yen" unicode="&#xa5;" 
d="M239 104v-104h-75v104h-141v74h141v14l-6 15h-135v74h109l-131 377h80l121 -358l122 358h80l-132 -377h107v-74h-133l-6 -18l-1 -11h140v-74h-140z" />
    <glyph glyph-name="quotedblbase" unicode="&#x201e;" horiz-adv-x="227" 
d="M28 74h75q1 -14 1.5 -26.5t0.5 -26.5q0 -17 -1 -30.5t-3.5 -25.5t-7.5 -24t-14 -27h-38q10 10 16.5 23.5t6.5 27.5q0 16 -10.5 25t-25.5 11v73zM123 74h74q1 -14 1.5 -28.5t0.5 -28.5q0 -17 -1 -30t-3.5 -24.5t-7.5 -23t-13 -25.5h-39q10 11 16.5 24t6.5 27
q0 17 -10 25.5t-25 10.5v73z" />
    <glyph glyph-name="slash" unicode="/" horiz-adv-x="282" 
d="M198 658h75l-189 -658h-75z" />
    <glyph glyph-name="percent" unicode="%" horiz-adv-x="718" 
d="M458 658h75l-283 -658h-75zM407 216q0 35 8 69t25 60.5t45 43t68 16.5t67.5 -16.5t45 -43.5t25.5 -61t8 -68q0 -35 -8 -68.5t-25.5 -60.5t-45 -43.5t-67.5 -16.5t-68 16.5t-45 43t-25 60.5t-8 69zM482 216q0 -18 2.5 -38t10 -36.5t21.5 -27.5t37 -11t37 11t21.5 27.5
t10 36.5t2.5 38q0 16 -3 36t-11.5 37t-22 28.5t-34.5 11.5q-23 0 -36.5 -11t-21.5 -28t-10.5 -36.5t-2.5 -37.5zM10 442q0 35 8 69t25.5 60.5t45.5 43t68 16.5t68 -16.5t45 -43t25 -60.5t8 -69t-8 -68.5t-25.5 -60t-45 -43t-67.5 -16.5t-68 16.5t-45.5 43t-25.5 60t-8 68.5z
M86 442q0 -18 2.5 -38t10 -36.5t21.5 -27.5t37 -11q22 0 36 11t21.5 28t10 36.5t2.5 37.5q0 16 -3 36t-11 37t-21.5 29t-34.5 12q-23 0 -37 -11t-21.5 -28t-10 -37t-2.5 -38z" />
    <glyph glyph-name="ampersand" unicode="&#x26;" horiz-adv-x="632" 
d="M623 19q-19 -10 -40 -14.5t-42 -4.5q-45 0 -82 19t-62 57q-30 -40 -75.5 -58.5t-94.5 -18.5q-42 0 -80 13.5t-66.5 38t-45 60t-16.5 79.5q0 46 22.5 85t66.5 57q-22 7 -38 21.5t-26.5 33t-16 39.5t-5.5 43q0 44 16.5 79t44 59.5t65 37.5t79.5 13q39 0 77.5 -11.5
t67.5 -38.5l-52 -59q-40 34 -93 34q-21 0 -44.5 -7.5t-43 -21t-32 -33t-12.5 -43.5q0 -33 16 -54.5t41 -34t54.5 -17t55.5 -4.5h95v102h75v-102h146v-76h-146v-59q0 -26 5 -54t18 -51t33.5 -38t52.5 -15q29 0 54 17zM94 187q0 -25 12 -45.5t31.5 -35.5t43 -23t46.5 -8
q22 0 45.5 7.5t43 22t32 34.5t12.5 45q0 27 -1.5 54t-1.5 54h-105q-24 0 -52 -4.5t-51.5 -16.5t-39 -32.5t-15.5 -51.5z" />
    <glyph glyph-name="parenleft" unicode="(" horiz-adv-x="269" 
d="M250 -95q-63 20 -107 66.5t-71.5 106.5t-40 126t-12.5 125t12.5 125t40 126t71.5 107t107 67v-76q-47 -20 -77.5 -60t-48 -89t-24 -102t-6.5 -98t6.5 -98t24 -102t48 -89t77.5 -60v-75z" />
    <glyph glyph-name="parenright" unicode=")" horiz-adv-x="269" 
d="M19 754q63 -20 107 -67t71.5 -107t40 -126t12.5 -125t-12.5 -125t-40 -126t-71.5 -106.5t-107 -66.5v75q47 20 77.5 60t48 89t24 102t6.5 98t-6.5 98t-24 102t-48 89t-77.5 60v76z" />
    <glyph glyph-name="bracketleft" unicode="[" horiz-adv-x="225" 
d="M19 753h187v-75h-113v-698h113v-74h-187v847z" />
    <glyph glyph-name="bracketright" unicode="]" horiz-adv-x="225" 
d="M206 -94h-187v74h112v698h-112v75h187v-847z" />
    <glyph glyph-name="braceleft" unicode="{" horiz-adv-x="372" 
d="M280 -95q-54 0 -82 24.5t-40 62.5t-13 83.5t-2 88.5t-7.5 77.5t-27.5 49.5h-99v75h96q17 10 25 31.5t10.5 50.5t2.5 63.5t1.5 68.5t7.5 65.5t20.5 56t40.5 39t67 14.5q21 0 42 -4.5t40 -14.5l-27 -74q-9 7 -20 12t-22 5q-30 0 -45.5 -19.5t-22 -50.5t-7.5 -69.5
t-3.5 -77.5t-8.5 -74t-23 -58q17 -23 24 -58t9 -74t3 -77.5t6 -70t17.5 -51t37.5 -19.5q17 0 29 3.5t26 13.5l27 -73q-19 -11 -40 -15t-42 -4z" />
    <glyph glyph-name="braceright" unicode="}" horiz-adv-x="368" 
d="M255 291q-22 -15 -28 -49.5t-7 -77.5t-2 -88.5t-13 -83.5t-40 -62.5t-82 -24.5q-21 0 -42 4t-40 15l27 73q14 -10 26 -13.5t29 -3.5q25 0 37.5 19.5t17.5 50.5t6 69.5t3 77.5t8.5 74t23.5 58q-16 23 -22 57.5t-8 73.5t-3.5 78t-8 70.5t-22 51t-45.5 19.5q-11 0 -22 -5
t-20 -12l-27 74q19 10 40 14.5t42 4.5q55 0 83 -25.5t39.5 -64t12.5 -85.5t2 -90.5t7.5 -77t30.5 -46.5h96v-75h-99z" />
    <glyph glyph-name="asterisk" unicode="*" horiz-adv-x="468" 
d="M194 387l-147 -85l-38 65l147 85l-147 85l38 65l147 -85v170h75v-170l147 85l38 -65l-147 -85l147 -85l-38 -65l-147 85v-170h-75v170z" />
    <glyph glyph-name="backslash" unicode="\" horiz-adv-x="282" 
d="M273 0h-75l-189 658h75z" />
    <glyph glyph-name="plus" unicode="+" horiz-adv-x="432" 
d="M179 244h-160v75h160v198h75v-198h159v-75h-159v-197h-75v197z" />
    <glyph glyph-name="minus" unicode="&#x2212;" horiz-adv-x="385" 
d="M366 319v-75h-347v75h347z" />
    <glyph glyph-name="equal" unicode="=" horiz-adv-x="385" 
d="M366 375v-73h-347v73h347zM366 264v-74h-347v74h347z" />
    <glyph glyph-name="divide" unicode="&#xf7;" horiz-adv-x="432" 
d="M413 319v-75h-394v75h394zM179 198h75v-73h-75v73zM179 440h75v-74h-75v74z" />
    <glyph glyph-name="multiply" unicode="&#xd7;" horiz-adv-x="414" 
d="M207 334l140 140l53 -52l-141 -140l141 -140l-53 -52l-140 139l-140 -139l-53 52l140 140l-140 140l53 52z" />
    <glyph glyph-name="hyphen" unicode="-" horiz-adv-x="340" 
d="M321 319v-75h-302v75h302z" />
    <glyph glyph-name="fraction" unicode="&#x2044;" horiz-adv-x="282" 
d="M198 658h75l-189 -658h-75z" />
    <glyph glyph-name="at" unicode="@" horiz-adv-x="726" 
d="M510 -86q-35 -17 -74 -25.5t-78 -8.5q-73 0 -136.5 27t-111 74.5t-74.5 111t-27 136.5t27 136.5t74.5 110.5t111 74.5t136.5 27.5q69 0 130 -24.5t108.5 -68t76.5 -102.5t33 -128h1q0 -33 -3.5 -77t-17 -84t-40 -67.5t-72.5 -27.5q-85 0 -111 79q-23 -20 -51.5 -28.5
t-57.5 -8.5q-40 0 -72.5 15t-55 40.5t-35 60t-12.5 72.5t12.5 72.5t35 60.5t55 41t72.5 15q24 0 47.5 -6t44.5 -19v19h76q0 -9 -2 -46.5t-2 -85.5q0 -36 2 -72.5t8 -66t16.5 -48t27.5 -18.5q18 0 30 19.5t18.5 45t9 51t2.5 38.5q0 57 -21.5 107t-58.5 87t-87 58.5t-107 21.5
q-59 0 -108.5 -21t-86.5 -57.5t-57.5 -87t-20.5 -108.5q0 -57 21.5 -107t58 -86.5t86.5 -58t107 -21.5q28 0 55.5 5t53.5 16zM255 229q0 -48 23 -80.5t76 -32.5q13 0 29 4.5t30 12.5t24 20.5t10 28.5q0 27 -0.5 55.5t-9 51.5t-27.5 38t-56 15q-53 0 -76 -32.5t-23 -80.5z
" />
    <glyph glyph-name="less" unicode="&#x3c;" horiz-adv-x="346" 
d="M8 275l319 189v-80l-251 -150l251 -148v-80l-319 188v81z" />
    <glyph glyph-name="greater" unicode="&#x3e;" horiz-adv-x="351" 
d="M337 194l-319 -188v80l251 148l-251 150v80l319 -189v-81z" />
    <glyph glyph-name="asciicircum" unicode="^" horiz-adv-x="444" 
d="M259 658l171 -318h-80l-131 243l-129 -243h-81l170 318h80z" />
    <glyph glyph-name="underscore" unicode="_" horiz-adv-x="385" 
d="M366 74v-74h-347v74h347z" />
    <glyph glyph-name="section" unicode="&#xa7;" horiz-adv-x="335" 
d="M9 329q0 29 12 55.5t33 46.5q-21 16 -33 38t-12 49q0 33 12.5 59.5t34 44.5t50 28t59.5 10q43 0 84 -18t65 -55l-57 -49q-18 21 -41.5 34t-52.5 13q-13 0 -26.5 -4t-24.5 -11.5t-18 -18.5t-7 -26q0 -21 17.5 -35.5t43.5 -27t56 -25t56 -28.5t43.5 -37.5t17.5 -53.5
t-14 -58t-40 -44q22 -15 38 -37t16 -50q0 -33 -13.5 -57t-35.5 -40.5t-50 -24.5t-57 -8q-42 0 -82 17.5t-64 52.5l57 49q19 -20 40.5 -31.5t50.5 -11.5q10 0 23.5 2.5t24.5 8.5t19 15.5t8 22.5q0 20 -17.5 33.5t-43 24.5t-56 22.5t-56 27.5t-43 39t-17.5 58zM87 337
q0 -15 9 -26.5t22 -20.5t28 -15.5t26 -11.5q10 0 22.5 3t23 9t17.5 15.5t7 21.5q0 16 -13 28t-31 21.5t-36.5 16.5t-30.5 12q-17 -6 -30.5 -20t-13.5 -33z" />
    <glyph glyph-name="Euro" unicode="&#x20ac;" horiz-adv-x="462" 
d="M61 413q6 46 22.5 91t44.5 79.5t67.5 56t91.5 21.5q49 0 90 -21t71 -59l-54 -47q-19 26 -47 39t-60 13q-38 0 -64.5 -15t-44.5 -39.5t-28 -55.5t-15 -63h292v-73h-296v-24t1 -24h295v-74h-285q6 -29 17 -55t28.5 -45.5t42 -31t57.5 -11.5q32 0 59.5 12.5t47.5 38.5
l54 -47q-30 -38 -71 -59t-90 -21t-86 18t-64 48t-44 69.5t-26 83.5h-53v74h43q-1 12 -1 24v24h-42v73h47z" />
    <glyph glyph-name="asciitilde" unicode="~" horiz-adv-x="378" 
d="M369 304q-11 -15 -25 -30.5t-31 -28.5t-36 -21.5t-38 -8.5q-17 0 -31.5 8.5t-27.5 19t-23.5 19t-19.5 8.5q-7 0 -16.5 -7t-19.5 -16t-18.5 -18.5t-12.5 -15.5l-61 43q10 15 25 30.5t32 28t36 21t38 8.5q16 0 30 -8.5t27 -18.5t24 -18.5t20 -8.5q7 0 16.5 6.5t19.5 15.5
t18 18t13 15z" />
    <glyph glyph-name="quotesinglbase" unicode="&#x201a;" horiz-adv-x="131" 
d="M28 74h75q1 -14 1.5 -26.5t0.5 -26.5q0 -17 -1 -30.5t-3.5 -25.5t-7.5 -24t-14 -27h-38q10 10 16.5 23.5t6.5 27.5q0 16 -10.5 25t-25.5 11v73z" />
    <glyph glyph-name="germandbls" unicode="&#xdf;" horiz-adv-x="434" 
d="M201 658q42 0 79.5 -13t65.5 -38t44 -60t16 -79t-22 -82.5t-64 -53.5q46 -20 71 -62t25 -91q0 -42 -15.5 -75.5t-42 -56.5t-62.5 -35.5t-76 -12.5q-26 0 -51 4.5t-48 15.5l32 72q31 -16 67 -16q22 0 43.5 8t38.5 22t27 33.5t10 43.5q0 36 -18 57.5t-45 33.5t-59 15.5
t-60 3.5h-17v74q28 0 61.5 4t63 15.5t49 33.5t19.5 59q0 24 -12.5 43.5t-32 33t-43 21t-44.5 7.5q-31 0 -51.5 -15.5t-33 -39t-17.5 -51t-5 -52.5v-425h-75v425q0 43 10 84.5t32 74.5t56.5 53.5t83.5 20.5z" />
    <glyph glyph-name="Thorn" unicode="&#xde;" horiz-adv-x="453" 
d="M28 658h75v-141q34 0 72 -1t74.5 -6.5t70 -17t59 -32t40.5 -53t15 -78.5q0 -47 -15 -79.5t-40 -53.5t-58.5 -32t-70.5 -16t-75 -6t-72 -1v-141h-75v658zM103 442v-226h62q28 0 62 3.5t63 15.5t48.5 34t19.5 60q0 37 -19.5 59.5t-48.5 34.5t-63 15.5t-62 3.5h-62z" />
    <glyph glyph-name="thorn" unicode="&#xfe;" horiz-adv-x="396" 
d="M28 658h75v-223q21 18 47 27t53 9q48 0 81 -21.5t53.5 -56t30 -76.5t9.5 -82q0 -41 -9.5 -82.5t-30 -76t-53.5 -56t-81 -21.5q-27 0 -53 9t-47 27v-224h-75v847zM104 235q0 -24 4 -52t15 -52t30.5 -40t49.5 -16t49.5 16t30.5 40t15 52t4 52q0 22 -5 49.5t-16.5 52
t-30.5 41.5t-47 17q-30 0 -49.5 -16t-30.5 -40t-15 -52t-4 -52z" />
    <glyph glyph-name="questiondown" unicode="&#xbf;" horiz-adv-x="418" 
d="M251.984 323.98q-23.998 -11 -52.9961 -23.999q-28.999 -12.999 -53.9971 -30.498q-24.999 -17.499 -41.9971 -40.9971q-16.999 -23.499 -16.999 -55.4971q0 -23.998 12.499 -41.9971t31.498 -30.498q18.999 -12.5 41.4971 -18.999q22.499 -6.5 42.498 -6.5
q39.9971 0 75.4951 17.999t61.4961 47.9971l56.9961 -48.9971q-14.999 -21.998 -37.4971 -39.4971q-22.499 -17.499 -47.9971 -28.998q-25.499 -11.5 -52.9971 -17.499q-27.498 -6 -53.4971 -6q-38.9971 0 -75.9951 12.499q-36.9971 12.499 -66.4961 35.498
q-29.498 22.999 -46.9971 56.4961q-17.499 33.498 -17.499 75.4961q0 39.9971 14 69.4951q13.999 29.499 37.4971 51.9971q23.499 22.499 53.9971 39.498t63.4961 30.998v98.9941h73.9951v-146.991zM251.984 507.969h-73.9951v73.9961h73.9951v-73.9961z" />
    <glyph glyph-name="exclamdown" unicode="&#xa1;" horiz-adv-x="131" 
d="M28 470h75v-470h-75v470zM28 581h75v-74h-75v74z" />
    <glyph glyph-name="copyright" unicode="&#xa9;" horiz-adv-x="660" 
d="M339 163q-35 0 -63.5 13.5t-48.5 36.5t-31 53t-11 64q0 33 11.5 63t31.5 52t48.5 35t62.5 13q53 0 93 -34l-23 -67q-15 12 -32.5 19t-37.5 7q-17 0 -31.5 -8t-25 -20.5t-16.5 -28.5t-6 -32q0 -17 5.5 -33t16 -28.5t25 -20.5t32.5 -8q39 0 70 25l23 -67q-40 -34 -93 -34z
M9 329q0 66 24 126t66.5 105t100 72t125.5 27q67 0 125 -27t100.5 -72t66.5 -105t24 -126t-24 -126t-66.5 -105t-100.5 -72t-125 -27q-68 0 -125.5 27t-100 72t-66.5 105t-24 126zM85 329q0 -52 17.5 -98t49 -80.5t76 -55t97.5 -20.5t97.5 20.5t76.5 55t49.5 80.5t17.5 98
q0 50 -18.5 96t-50.5 81.5t-76 56.5t-96 21q-53 0 -97.5 -20.5t-76 -55.5t-49 -81.5t-17.5 -97.5z" />
    <glyph glyph-name="registered" unicode="&#xae;" horiz-adv-x="660" 
d="M9 329q0 66 24 126t66.5 105t100 72t125.5 27q67 0 125 -27t100.5 -72t66.5 -105t24 -126t-24 -126t-66.5 -105t-100.5 -72t-125 -27q-68 0 -125.5 27t-100 72t-66.5 105t-24 126zM85 329q0 -52 17.5 -98t49 -80.5t76 -55t97.5 -20.5t97.5 20.5t76.5 55t49.5 80.5
t17.5 98q0 50 -18.5 96t-50.5 81.5t-76 56.5t-96 21q-53 0 -97.5 -20.5t-76 -55.5t-49 -81.5t-17.5 -97.5zM432 167l-86 113q-14 -2 -29 -2h-29v-113h-75v330h106q25 0 49 -6.5t43 -20t31 -34t12 -48.5q0 -23 -9 -43.5t-27 -34.5l76 -99zM288 419v-66h31q7 0 17.5 1t19.5 5
t15.5 10t6.5 17q0 10 -6.5 16.5t-15.5 10.5t-19.5 5t-17.5 1h-31z" />
    <glyph glyph-name="guillemotleft" unicode="&#xab;" horiz-adv-x="474" 
d="M267 471v-80q-5 -4 -20 -15t-34.5 -26t-41.5 -32.5t-40.5 -33.5t-30.5 -30t-12 -21q0 -8 12 -21t30 -29t40 -32.5t42 -31t35 -25t20 -13.5v-80l-232 178q-12 9 -18.5 25t-6.5 31q0 16 7 31t20 25zM456 471v-80q-5 -4 -20 -15t-34.5 -26t-41.5 -32.5t-40.5 -33.5
t-30.5 -30t-12 -21q0 -8 12 -21t30 -29t40 -32.5t42 -31t35 -25t20 -13.5v-80l-232 178q-12 9 -18.5 25.5t-6.5 30.5q0 16 6.5 31t19.5 25z" />
    <glyph glyph-name="guilsinglleft" unicode="&#x2039;" horiz-adv-x="286" 
d="M267 471v-80q-4 -3 -18.5 -13.5t-34.5 -25.5t-42 -33t-40.5 -35t-31 -30.5t-12.5 -20.5q0 -8 11.5 -20.5t29.5 -28t39.5 -32t41.5 -31t35.5 -25.5t21.5 -15v-80l-232 178q-12 9 -18.5 25t-6.5 31q0 16 7 31t20 25z" />
    <glyph glyph-name="guilsinglright" unicode="&#x203a;" horiz-adv-x="286" 
d="M266 236q0 -15 -6.5 -31.5t-18.5 -25.5l-232 -178v80q6 4 21.5 15t35.5 25.5t41.5 31t39.5 32t29.5 28t11.5 20.5q0 7 -12.5 21t-31 30.5t-40.5 34t-42 33t-35 26t-18 13.5v80l231 -180q13 -10 19.5 -24.5t6.5 -30.5z" />
    <glyph glyph-name="guillemotright" unicode="&#xbb;" horiz-adv-x="474" 
d="M455 235q0 -15 -6.5 -31t-18.5 -25l-232 -178v80q5 3 20 13.5t35 25t42 31t40 32.5t30 29t12 21q0 7 -12 21t-30.5 30t-40.5 33.5t-41.5 32.5t-35 26t-19.5 15v80l230 -180q13 -10 20 -25t7 -31zM266 236q0 -15 -6.5 -31.5t-18.5 -25.5l-232 -178v80q5 3 20 13.5t35 25
t42 31t40 32.5t30 29t12 21q0 7 -12 21t-30.5 30t-40.5 33.5t-41.5 32.5t-35 26t-19.5 15v80l231 -180q13 -10 19.5 -24.5t6.5 -30.5z" />
    <glyph glyph-name="periodcentered" unicode="&#xb7;" horiz-adv-x="131" 
d="M28 375h75v-73h-75v73z" />
    <glyph glyph-name="logicalnot" unicode="&#xac;" horiz-adv-x="385" 
d="M291 244h-272v75h347v-178h-75v103z" />
    <glyph glyph-name="lira" unicode="&#x20a4;" horiz-adv-x="418" 
d="M9 0v75q46 0 69.5 9t33.5 28t11 48.5t1 71.5v3h-95v74h95v39h-95v75h95q0 44 10 86t32 75t57 53.5t85 20.5q21 0 42 -4t40 -14l-28 -74q-25 17 -54 17q-32 0 -52.5 -15t-33.5 -38t-18 -51t-5 -54v-2h132v-75h-132v-39h132v-74h-132q0 -39 -2.5 -80.5t-16.5 -79.5h224v-75
h-395z" />
    <glyph glyph-name="franc" unicode="&#x20a3;" horiz-adv-x="441" 
d="M159 291v-122h76v-75h-76v-94h-74v94h-76v75h76v489h338v-74h-264v-218h264v-75h-264z" />
    <glyph glyph-name="quoteleft" unicode="&#x2018;" horiz-adv-x="133" 
d="M105 424h-75q-1 14 -1.5 26.5t-0.5 26.5q0 34 4.5 56t21.5 51h38q-10 -10 -16.5 -23.5t-6.5 -27.5q0 -16 10.5 -25t25.5 -11v-73z" />
    <glyph glyph-name="quoteright" unicode="&#x2019;" horiz-adv-x="133" 
d="M28 584h75q1 -14 1.5 -26.5t0.5 -26.5q0 -17 -1 -30.5t-3.5 -25.5t-7.5 -24t-14 -27h-38q9 11 16 24t7 27q0 17 -10.5 25.5t-25.5 10.5v73z" />
    <glyph glyph-name="quotedblleft" unicode="&#x201c;" horiz-adv-x="227" 
d="M105 424h-75q-1 14 -1.5 26.5t-0.5 26.5q0 34 4.5 56t21.5 51h38q-10 -10 -16.5 -23.5t-6.5 -27.5q0 -16 10.5 -25t25.5 -11v-73zM199 424h-74q-1 14 -1.5 28.5t-0.5 28.5q0 17 1 30t3.5 24.5t7.5 23t13 25.5h39q-10 -10 -17 -23.5t-7 -27.5q0 -17 10.5 -25.5t25.5 -10.5
v-73z" />
    <glyph glyph-name="quotedblright" unicode="&#x201d;" horiz-adv-x="227" 
d="M123 584h74q1 -14 1.5 -28.5t0.5 -28.5q0 -17 -1 -30t-3.5 -24.5t-7.5 -23t-13 -25.5h-39q10 11 16.5 24.5t6.5 27.5q0 16 -10 24.5t-25 10.5v73zM28 584h75q1 -14 1.5 -26.5t0.5 -26.5q0 -17 -1 -30.5t-3.5 -25.5t-7.5 -24t-14 -27h-38q9 11 16 24t7 27q0 17 -10.5 25.5
t-25.5 10.5v73z" />
    <glyph glyph-name="lessequal" unicode="&#x2264;" horiz-adv-x="347" 
d="M9 369l319 142v-80l-229 -102l229 -102v-80l-319 142v80zM328 136v-75h-319v75h319z" />
    <glyph glyph-name="greaterequal" unicode="&#x2265;" horiz-adv-x="347" 
d="M328 289l-319 -142v80l229 102l-229 102v80l319 -142v-80zM328 136v-74h-319v74h319z" />
    <glyph glyph-name="approxequal" unicode="&#x2248;" horiz-adv-x="443" 
d="M424 248q-10 -15 -25 -32t-32 -32t-36.5 -24.5t-38.5 -9.5t-36 8t-33.5 18t-32 18t-30.5 8q-7 0 -16.5 -7.5t-19.5 -17.5t-18 -20t-12 -16l-66 40q10 15 25 32t32 32t36.5 24.5t38.5 9.5t36.5 -8t34 -18t31.5 -18t30 -8q7 0 17 7.5t19.5 17.5t17.5 20.5t12 16.5zM405 380
q-10 -15 -25 -32t-32 -32t-36.5 -24.5t-38.5 -9.5t-36 8t-33.5 18t-32 18t-30.5 8q-7 0 -16.5 -7.5t-19.5 -17.5t-18 -20t-12 -16l-66 40q10 15 25 32t32 32t36.5 24.5t38.5 9.5t36.5 -8t34 -18t31.5 -18t30 -8q7 0 17 7.5t19.5 17.5t17.5 20.5t12 16.5z" />
    <glyph glyph-name="notequal" unicode="&#x2260;" horiz-adv-x="385" 
d="M255 470h74l-188 -375h-75zM366 375v-73h-347v73h347zM366 264v-74h-347v74h347z" />
    <glyph glyph-name="endash" unicode="&#x2013;" horiz-adv-x="434" 
d="M415 319v-75h-396v75h396z" />
    <glyph glyph-name="emdash" unicode="&#x2014;" horiz-adv-x="528" 
d="M509 319v-75h-490v75h490z" />
    <glyph glyph-name="exclamdbl" unicode="&#x203c;" horiz-adv-x="244" 
d="M28 581h75v-470h-75v470zM28 74h75v-74h-75v74zM141 581h75v-470h-75v470zM141 74h75v-74h-75v74z" />
    <glyph glyph-name="plusminus" unicode="&#xb1;" horiz-adv-x="347" 
d="M132 305h-123v74h123v142h75v-142h121v-74h-121v-141h-75v141zM328 136v-75h-319v75h319z" />
    <glyph glyph-name="perthousand" unicode="&#x2030;" horiz-adv-x="916" 
d="M378 188q0 35 8 68.5t25.5 60t45 43t67.5 16.5q24 0 47 -7.5t42 -23.5q14 51 48 83.5t90 32.5q40 0 67.5 -16.5t45 -43t25.5 -60t8 -68.5t-8 -69t-25 -60.5t-45 -43t-68 -16.5q-24 0 -47 7.5t-42 23.5q-13 -52 -48 -84t-90 -32q-40 0 -68 16.5t-45 43t-25 60.5t-8 69z
M10 442q0 35 8 69t25.5 60.5t45.5 43t68 16.5t68 -16.5t45 -43t25 -60.5t8 -69t-8 -68.5t-25.5 -60t-45 -43t-67.5 -16.5t-68 16.5t-45.5 43t-25.5 60t-8 68.5zM589 658h93l-566 -658h-93zM680 273q0 -18 2.5 -38t10 -37t21.5 -28t37 -11t37 11t21.5 28t10 37t2.5 38
q0 16 -3.5 35.5t-11.5 37t-21.5 29t-34.5 11.5q-23 0 -36.5 -11t-21.5 -28t-10.5 -36.5t-2.5 -37.5zM86 442q0 -18 2.5 -38t10 -36.5t21.5 -27.5t37 -11q22 0 36 11t21.5 28t10 36.5t2.5 37.5q0 16 -3 36t-11 37t-21.5 29t-34.5 12q-23 0 -37 -11t-21.5 -28t-10 -37
t-2.5 -38zM454 188q0 -18 2.5 -37.5t10 -36.5t21 -28t36.5 -11t37 11t21.5 27.5t10 36.5t2.5 38q0 16 -3.5 35.5t-11.5 37t-21.5 29t-34.5 11.5q-23 0 -36.5 -11t-21 -28t-10 -37t-2.5 -37z" />
    <glyph glyph-name="zerosuperior" unicode="&#x2070;" horiz-adv-x="245" 
d="M5 447q0 27 5.5 56.5t19 53.5t35.5 39.5t55 15.5t55 -15.5t35.5 -40t19.5 -53.5t6 -56t-6 -56t-19.5 -53.5t-35.5 -40t-55 -15.5t-55 15.5t-35.5 40t-19 53.5t-5.5 56zM42 447q0 -20 3 -42t11 -41t23.5 -31.5t40.5 -12.5t40.5 12.5t23.5 31.5t11 41t3 42q0 19 -3 41
t-12 41t-24 32t-39 13q-26 0 -41 -12.5t-23.5 -31.5t-11 -41.5t-2.5 -41.5z" />
    <glyph glyph-name="onesuperior" unicode="&#xb9;" horiz-adv-x="93" 
d="M46 554l-18 -22l-28 25l46 55h38v-329h-38v271z" />
    <glyph glyph-name="twosuperior" unicode="&#xb2;" horiz-adv-x="211" 
d="M5 283v37q0 21 12 39t29.5 33.5t38.5 30.5t38.5 30.5t29.5 33t12 39.5q0 12 -6 21t-15.5 15t-20.5 9t-21 3q-20 0 -38.5 -8t-30.5 -25l-28 25q14 23 42 34.5t54 11.5q19 0 37.5 -6t33 -17.5t23.5 -28t9 -37.5q0 -38 -21 -62.5t-48 -45t-53.5 -42t-37.5 -53.5h161v-37
h-200z" />
    <glyph glyph-name="threesuperior" unicode="&#xb3;" horiz-adv-x="222" 
d="M77 429v38q14 0 31 1.5t32 6.5t25 16t10 31q0 12 -6.5 21.5t-16.5 16.5t-22 10.5t-22 3.5q-11 0 -22.5 -4t-21 -11t-16 -17t-6.5 -22v-3h-36q0 44 30 69.5t72 25.5t72.5 -25t30.5 -70q0 -22 -10.5 -41t-32.5 -27q21 -9 32.5 -28.5t11.5 -42.5q0 -45 -31 -70.5t-73 -25.5
q-41 0 -71.5 24.5t-31.5 67.5h37q2 -25 22.5 -39.5t43.5 -14.5q11 0 23 4t21.5 11t16 17t6.5 22q0 19 -10 30.5t-25 16.5t-32 6.5t-31 1.5z" />
    <glyph glyph-name="foursuperior" unicode="&#x2074;" horiz-adv-x="230" 
d="M139 381h-134v37l134 194h36v-194h48v-37h-48v-98h-36v98zM139 418v130l-90 -130h90z" />
    <glyph glyph-name="fivesuperior" unicode="&#x2075;" horiz-adv-x="213" 
d="M46 574v-95q13 9 27.5 14.5t30.5 5.5q47 0 73.5 -31t26.5 -76q0 -22 -7 -42t-20 -35t-31.5 -24t-41.5 -9q-40 0 -66.5 27t-32.5 65h37q5 -24 20.5 -39t41.5 -15q30 0 46.5 20t16.5 49q0 28 -16.5 50t-46.5 22q-16 0 -32.5 -7.5t-25.5 -21.5h-37v180h179v-38h-142z" />
    <glyph glyph-name="sixsuperior" unicode="&#x2076;" horiz-adv-x="231" 
d="M117 282q-33 0 -54 16t-33 40.5t-16.5 53.5t-4.5 55q0 28 6.5 57t20.5 53t37 39.5t56 15.5q23 0 43.5 -9t34.5 -27l-26 -27q-18 25 -52 25q-23 0 -38.5 -10.5t-25 -27t-13.5 -36.5t-5 -39q14 18 34.5 28t43.5 10q22 0 40 -9t30.5 -24t19.5 -34.5t7 -40.5q0 -46 -29 -77.5
t-76 -31.5zM117 320q33 0 50 19.5t17 51.5q0 26 -15 48t-44 22t-48.5 -20.5t-19.5 -49.5q0 -27 15 -49t45 -22z" />
    <glyph glyph-name="sevensuperior" unicode="&#x2077;" horiz-adv-x="211" 
d="M96 282h-44l110 292h-157v38h202v-38z" />
    <glyph glyph-name="eightsuperior" unicode="&#x2078;" horiz-adv-x="227" 
d="M115 283q-20 0 -39 4.5t-33.5 15t-23.5 26t-9 38.5q0 26 14.5 50t40.5 32q-23 9 -34 32t-11 46q0 42 27.5 63.5t67.5 21.5t67.5 -21.5t27.5 -63.5q0 -23 -11 -46t-34 -32q26 -8 41 -32t15 -50q0 -23 -9 -38.5t-24 -26t-34 -15t-39 -4.5zM115 320q25 0 47 14t22 42
t-22.5 40.5t-46.5 12.5t-46.5 -12.5t-22.5 -40.5q0 -29 22 -42.5t47 -13.5zM115 467q24 0 41 15t17 40t-17.5 38.5t-40.5 13.5t-41 -13.5t-18 -38.5t17.5 -40t41.5 -15z" />
    <glyph glyph-name="ninesuperior" unicode="&#x2079;" horiz-adv-x="231" 
d="M113 612q34 0 55 -16t33 -40t16.5 -53t4.5 -56q0 -28 -6.5 -57t-21 -53t-37.5 -39.5t-56 -15.5q-23 0 -43 9t-34 27l25 28q20 -26 52 -26q23 0 38.5 10.5t25 27t14 37t5.5 39.5q-14 -18 -34.5 -28.5t-43.5 -10.5t-40.5 9t-30.5 24.5t-19.5 35t-6.5 40.5q0 46 28.5 77
t75.5 31zM114 574q-33 0 -50 -19t-17 -51q0 -26 15 -48.5t44 -22.5q30 0 49.5 21t19.5 50q0 27 -16 48.5t-45 21.5z" />
    <glyph glyph-name="parenleftsuperior" unicode="&#x207d;" horiz-adv-x="134" 
d="M125 235q-32 10 -54 33t-36 53t-20 63t-6 63t6 63t20 63t36 53t54 33v-37q-24 -10 -39 -30t-24 -44.5t-12 -51t-3 -49.5t3 -49t12 -50.5t24 -44.5t39 -30v-38z" />
    <glyph glyph-name="parenrightsuperior" unicode="&#x207e;" horiz-adv-x="134" 
d="M9 659q32 -10 54 -33t36 -53t20 -63t6 -63t-6 -63t-20 -63t-36 -53t-54 -33v38q24 10 39 30t24 44.5t12 50.5t3 49t-3 49.5t-12 51t-24 44.5t-39 30v37z" />
    <glyph glyph-name="zeroinferior" unicode="&#x2080;" horiz-adv-x="245" 
d="M5 -25q0 27 5.5 56.5t19 53.5t35.5 40t55 16t55 -16t35.5 -40t19.5 -53.5t6 -56.5t-6 -56t-19.5 -53.5t-35.5 -40t-55 -15.5t-55 15.5t-35.5 40t-19 53.5t-5.5 56zM42 -25q0 -20 3 -42t11 -41t23.5 -31.5t40.5 -12.5t40.5 12.5t23.5 31.5t11 41t3 42q0 19 -3 41t-12 41.5
t-24 32.5t-39 13q-26 0 -41 -12.5t-23.5 -32t-11 -42t-2.5 -41.5z" />
    <glyph glyph-name="oneinferior" unicode="&#x2081;" horiz-adv-x="93" 
d="M46 82l-18 -22l-28 25l46 56h38v-330h-38v271z" />
    <glyph glyph-name="twoinferior" unicode="&#x2082;" horiz-adv-x="211" 
d="M5 -189v37q0 22 12 39.5t29.5 33.5t38.5 30.5t38.5 30.5t29.5 33.5t12 39.5q0 12 -6 21t-15.5 15t-20.5 9t-21 3q-20 0 -38.5 -8.5t-30.5 -24.5l-28 24q14 24 41.5 35.5t54.5 11.5q19 0 37.5 -6.5t33 -18t23.5 -28t9 -37.5q0 -38 -21 -62.5t-48 -45t-53.5 -42
t-37.5 -53.5h161v-37h-200z" />
    <glyph glyph-name="threeinferior" unicode="&#x2083;" horiz-adv-x="222" 
d="M77 -42v37q14 0 31 1.5t32 7t25 16.5t10 30q0 12 -6.5 22t-16.5 16.5t-22 10.5t-22 4q-11 0 -22.5 -4t-21 -11.5t-16 -17.5t-6.5 -22v-3h-36q0 44 30 70t72 26t72.5 -25.5t30.5 -69.5q0 -22 -10.5 -41.5t-32.5 -27.5q21 -9 32.5 -28.5t11.5 -42.5q0 -45 -31 -70.5
t-73 -25.5q-41 0 -71.5 25t-31.5 68h37v-4q0 -11 7 -20.5t17 -16t21.5 -10.5t20.5 -4q10 0 22 4t22 11t16.5 17t6.5 22q0 20 -10 31t-25 16.5t-32 7t-31 1.5z" />
    <glyph glyph-name="fourinferior" unicode="&#x2084;" horiz-adv-x="230" 
d="M139 -91h-134v37l134 195h36v-195h48v-37h-48v-98h-36v98zM139 -54v130l-90 -130h90z" />
    <glyph glyph-name="fiveinferior" unicode="&#x2085;" horiz-adv-x="213" 
d="M46 103v-96q13 9 27.5 14.5t30.5 5.5q47 0 73.5 -31t26.5 -76q0 -22 -7 -42t-20 -35t-31.5 -24t-41.5 -9q-41 0 -67 27.5t-32 65.5h37q5 -24 20.5 -39.5t41.5 -15.5q30 0 46.5 20.5t16.5 48.5q0 29 -16.5 51t-46.5 22q-17 0 -33 -8t-25 -22h-37v181h179v-38h-142z" />
    <glyph glyph-name="sixinferior" unicode="&#x2086;" horiz-adv-x="231" 
d="M117 -190q-33 0 -54 16t-33 40.5t-16.5 53.5t-4.5 55q0 28 6.5 57.5t20.5 53.5t37 39.5t56 15.5q47 0 78 -36l-26 -28q-18 26 -52 26q-23 0 -38.5 -10.5t-25 -27t-13.5 -36.5t-5 -39q14 17 34.5 27t43.5 10q22 0 40 -9t30.5 -24t19.5 -34.5t7 -40.5q0 -23 -7.5 -42.5
t-21.5 -34.5t-33.5 -23.5t-42.5 -8.5zM117 -152q33 0 50 19.5t17 51.5q0 26 -15 48.5t-44 22.5q-30 0 -49 -21t-19 -50q0 -27 15 -49t45 -22z" />
    <glyph glyph-name="seveninferior" unicode="&#x2087;" horiz-adv-x="211" 
d="M96 -190h-44l110 293h-157v38h202v-38z" />
    <glyph glyph-name="eightinferior" unicode="&#x2088;" horiz-adv-x="227" 
d="M115 -189q-20 0 -39 4.5t-33.5 15t-23.5 26t-9 38.5q0 26 14.5 50t40.5 32q-23 9 -34 32.5t-11 46.5q0 42 27.5 63.5t67.5 21.5t67.5 -21.5t27.5 -63.5q0 -23 -11 -46.5t-34 -32.5q26 -8 41 -31.5t15 -50.5q0 -23 -9 -38.5t-24 -26t-34 -15t-39 -4.5zM115 -152
q25 0 47 14t22 42t-22 41t-47 13t-47 -12.5t-22 -41.5q0 -28 22 -42t47 -14zM115 -5q24 0 41 15t17 40q0 26 -17 39.5t-41 13.5q-23 0 -41 -13.5t-18 -38.5t17.5 -40.5t41.5 -15.5z" />
    <glyph glyph-name="nineinferior" unicode="&#x2089;" horiz-adv-x="231" 
d="M113 141q33 0 54.5 -16t33.5 -40.5t16.5 -53.5t4.5 -56q0 -28 -6.5 -57t-21 -53t-37.5 -39.5t-56 -15.5q-47 0 -77 36l25 29q21 -27 52 -27q23 0 38.5 10.5t25 27t14 37t5.5 39.5q-14 -17 -34.5 -27.5t-43.5 -10.5t-40.5 9t-30.5 24t-19.5 34.5t-6.5 40.5q0 46 28.5 77.5
t75.5 31.5zM114 103q-34 0 -50.5 -19.5t-16.5 -51.5q0 -26 15 -48.5t44 -22.5t49 21t20 50q0 27 -16 49t-45 22z" />
    <glyph glyph-name="parenleftinferior" unicode="&#x208d;" horiz-adv-x="134" 
d="M125 -237q-32 10 -54 33.5t-35.5 53t-20 62.5t-6.5 63t6 63t20 63t36 53.5t54 33.5v-38q-24 -10 -39 -30t-24 -44.5t-12 -51t-3 -49.5t3 -49t12 -50.5t24 -44.5t39 -30v-38z" />
    <glyph glyph-name="parenrightinferior" unicode="&#x208e;" horiz-adv-x="134" 
d="M9 188q32 -10 54 -33.5t36 -53.5t20 -63t6 -63t-6.5 -63t-20 -62.5t-36 -53t-53.5 -33.5v38q24 10 39 30t24 44.5t12 50.5t3 49t-3 49.5t-12 51t-24 44.5t-39 30v38z" />
    <glyph glyph-name="onehalf" unicode="&#xbd;" horiz-adv-x="441" 
d="M65 554l-18 -22l-28 25l46 55h38v-329h-38v271zM222 0v37q0 21 12 39t29.5 33.5t38.5 30.5t38.5 30.5t29.5 33t12 39.5q0 12 -6 21t-15.5 15t-20.5 9t-21 3q-20 0 -38.5 -8t-30.5 -25l-28 25q14 23 42 34.5t54 11.5q19 0 37.5 -6t33 -17.5t23.5 -28t9 -37.5
q0 -38 -21 -62.5t-48 -45t-53.5 -42t-37.5 -53.5h161v-37h-200zM321 564h38l-301 -470h-39z" />
    <glyph glyph-name="onethird" unicode="&#x2153;" horiz-adv-x="441" 
d="M65 554l-18 -22l-28 25l46 55h38v-329h-38v271zM321 564h38l-294 -470h-46zM285 146v38q14 0 31 1.5t31.5 6.5t24.5 16t10 31q0 12 -6.5 21.5t-16 16.5t-21.5 10.5t-22 3.5q-11 0 -22.5 -4t-21 -11t-16 -17t-6.5 -22v-3h-37q0 44 30.5 69.5t72.5 25.5t72 -25t30 -69
q0 -23 -10.5 -42t-32.5 -27q22 -9 33.5 -28.5t11.5 -42.5q0 -45 -31 -70.5t-73 -25.5t-72.5 24.5t-31.5 68.5h37v-4q0 -11 7 -20.5t17 -16t22 -10.5t21 -4q25 0 45.5 16t20.5 43q0 18 -10.5 28t-25.5 15t-31.5 6t-29.5 1z" />
    <glyph glyph-name="onequarter" unicode="&#xbc;" horiz-adv-x="421" 
d="M318 98h-134v37l134 194h37v-194h47v-37h-47v-98h-37v98zM340 564h38l-302 -466l-38 -4zM65 554l-18 -22l-28 25l46 55h38v-329h-38v271zM318 135v130l-90 -130h90z" />
    <glyph glyph-name="oneeighth" unicode="&#x215b;" horiz-adv-x="441" 
d="M65 554l-18 -22l-28 25l46 55h38v-329h-38v271zM324 564h38l-297 -470h-43zM316 0q-20 0 -39 4.5t-33.5 15t-23.5 26t-9 38.5q0 26 14.5 50t40.5 32q-23 9 -34 32.5t-11 46.5q0 42 27.5 63t67.5 21t67.5 -21.5t27.5 -63.5q0 -23 -11 -46t-34 -32q26 -8 40.5 -32t14.5 -50
q0 -23 -9 -38.5t-23.5 -26t-33.5 -15t-39 -4.5zM316 37q25 0 47 14t22 42t-22.5 40.5t-46.5 12.5t-46.5 -12.5t-22.5 -40.5q0 -29 22 -42.5t47 -13.5zM316 184q24 0 41 15t17 40t-17.5 38.5t-40.5 13.5t-41 -13.5t-18 -38.5t17.5 -40t41.5 -15z" />
    <glyph glyph-name="twothirds" unicode="&#x2154;" horiz-adv-x="527" 
d="M427 564h39l-302 -470h-39zM374 146v38q14 0 31 1.5t32 6.5t25 16t10 31q0 12 -6.5 21.5t-16 16.5t-21.5 10.5t-22 3.5q-11 0 -22.5 -4t-21.5 -10.5t-16 -16.5t-6 -22v-4h-37q0 44 30.5 69.5t72.5 25.5t72 -25t30 -69q0 -23 -10.5 -42t-32.5 -27q22 -9 33.5 -28.5
t11.5 -42.5q0 -45 -31 -70.5t-73 -25.5t-72.5 24.5t-31.5 68.5h37v-4q0 -11 7 -20.5t17 -16.5t21.5 -10.5t21.5 -3.5q25 0 45.5 16.5t20.5 42.5q0 18 -10.5 28t-26 15t-32.5 6t-29 1zM19 283v37q0 32 25 56t55 46.5t55 47t25 56.5q0 12 -6 21t-15.5 15t-20.5 9t-21 3
q-42 0 -69 -33l-28 25q14 23 42 34.5t54 11.5q19 0 37.5 -6t33 -17.5t23.5 -28t9 -37.5q0 -38 -21 -62.5t-48 -45t-53.5 -42t-37.5 -53.5h161v-37h-200z" />
    <glyph glyph-name="threequarters" unicode="&#xbe;" horiz-adv-x="454" 
d="M351 0h37v98h47v37h-47v194h-37l-134 -194v-37h134v-98zM82 429v38q14 0 31 1.5t31.5 6.5t24.5 16t10 31q0 12 -6.5 21.5t-16 16.5t-21.5 10.5t-22 3.5q-11 0 -22.5 -4t-21 -11t-16 -17t-6.5 -22v-3h-37q0 44 30.5 69.5t72.5 25.5t72.5 -25.5t30.5 -69.5q0 -22 -11 -41
t-32 -27q21 -9 32.5 -28.5t11.5 -42.5q0 -45 -31 -70.5t-73 -25.5q-41 0 -72 24.5t-32 67.5h37q2 -25 23 -39.5t44 -14.5q25 0 45.5 16t20.5 43q0 18 -10.5 28t-25.5 15t-31.5 6t-29.5 1zM90 94h38l302 470h-39zM261 135l90 130v-130h-90z" />
    <glyph glyph-name="threeeighths" unicode="&#x215c;" horiz-adv-x="480" 
d="M357 0q20 0 39 4.5t33.5 15t23.5 26t9 38.5q0 26 -14.5 50t-40.5 32q23 9 33.5 32t10.5 46q0 42 -27 63.5t-67 21.5t-67.5 -21t-27.5 -63q0 -23 11 -46.5t34 -32.5q-26 -8 -41 -32t-15 -50q0 -23 9 -38.5t24 -26t34 -15t39 -4.5zM82 429v38q14 0 31 1.5t31.5 6.5t24.5 16
t10 31q0 12 -6.5 21.5t-16 16.5t-21.5 10.5t-22 3.5q-11 0 -22.5 -4t-21 -11t-16 -17t-6.5 -22v-3h-37q0 44 30.5 69.5t72.5 25.5t72.5 -25.5t30.5 -69.5q0 -22 -11 -41t-32 -27q21 -9 32.5 -28.5t11.5 -42.5q0 -45 -31 -70.5t-73 -25.5q-41 0 -72 24.5t-32 67.5h37
q2 -25 23 -39.5t44 -14.5q25 0 45.5 16t20.5 43q0 18 -10.5 28t-25.5 15t-31.5 6t-29.5 1zM81 94h39l302 470h-39zM357 37q-25 0 -47.5 13.5t-22.5 42.5q0 14 6.5 24t16.5 16.5t22.5 9.5t24.5 3q24 0 46 -12.5t22 -40.5t-21.5 -42t-46.5 -14zM357 184q-24 0 -41.5 15
t-17.5 40q0 26 18 39t41 13t40.5 -13.5t17.5 -38.5t-17 -40t-41 -15z" />
    <glyph glyph-name="fiveeighths" unicode="&#x215d;" horiz-adv-x="480" 
d="M357 0q-20 0 -39 4.5t-34 15t-24 26t-9 38.5q0 26 15 50t41 32q-23 9 -34 32.5t-11 46.5q0 42 27.5 63t67.5 21t67 -21.5t27 -63.5q0 -23 -10.5 -46t-33.5 -32q26 -8 40.5 -32t14.5 -50q0 -23 -9 -38.5t-23.5 -26t-33.5 -15t-39 -4.5zM46 574v-95q13 9 27.5 14.5
t30.5 5.5q47 0 73.5 -31t26.5 -76q0 -22 -7 -42t-20 -35t-31.5 -24t-41.5 -9q-40 0 -66.5 27t-32.5 65h37q5 -24 20.5 -39t41.5 -15q30 0 46.5 20t16.5 49q0 28 -16.5 50t-46.5 22q-16 0 -32.5 -7.5t-25.5 -21.5h-37v180h179v-38h-142zM374 564h38l-302 -470h-38zM357 37
q25 0 46.5 14t21.5 42t-22 40.5t-46 12.5q-12 0 -24.5 -3t-22.5 -9.5t-16.5 -16.5t-6.5 -24q0 -29 22.5 -42.5t47.5 -13.5zM357 184q24 0 41 15t17 40t-17.5 38.5t-40.5 13.5t-41 -13t-18 -39q0 -25 17.5 -40t41.5 -15z" />
    <glyph glyph-name="seveneighths" unicode="&#x215e;" horiz-adv-x="447" 
d="M324 0q-20 0 -39 4.5t-34 15t-24 26t-9 38.5q0 26 15 50t41 32q-23 9 -34 32.5t-11 46.5q0 42 27.5 63t67.5 21t67 -21.5t27 -63.5q0 -23 -10.5 -46t-33.5 -32q26 -8 40.5 -32t14.5 -50q0 -23 -9 -38.5t-23.5 -26t-33.5 -15t-39 -4.5zM101 282h-44l110 292h-158v38h202
v-38zM331 564h39l-302 -470h-39zM324 37q25 0 46.5 14t21.5 42t-22 40.5t-46 12.5q-12 0 -24.5 -3t-22.5 -9.5t-16.5 -16.5t-6.5 -24q0 -29 22.5 -42.5t47.5 -13.5zM324 184q24 0 41 15t17 40t-17.5 38.5t-40.5 13.5t-41 -13t-18 -39q0 -25 17.5 -40t41.5 -15z" />
    <glyph glyph-name="bullet" unicode="&#x2022;" horiz-adv-x="181" 
d="M8 332q0 34 21.5 59.5t56.5 25.5q17 0 31 -7.5t24 -19.5t15.5 -27t5.5 -31q0 -33 -20.5 -58t-55.5 -25t-56.5 24.5t-21.5 58.5z" />
    <glyph glyph-name="trademark" unicode="&#x2122;" horiz-adv-x="592" 
d="M291 612h39l93 -272l94 272h40l26 -329h-37l-19 242l-84 -242h-39l-84 244l-19 -244h-37zM148 574v-291h-38v291h-105v38h250v-38h-107z" />
    <glyph glyph-name="ordfeminine" unicode="&#xaa;" horiz-adv-x="236" 
d="M189 406q-32 -30 -74 -30q-24 0 -44 10t-35 26.5t-23 37.5t-8 44t8 44t23 37.5t35 26.5t44 10q20 0 39.5 -8t34.5 -22v30h37v-235h-37v29zM42 494q0 -32 19.5 -56t53.5 -24q30 0 52 21t22 52q0 33 -18.5 60t-55.5 27q-34 0 -53.5 -24t-19.5 -56z" />
    <glyph glyph-name="ordmasculine" unicode="&#xba;" horiz-adv-x="233" 
d="M5 494q0 23 8 44t23 37.5t35 26.5t44 10t44.5 -9.5t35 -26t23 -38t8.5 -44.5t-8.5 -44.5t-23 -38t-35 -26t-44.5 -9.5t-44 10t-35 26.5t-23 37.5t-8 44zM42 494q0 -32 19.5 -56t53.5 -24t54 24t20 56q0 15 -5.5 29.5t-15.5 26t-23.5 18t-29.5 6.5q-34 0 -53.5 -24
t-19.5 -56z" />
    <glyph glyph-name="uni00AD" unicode="&#xad;" horiz-adv-x="340" 
d="M321 319v-75h-302v75h302z" />
    <glyph glyph-name="degree" unicode="&#xb0;" horiz-adv-x="233" 
d="M5 494q0 23 8 44t23 37.5t35 26.5t44 10t44.5 -9.5t35 -26t23 -38t8.5 -44.5t-8.5 -44.5t-23 -38t-35 -26t-44.5 -9.5t-44 10t-35 26.5t-23 37.5t-8 44zM42 494q0 -32 19.5 -56t53.5 -24t54 24t20 56q0 15 -5.5 29.5t-15.5 26t-23.5 18t-29.5 6.5q-34 0 -53.5 -24
t-19.5 -56z" />
    <glyph glyph-name="onedotenleader" unicode="&#x2024;" horiz-adv-x="131" 
d="M28 74h75v-74h-75v74z" />
    <glyph glyph-name="twodotenleader" unicode="&#x2025;" horiz-adv-x="243" 
d="M28 74h75v-74h-75v74zM141 74h74v-74h-74v74z" />
    <glyph glyph-name="ellipsis" unicode="&#x2026;" horiz-adv-x="393" 
d="M28 74h75v-74h-75v74zM159 74h75v-74h-75v74zM291 74h74v-74h-74v74z" />
    <glyph glyph-name="paragraph" unicode="&#xb6;" horiz-adv-x="556" 
d="M424 0h-74v226q-56 0 -115 6.5t-107 29t-78.5 65t-30.5 115.5q0 57 23 97.5t61 67t86.5 39t98.5 12.5h249v-658h-75v584h-38v-584z" />
    <glyph glyph-name="colonmonetary" unicode="&#x20a1;" horiz-adv-x="421" 
d="M78 80q-39 52 -54 118.5t-15 130.5q0 44 7.5 93.5t26.5 94t49.5 80t77.5 52.5l9 57h75l-8 -45q10 -1 19.5 -2t18.5 -3l8 50h75l-13 -79q28 -20 48 -46l-54 -47l-8 9l-75 -467q52 8 83 50l54 -47q-28 -35 -66.5 -56.5t-83.5 -23.5l-7 -46h-74l9 54q-10 3 -19 7t-18 9
l-11 -70h-74zM156 103q18 -13 36 -20l80 500q-15 3 -31 3l-7 -1zM85 342q0 -35 2 -69t11 -67l57 350q-22 -18 -35.5 -44t-21 -55t-10.5 -58.5t-3 -56.5z" />
    <glyph glyph-name="nsuperior" unicode="&#x207f;" horiz-adv-x="217" 
d="M5 612h37v-24q13 12 30 18t34 6q24 0 43 -10t32 -26t20 -37.5t7 -43.5v-118h-38q0 13 1.5 34t1.5 45q0 21 -2.5 42.5t-9.5 38t-20.5 27t-34.5 10.5t-34.5 -10.5t-21 -27t-10 -37t-2.5 -41.5q0 -24 2 -45.5t2 -35.5h-37v235z" />
    <glyph glyph-name="longs" unicode="&#x17f;" horiz-adv-x="222" 
d="M66 0v291h-57v75h57q0 18 -0.5 38t-0.5 41q0 38 4 76.5t18.5 69t41.5 49.5t74 19v-75q-21 0 -33.5 -15.5t-19 -39t-8.5 -51.5t-2 -52q0 -16 0.5 -29t0.5 -21v-376h-75z" />
    <glyph glyph-name="longs_t" unicode="&#xfb05;" horiz-adv-x="503" 
d="M315 291h-93v75h93v217h-113q-21 0 -33 -16t-18.5 -40t-8.5 -52t-2 -52q0 -15 0.5 -27t0.5 -20v-376h-75v291h-57v75h57q0 19 -1 39.5t-1 42.5q0 38 4.5 75.5t18.5 67.5t41.5 48.5t73.5 18.5h188v-292h94v-75h-94v-291h-75v291z" />
    <glyph glyph-name="Eng" unicode="&#x14a;" horiz-adv-x="486" 
d="M19 658h86l287 -522v522h75v-612q0 -47 -16.5 -89.5t-46.5 -75t-70.5 -52t-88.5 -19.5q-46 0 -88 19t-72 54l51 53q20 -24 48.5 -37t60.5 -13q51 0 88 30t51 78l-291 529v-523h-74v658z" />
    <glyph glyph-name="eng" unicode="&#x14b;" horiz-adv-x="434" 
d="M9 470h75v-48q26 24 59.5 36t68.5 12q49 0 86.5 -19.5t63.5 -51.5t39.5 -74.5t13.5 -87.5v-193q0 -44 -10 -85.5t-32.5 -74.5t-57.5 -53t-84 -20q-21 0 -42 4.5t-40 14.5l27 74q23 -17 55 -17q31 0 52 15t34 38t18 50.5t5 53.5v193q0 29 -7.5 57.5t-23.5 50.5t-40 35.5
t-57 13.5t-57 -13.5t-39.5 -35.5t-23 -50.5t-7.5 -57.5v-237h-76v470z" />
    <glyph glyph-name="eth" unicode="&#xf0;" horiz-adv-x="462" 
d="M363 655l50 -47l-53 -57q45 -52 64 -113t19 -129q0 -51 -10 -106t-35 -100t-66.5 -74.5t-104.5 -29.5q-47 0 -85.5 16.5t-65.5 46t-42 69t-15 85.5q0 42 13.5 81t38 69.5t60.5 48.5t81 18q46 0 86.5 -20.5t69.5 -55.5q-2 39 -16 76t-39 67l-55 -60l-50 46l55 60
q-26 18 -55.5 28t-61.5 10v75q45 0 87.5 -16.5t77.5 -44.5zM228 75q29 0 51.5 12t38 31.5t23.5 45t8 52.5q0 29 -10 55t-28.5 45.5t-43.5 30.5t-55 11q-29 0 -51 -12.5t-37 -32.5t-22.5 -45.5t-7.5 -51.5q0 -64 34 -102.5t100 -38.5z" />
    <glyph glyph-name="breve" unicode="&#x2d8;" horiz-adv-x="272" 
d="M262 664q-4 -56 -35 -93t-91 -37q-59 0 -90.5 36.5t-36.5 92.5h66q2 -26 17 -48t44 -22t43.5 22.5t16.5 48.5h66z" />
    <glyph glyph-name="acute" unicode="&#xb4;" horiz-adv-x="242" 
d="M188 711l45 -51l-181 -162l-45 51z" />
    <glyph glyph-name="circumflex" unicode="&#x2c6;" horiz-adv-x="261" 
d="M162 706l90 -180h-64l-58 115l-56 -115h-65l89 180h64z" />
    <glyph glyph-name="caron" unicode="&#x2c7;" horiz-adv-x="261" 
d="M98 507l-89 180h65l56 -116l58 116h64l-90 -180h-64z" />
    <glyph glyph-name="dieresis" unicode="&#xa8;" horiz-adv-x="237" 
d="M19 615h67v-66h-67v66zM151 615h67v-66h-67v66z" />
    <glyph glyph-name="dotaccent" unicode="&#x2d9;" horiz-adv-x="105" 
d="M19 615h67v-66h-67v66z" />
    <glyph glyph-name="grave" unicode="`" horiz-adv-x="201" 
d="M191 538l-55 -40l-127 179l56 40z" />
    <glyph glyph-name="hungarumlaut" unicode="&#x2dd;" horiz-adv-x="299" 
d="M117 717l56 -40l-108 -179l-56 40zM234 717l56 -40l-108 -179l-56 40z" />
    <glyph glyph-name="macron" unicode="&#xaf;" horiz-adv-x="293" 
d="M9 615h275v-66h-275v66z" />
    <glyph glyph-name="guillemotleft.cap" horiz-adv-x="474" 
 />
    <glyph glyph-name="tilde" unicode="&#x2dc;" horiz-adv-x="291" 
d="M281 616q-8 -12 -18.5 -25t-23.5 -24t-27.5 -18t-29.5 -7q-11 0 -21 5.5t-19 12.5t-17.5 12.5t-17.5 5.5q-5 0 -12 -4t-13.5 -10t-12.5 -12.5t-9 -10.5l-51 35q7 11 18 24t24.5 24t28 18.5t28.5 7.5q12 0 22 -5.5t19 -12.5t17.5 -12.5t17.5 -5.5q6 0 12.5 4t13 10
t12 12.5t8.5 10.5z" />
    <glyph glyph-name="ring" unicode="&#x2da;" horiz-adv-x="217" 
d="M9 623q0 21 7.5 40t20.5 33.5t31.5 23t39.5 8.5t39 -8.5t31.5 -23t21.5 -33.5t8 -40t-8 -40t-21.5 -33.5t-31.5 -23t-39 -8.5t-39.5 8.5t-31.5 23t-20.5 33.5t-7.5 40zM64 623q0 -20 11 -35t33 -15t33.5 15t11.5 35q0 19 -12.5 35t-32.5 16q-23 0 -33.5 -15t-10.5 -36z
" />
    <glyph glyph-name="ogonek" unicode="&#x2db;" horiz-adv-x="182" 
d="M135 1q-6 -8 -15.5 -21t-18.5 -27t-15.5 -28t-6.5 -25q0 -14 12.5 -16.5t23.5 -2.5q10 0 21 1t20 6l17 -61q-15 -7 -32 -9t-34 -2t-34.5 2t-31.5 9t-22.5 20t-8.5 34q0 32 15.5 63t34.5 57h75z" />
    <glyph glyph-name="cedilla" unicode="&#xb8;" horiz-adv-x="284" 
d="M95 37h65v-74q17 -6 37 -13.5t37.5 -19t29 -27t11.5 -37.5q0 -29 -14.5 -47t-36.5 -28.5t-48 -14.5t-48 -4q-30 0 -61 5t-58 19l48 49q5 -3 15 -5t21.5 -3.5t22 -2t16.5 -0.5q7 0 19 1t24 4t20.5 9.5t8.5 17.5q0 10 -14 18t-32.5 14.5t-36.5 11l-26 6.5v121z" />
    <glyph glyph-name="periodcentered" horiz-adv-x="131" 
d="M28 375h75v-73h-75v73z" />
    <glyph glyph-name="dotlessj" unicode="&#x237;" horiz-adv-x="132" 
d="M-135 -96q23 -17 55 -17q31 0 52 15t33.5 38t17.5 50.5t5 53.5v426h76v-426q0 -43 -10.5 -85t-32.5 -75t-57 -53t-84 -20q-21 0 -42 4.5t-40 14.5z" />
    <glyph glyph-name="s_t" unicode="&#xfb06;" horiz-adv-x="618" 
d="M401 396h-245q-12 0 -24 -4.5t-22 -12.5t-16.5 -19t-6.5 -23q0 -21 17.5 -35.5t43.5 -27t56 -25t56 -28.5t43.5 -38t17.5 -54q0 -33 -13.5 -57t-35.5 -40.5t-50 -24.5t-57 -8q-42 0 -82 17.5t-64 52.5l57 49q19 -20 40.5 -31.5t50.5 -11.5q10 0 23.5 2.5t24.5 8.5
t19 15.5t8 22.5q0 20 -17.5 33.5t-43 24.5t-56 22.5t-56 27.5t-43 39t-17.5 58q0 33 12.5 59t34 45t50 29t59.5 10l236 -1v187h74v-187h123v-75h-123v-396h-74v396z" />
    <glyph glyph-name="ff" unicode="&#xfb00;" horiz-adv-x="624" 
d="M424 291v-291h-75v291h-94v75h94q0 48 5 100t23.5 94.5t55 70t100.5 27.5q21 0 42 -4t40 -14l-27 -74q-25 17 -55 17q-31 0 -52 -15t-33.5 -38.5t-18 -51.5t-5.5 -53v-59h168v-75h-168zM141 291v-291h-75v291h-57v75h57q0 48 5 100t23.5 94.5t55 70t100.5 27.5
q21 0 42 -4t40 -14l-27 -74q-25 17 -55 17q-31 0 -52 -15t-33.5 -38.5t-18 -51.5t-5.5 -53v-59h168v-75h-168z" />
    <glyph glyph-name="Aacute" unicode="&#xc1;" horiz-adv-x="593" 
d="M307 658l227 -658h-81l-68 197h-237l-67 -197h-80l226 658h80zM174 272h185l-92 269zM374 900l45 -51l-181 -162l-45 51z" />
    <glyph glyph-name="Abreve" unicode="&#x102;" horiz-adv-x="593" 
d="M307 658l227 -658h-81l-68 197h-237l-67 -197h-80l226 658h80zM174 272h185l-92 269zM448 853q-4 -56 -35 -93t-91 -37q-59 0 -90.5 36.5t-36.5 92.5h66q2 -26 17 -48t44 -22t43.5 22.5t16.5 48.5h66z" />
    <glyph glyph-name="Acircumflex" unicode="&#xc2;" horiz-adv-x="593" 
d="M307 658l227 -658h-81l-68 197h-237l-67 -197h-80l226 658h80zM174 272h185l-92 269zM353 895l90 -180h-64l-58 115l-56 -115h-65l89 180h64z" />
    <glyph glyph-name="Agrave" unicode="&#xc0;" horiz-adv-x="593" 
d="M307 658l227 -658h-81l-68 197h-237l-67 -197h-80l226 658h80zM174 272h185l-92 269zM346 736l-55 -40l-127 179l56 40z" />
    <glyph glyph-name="Adieresis" unicode="&#xc4;" horiz-adv-x="593" 
d="M307 658l227 -658h-81l-68 197h-237l-67 -197h-80l226 658h80zM174 272h185l-92 269zM222 804h67v-66h-67v66zM354 804h67v-66h-67v66z" />
    <glyph glyph-name="Amacron" unicode="&#x100;" horiz-adv-x="593" 
d="M307 658l227 -658h-81l-68 197h-237l-67 -197h-80l226 658h80zM174 272h185l-92 269zM184 804h275v-66h-275v66z" />
    <glyph glyph-name="Aogonek" unicode="&#x104;" horiz-adv-x="593" 
d="M588 0q-6 -8 -15.5 -21t-18.5 -27t-15.5 -28t-6.5 -25q0 -14 12.5 -16.5t23.5 -2.5q9 0 20.5 1t19.5 6l17 -61q-15 -7 -32 -9t-33 -2q-18 0 -36 2.5t-32 10t-23 21t-9 35.5q0 32 15 61.5t33 54.5h80zM307 658l227 -658h-81l-68 197h-237l-67 -197h-80l226 658h80z
M174 272h185l-92 269z" />
    <glyph glyph-name="Aring" unicode="&#xc5;" horiz-adv-x="593" 
d="M307 658l227 -658h-81l-68 197h-237l-67 -197h-80l226 658h80zM174 272h185l-92 269zM222 812q0 21 7.5 40t20.5 33.5t31.5 23t39.5 8.5t39 -8.5t31.5 -23t21.5 -33.5t8 -40t-8 -40t-21.5 -33.5t-31.5 -23t-39 -8.5t-39.5 8.5t-31.5 23t-20.5 33.5t-7.5 40zM277 812
q0 -20 11 -35t33 -15t33.5 15t11.5 35q0 19 -12.5 35t-32.5 16q-23 0 -33.5 -15t-10.5 -36z" />
    <glyph glyph-name="Atilde" unicode="&#xc3;" horiz-adv-x="593" 
d="M307 658l227 -658h-81l-68 197h-237l-67 -197h-80l226 658h80zM174 272h185l-92 269zM456 805q-8 -12 -18.5 -25t-23.5 -24t-27.5 -18t-29.5 -7q-11 0 -21 5.5t-19 12.5t-17.5 12.5t-17.5 5.5q-5 0 -12 -4t-13.5 -10t-12.5 -12.5t-9 -10.5l-51 35q7 11 18 24t24.5 24
t28 18.5t28.5 7.5q12 0 22 -5.5t19 -12.5t17.5 -12.5t17.5 -5.5q6 0 12.5 4t13 10t12 12.5t8.5 10.5z" />
    <glyph glyph-name="AE" unicode="&#xc6;" horiz-adv-x="629" 
d="M282 197h-133l-68 -197h-80l226 658h383v-74h-253v-218h253v-75h-253v-216h253v-75h-328v197zM282 272v310l-107 -310h107z" />
    <glyph glyph-name="AEacute" unicode="&#x1fc;" horiz-adv-x="629" 
d="M282 197h-133l-68 -197h-80l226 658h383v-74h-253v-218h253v-75h-253v-216h253v-75h-328v197zM282 272v310l-107 -310h107zM382 900l45 -51l-181 -162l-45 51z" />
    <glyph glyph-name="Cacute" unicode="&#x106;" horiz-adv-x="524" 
d="M317 -1q-70 0 -127 27t-97 72.5t-62 106t-22 127.5q0 66 22.5 125t63 104t97.5 71t125 26q51 0 99.5 -17.5t88.5 -49.5l-47 -58q-30 24 -66.5 37t-74.5 13q-54 0 -97 -20t-73 -54.5t-45.5 -80t-15.5 -97.5q0 -53 15 -99.5t44.5 -81.5t72.5 -55t99 -20q38 0 75 12.5
t66 37.5l47 -58q-40 -32 -88.5 -50t-99.5 -18zM348 900l45 -51l-181 -162l-45 51z" />
    <glyph glyph-name="Ccaron" unicode="&#x10c;" horiz-adv-x="524" 
d="M317 -1q-70 0 -127 27t-97 72.5t-62 106t-22 127.5q0 66 22.5 125t63 104t97.5 71t125 26q51 0 99.5 -17.5t88.5 -49.5l-47 -58q-30 24 -66.5 37t-74.5 13q-54 0 -97 -20t-73 -54.5t-45.5 -80t-15.5 -97.5q0 -53 15 -99.5t44.5 -81.5t72.5 -55t99 -20q38 0 75 12.5
t66 37.5l47 -58q-40 -32 -88.5 -50t-99.5 -18zM267 696l-89 180h65l56 -116l58 116h64l-90 -180h-64z" />
    <glyph glyph-name="Ccedilla" unicode="&#xc7;" horiz-adv-x="524" 
d="M317 -1q-70 0 -127 27t-97 72.5t-62 106t-22 127.5q0 66 22.5 125t63 104t97.5 71t125 26q51 0 99.5 -17.5t88.5 -49.5l-47 -58q-30 24 -66.5 37t-74.5 13q-54 0 -97 -20t-73 -54.5t-45.5 -80t-15.5 -97.5q0 -53 15 -99.5t44.5 -81.5t72.5 -55t99 -20q38 0 75 12.5
t66 37.5l47 -58q-40 -32 -88.5 -50t-99.5 -18zM263 37h65v-74q17 -6 37 -13.5t37.5 -19t29 -27t11.5 -37.5q0 -29 -14.5 -47t-36.5 -28.5t-48 -14.5t-48 -4q-30 0 -61 5t-58 19l48 49q5 -3 15 -5t21.5 -3.5t22 -2t16.5 -0.5q7 0 19 1t24 4t20.5 9.5t8.5 17.5q0 10 -14 18
t-32.5 14.5t-36.5 11l-26 6.5v121z" />
    <glyph glyph-name="Ccircumflex" unicode="&#x108;" horiz-adv-x="524" 
d="M317 -1q-70 0 -127 27t-97 72.5t-62 106t-22 127.5q0 66 22.5 125t63 104t97.5 71t125 26q51 0 99.5 -17.5t88.5 -49.5l-47 -58q-30 24 -66.5 37t-74.5 13q-54 0 -97 -20t-73 -54.5t-45.5 -80t-15.5 -97.5q0 -53 15 -99.5t44.5 -81.5t72.5 -55t99 -20q38 0 75 12.5
t66 37.5l47 -58q-40 -32 -88.5 -50t-99.5 -18zM340 895l90 -180h-64l-58 115l-56 -115h-65l89 180h64z" />
    <glyph glyph-name="Cdotaccent" unicode="&#x10a;" horiz-adv-x="524" 
d="M317 -1q-70 0 -127 27t-97 72.5t-62 106t-22 127.5q0 66 22.5 125t63 104t97.5 71t125 26q51 0 99.5 -17.5t88.5 -49.5l-47 -58q-30 24 -66.5 37t-74.5 13q-54 0 -97 -20t-73 -54.5t-45.5 -80t-15.5 -97.5q0 -53 15 -99.5t44.5 -81.5t72.5 -55t99 -20q38 0 75 12.5
t66 37.5l47 -58q-40 -32 -88.5 -50t-99.5 -18zM285 804h67v-66h-67v66z" />
    <glyph glyph-name="Dcaron" unicode="&#x10e;" horiz-adv-x="495" 
d="M19 658h165q68 0 123 -27t93.5 -73t59.5 -105.5t21 -123.5q0 -65 -21 -124t-59.5 -105t-93.5 -73t-123 -27h-165v658zM406 329q0 49 -15 94.5t-43.5 80.5t-70 56.5t-93.5 22.5l-91 1v-509h91q54 0 95.5 21t69.5 56t42.5 81t14.5 96zM140 696l-89 180h65l56 -116l58 116
h64l-90 -180h-64z" />
    <glyph glyph-name="Dcroat" unicode="&#x110;" horiz-adv-x="538" 
d="M57 658h165q68 0 123 -27t93.5 -73t59.5 -105.5t21 -123.5q0 -65 -21 -124t-59.5 -105t-93.5 -73t-123 -27h-165v658zM444 329q0 49 -15 94.5t-43.5 80.5t-70 56.5t-93.5 22.5l-91 1v-509h91q54 0 95.5 21t69.5 56t42.5 81t14.5 96zM9 363h275v-66h-275v66z" />
    <glyph glyph-name="Eacute" unicode="&#xc9;" 
d="M19 0v658h375v-74h-301v-218h301v-75h-301v-216h301v-75h-375zM275 900l45 -51l-181 -162l-45 51z" />
    <glyph glyph-name="Ebreve" unicode="&#x114;" 
d="M19 0v658h375v-74h-301v-218h301v-75h-301v-216h301v-75h-375zM333 853q-4 -56 -35 -93t-91 -37q-59 0 -90.5 36.5t-36.5 92.5h66q2 -26 17 -48t44 -22t43.5 22.5t16.5 48.5h66z" />
    <glyph glyph-name="Ecaron" unicode="&#x11a;" 
d="M19 0v658h375v-74h-301v-218h301v-75h-301v-216h301v-75h-375zM173 696l-89 180h65l56 -116l58 116h64l-90 -180h-64z" />
    <glyph glyph-name="Ecircumflex" unicode="&#xca;" 
d="M19 0v658h375v-74h-301v-218h301v-75h-301v-216h301v-75h-375zM237 895l90 -180h-64l-58 115l-56 -115h-65l89 180h64z" />
    <glyph glyph-name="Edieresis" unicode="&#xcb;" 
d="M19 0v658h375v-74h-301v-218h301v-75h-301v-216h301v-75h-375zM107 804h67v-66h-67v66zM239 804h67v-66h-67v66z" />
    <glyph glyph-name="Edotaccent" unicode="&#x116;" 
d="M19 0v658h375v-74h-301v-218h301v-75h-301v-216h301v-75h-375zM173 804h67v-66h-67v66z" />
    <glyph glyph-name="Egrave" unicode="&#xc8;" 
d="M19 0v658h375v-74h-301v-218h301v-75h-301v-216h301v-75h-375zM297 727l-55 -40l-127 179l56 40z" />
    <glyph glyph-name="Emacron" unicode="&#x112;" 
d="M19 0v658h375v-74h-301v-218h301v-75h-301v-216h301v-75h-375zM68 804h275v-66h-275v66z" />
    <glyph glyph-name="Eogonek" unicode="&#x118;" 
d="M19 0v658h375v-74h-301v-218h301v-75h-301v-216h301v-75h-375zM357 1q-6 -8 -15.5 -21t-18.5 -27t-15.5 -28t-6.5 -25q0 -14 12.5 -16.5t23.5 -2.5q10 0 21 1t20 6l17 -61q-15 -7 -32 -9t-34 -2t-34.5 2t-31.5 9t-22.5 20t-8.5 34q0 32 15.5 63t34.5 57h75z" />
    <glyph glyph-name="Gbreve" unicode="&#x11e;" horiz-adv-x="524" 
d="M317 -1q-70 0 -127 27t-97 72.5t-62 106t-22 127.5q0 66 22.5 125t63 104t97.5 71t125 26q51 0 99.5 -17.5t88.5 -49.5l-47 -58q-30 24 -66.5 37t-74.5 13q-54 0 -97 -20t-73 -54.5t-45.5 -80t-15.5 -97.5q0 -53 15 -99.5t44.5 -81.5t72.5 -55t99 -20q30 0 58.5 7
t54.5 23v186h-189v75h264v-299q-40 -32 -88.5 -50t-99.5 -18zM425 853q-4 -56 -35 -93t-91 -37q-59 0 -90.5 36.5t-36.5 92.5h66q2 -26 17 -48t44 -22t43.5 22.5t16.5 48.5h66z" />
    <glyph glyph-name="Gcircumflex" unicode="&#x11c;" horiz-adv-x="524" 
d="M317 -1q-70 0 -127 27t-97 72.5t-62 106t-22 127.5q0 66 22.5 125t63 104t97.5 71t125 26q51 0 99.5 -17.5t88.5 -49.5l-47 -58q-30 24 -66.5 37t-74.5 13q-54 0 -97 -20t-73 -54.5t-45.5 -80t-15.5 -97.5q0 -53 15 -99.5t44.5 -81.5t72.5 -55t99 -20q30 0 58.5 7
t54.5 23v186h-189v75h264v-299q-40 -32 -88.5 -50t-99.5 -18zM331 895l90 -180h-64l-58 115l-56 -115h-65l89 180h64z" />
    <glyph glyph-name="Gdotaccent" unicode="&#x120;" horiz-adv-x="524" 
d="M317 -1q-70 0 -127 27t-97 72.5t-62 106t-22 127.5q0 66 22.5 125t63 104t97.5 71t125 26q51 0 99.5 -17.5t88.5 -49.5l-47 -58q-30 24 -66.5 37t-74.5 13q-54 0 -97 -20t-73 -54.5t-45.5 -80t-15.5 -97.5q0 -53 15 -99.5t44.5 -81.5t72.5 -55t99 -20q30 0 58.5 7
t54.5 23v186h-189v75h264v-299q-40 -32 -88.5 -50t-99.5 -18zM285 804h67v-66h-67v66z" />
    <glyph glyph-name="commaaccent" unicode="&#xf6c3;" horiz-adv-x="153" 
d="M35 -39h75q1 -14 1.5 -26.5t0.5 -26.5q0 -17 -1 -30.5t-3.5 -25.5t-7.5 -24t-14 -27h-38q10 10 16.5 23.5t6.5 27.5q0 16 -10.5 25t-25.5 11v73z" />
    <glyph glyph-name="Gcommaaccent" unicode="&#x122;" horiz-adv-x="524" 
d="M317 -1q-70 0 -127 27t-97 72.5t-62 106t-22 127.5q0 66 22.5 125t63 104t97.5 71t125 26q51 0 99.5 -17.5t88.5 -49.5l-47 -58q-30 24 -66.5 37t-74.5 13q-54 0 -97 -20t-73 -54.5t-45.5 -80t-15.5 -97.5q0 -53 15 -99.5t44.5 -81.5t72.5 -55t99 -20q30 0 58.5 7
t54.5 23v186h-189v75h264v-299q-40 -32 -88.5 -50t-99.5 -18zM277 -39h75q1 -14 1.5 -26.5t0.5 -26.5q0 -17 -1 -30.5t-3.5 -25.5t-7.5 -24t-14 -27h-38q10 10 16.5 23.5t6.5 27.5q0 16 -10.5 25t-25.5 11v73z" />
    <glyph glyph-name="undercommaaccent" horiz-adv-x="153" 
d="M35 -39h75q1 -14 1.5 -26.5t0.5 -26.5q0 -17 -1 -30.5t-3.5 -25.5t-7.5 -24t-14 -27h-38q10 10 16.5 23.5t6.5 27.5q0 16 -10.5 25t-25.5 11v73z" />
    <glyph glyph-name="Hbar" unicode="&#x126;" horiz-adv-x="616" 
d="M447 291h-288v-291h-74v404h-76v74h76v180h74v-180h288v180h75v-180h75v-74h-75v-404h-75v291zM159 366h288v38h-288v-38z" />
    <glyph glyph-name="Hcircumflex" unicode="&#x124;" horiz-adv-x="474" 
d="M381 291h-288v-291h-74v658h74v-292h288v292h75v-658h-75v291zM269 895l90 -180h-64l-58 115l-56 -115h-65l89 180h64z" />
    <glyph glyph-name="I" unicode="I" horiz-adv-x="311" 
d="M9 0v75h109v509h-109v74h293v-74h-110v-509h110v-75h-293z" />
    <glyph glyph-name="Iacute" unicode="&#xcd;" horiz-adv-x="311" 
d="M9 0v75h109v509h-109v74h293v-74h-110v-509h110v-75h-293zM224 900l45 -51l-181 -162l-45 51z" />
    <glyph glyph-name="Ibreve" unicode="&#x12c;" horiz-adv-x="311" 
d="M9 0v75h109v509h-109v74h293v-74h-110v-509h110v-75h-293zM282 853q-4 -56 -35 -93t-91 -37q-59 0 -90.5 36.5t-36.5 92.5h66q2 -26 17 -48t44 -22t43.5 22.5t16.5 48.5h66z" />
    <glyph glyph-name="Icircumflex" unicode="&#xce;" horiz-adv-x="311" 
d="M9 0v75h109v509h-109v74h293v-74h-110v-509h110v-75h-293zM187 895l90 -180h-64l-58 115l-56 -115h-65l89 180h64z" />
    <glyph glyph-name="Idieresis" unicode="&#xcf;" horiz-adv-x="311" 
d="M9 0v75h109v509h-109v74h293v-74h-110v-509h110v-75h-293zM56 804h67v-66h-67v66zM188 804h67v-66h-67v66z" />
    <glyph glyph-name="Idotaccent" unicode="&#x130;" horiz-adv-x="311" 
d="M9 0v75h109v509h-109v74h293v-74h-110v-509h110v-75h-293zM122 804h67v-66h-67v66z" />
    <glyph glyph-name="Igrave" unicode="&#xcc;" horiz-adv-x="311" 
d="M9 0v75h109v509h-109v74h293v-74h-110v-509h110v-75h-293zM246 727l-55 -40l-127 179l56 40z" />
    <glyph glyph-name="Imacron" unicode="&#x12a;" horiz-adv-x="311" 
d="M9 0v75h109v509h-109v74h293v-74h-110v-509h110v-75h-293zM17 804h275v-66h-275v66z" />
    <glyph glyph-name="Iogonek" unicode="&#x12e;" horiz-adv-x="311" 
d="M9 0v75h109v509h-109v74h293v-74h-110v-509h110v-75h-293zM202 1q-6 -8 -15.5 -21t-18.5 -27t-15.5 -28t-6.5 -25q0 -14 12.5 -16.5t23.5 -2.5q10 0 21 1t20 6l17 -61q-15 -7 -32 -9t-34 -2t-34.5 2t-31.5 9t-22.5 20t-8.5 34q0 32 15.5 63t34.5 57h75z" />
    <glyph glyph-name="Itilde" unicode="&#x128;" horiz-adv-x="311" 
d="M9 0v75h109v509h-109v74h293v-74h-110v-509h110v-75h-293zM290 805q-8 -12 -18.5 -25t-23.5 -24t-27.5 -18t-29.5 -7q-11 0 -21 5.5t-19 12.5t-17.5 12.5t-17.5 5.5q-5 0 -12 -4t-13.5 -10t-12.5 -12.5t-9 -10.5l-51 35q7 11 18 24t24.5 24t28 18.5t28.5 7.5
q12 0 22 -5.5t19 -12.5t17.5 -12.5t17.5 -5.5q6 0 12.5 4t13 10t12 12.5t8.5 10.5z" />
    <glyph glyph-name="Jcircumflex" unicode="&#x134;" horiz-adv-x="402" 
d="M383 658v-423q0 -47 -16.5 -89.5t-46.5 -75t-70.5 -52t-88.5 -19.5q-46 0 -87.5 19t-72.5 54l51 53q20 -25 48.5 -37.5t60.5 -12.5q34 0 61 13t46 35t29.5 51t10.5 61v423h75zM373 895l90 -180h-64l-58 115l-56 -115h-65l89 180h64z" />
    <glyph glyph-name="Kcommaaccent" unicode="&#x136;" horiz-adv-x="494" 
d="M380 0l-234 309l-53 -62v-247h-74v658h74v-297l249 297h99l-246 -290l280 -368h-95zM186 -39h75q1 -14 1.5 -26.5t0.5 -26.5q0 -17 -1 -30.5t-3.5 -25.5t-7.5 -24t-14 -27h-38q10 10 16.5 23.5t6.5 27.5q0 16 -10.5 25t-25.5 11v73z" />
    <glyph glyph-name="Lacute" unicode="&#x139;" 
d="M19 658h74v-583h301v-75h-375v658zM124 900l45 -51l-181 -162l-45 51z" />
    <glyph glyph-name="Lcaron" unicode="&#x13d;" 
d="M19 658h74v-583h301v-75h-375v658zM23 696l-89 180h65l56 -116l58 116h64l-90 -180h-64z" />
    <glyph glyph-name="Lcommaaccent" unicode="&#x13b;" 
d="M19 658h74v-583h301v-75h-375v658zM165 -39h75q1 -14 1.5 -26.5t0.5 -26.5q0 -17 -1 -30.5t-3.5 -25.5t-7.5 -24t-14 -27h-38q10 10 16.5 23.5t6.5 27.5q0 16 -10.5 25t-25.5 11v73z" />
    <glyph glyph-name="Ldot" unicode="&#x13f;" 
d="M19 658h74v-583h301v-75h-375v658zM169 375h75v-73h-75v73z" />
    <glyph glyph-name="Lslash" unicode="&#x141;" horiz-adv-x="483" 
d="M287 422l38 -56l-152 -106v-185h301v-75h-376v207l-58 -40l-39 56l97 67v368h75v-316z" />
    <glyph glyph-name="Nacute" unicode="&#x143;" horiz-adv-x="486" 
d="M19 658h86l287 -522v522h75v-658h-85l-289 524v-524h-74v658zM311 900l45 -51l-181 -162l-45 51z" />
    <glyph glyph-name="Ncaron" unicode="&#x147;" horiz-adv-x="486" 
d="M19 658h86l287 -522v522h75v-658h-85l-289 524v-524h-74v658zM210 696l-89 180h65l56 -116l58 116h64l-90 -180h-64z" />
    <glyph glyph-name="Ncommaaccent" unicode="&#x145;" horiz-adv-x="486" 
d="M19 658h86l287 -522v522h75v-658h-85l-289 524v-524h-74v658zM202 -39h75q1 -14 1.5 -26.5t0.5 -26.5q0 -17 -1 -30.5t-3.5 -25.5t-7.5 -24t-14 -27h-38q10 10 16.5 23.5t6.5 27.5q0 16 -10.5 25t-25.5 11v73z" />
    <glyph glyph-name="Ntilde" unicode="&#xd1;" horiz-adv-x="486" 
d="M19 658h86l287 -522v522h75v-658h-85l-289 524v-524h-74v658zM378 805q-8 -12 -18.5 -25t-23.5 -24t-27.5 -18t-29.5 -7q-11 0 -21 5.5t-19 12.5t-17.5 12.5t-17.5 5.5q-5 0 -12 -4t-13.5 -10t-12.5 -12.5t-9 -10.5l-51 35q7 11 18 24t24.5 24t28 18.5t28.5 7.5
q12 0 22 -5.5t19 -12.5t17.5 -12.5t17.5 -5.5q6 0 12.5 4t13 10t12 12.5t8.5 10.5z" />
    <glyph glyph-name="Oacute" unicode="&#xd3;" horiz-adv-x="660" 
d="M9 329q0 66 24 126t66.5 105t100 72t125.5 27q67 0 125 -27t100.5 -72t66.5 -105t24 -126t-24 -126t-66.5 -105t-100.5 -72t-125 -27q-68 0 -125.5 27t-100 72t-66.5 105t-24 126zM85 329q0 -52 17.5 -98t49 -80.5t76 -55t97.5 -20.5t97.5 20.5t76.5 55t49.5 80.5
t17.5 98q0 50 -18.5 96t-50.5 81.5t-76 56.5t-96 21q-53 0 -97.5 -20.5t-76 -55.5t-49 -81.5t-17.5 -97.5zM398 900l45 -51l-181 -162l-45 51z" />
    <glyph glyph-name="Obreve" unicode="&#x14e;" horiz-adv-x="660" 
d="M9 329q0 66 24 126t66.5 105t100 72t125.5 27q67 0 125 -27t100.5 -72t66.5 -105t24 -126t-24 -126t-66.5 -105t-100.5 -72t-125 -27q-68 0 -125.5 27t-100 72t-66.5 105t-24 126zM85 329q0 -52 17.5 -98t49 -80.5t76 -55t97.5 -20.5t97.5 20.5t76.5 55t49.5 80.5
t17.5 98q0 50 -18.5 96t-50.5 81.5t-76 56.5t-96 21q-53 0 -97.5 -20.5t-76 -55.5t-49 -81.5t-17.5 -97.5zM456 853q-4 -56 -35 -93t-91 -37q-59 0 -90.5 36.5t-36.5 92.5h66q2 -26 17 -48t44 -22t43.5 22.5t16.5 48.5h66z" />
    <glyph glyph-name="Ocircumflex" unicode="&#xd4;" horiz-adv-x="660" 
d="M9 329q0 66 24 126t66.5 105t100 72t125.5 27q67 0 125 -27t100.5 -72t66.5 -105t24 -126t-24 -126t-66.5 -105t-100.5 -72t-125 -27q-68 0 -125.5 27t-100 72t-66.5 105t-24 126zM85 329q0 -52 17.5 -98t49 -80.5t76 -55t97.5 -20.5t97.5 20.5t76.5 55t49.5 80.5
t17.5 98q0 50 -18.5 96t-50.5 81.5t-76 56.5t-96 21q-53 0 -97.5 -20.5t-76 -55.5t-49 -81.5t-17.5 -97.5zM361 895l90 -180h-64l-58 115l-56 -115h-65l89 180h64z" />
    <glyph glyph-name="Odieresis" unicode="&#xd6;" horiz-adv-x="660" 
d="M9 329q0 66 24 126t66.5 105t100 72t125.5 27q67 0 125 -27t100.5 -72t66.5 -105t24 -126t-24 -126t-66.5 -105t-100.5 -72t-125 -27q-68 0 -125.5 27t-100 72t-66.5 105t-24 126zM85 329q0 -52 17.5 -98t49 -80.5t76 -55t97.5 -20.5t97.5 20.5t76.5 55t49.5 80.5
t17.5 98q0 50 -18.5 96t-50.5 81.5t-76 56.5t-96 21q-53 0 -97.5 -20.5t-76 -55.5t-49 -81.5t-17.5 -97.5zM230 804h67v-66h-67v66zM362 804h67v-66h-67v66z" />
    <glyph glyph-name="Ograve" unicode="&#xd2;" horiz-adv-x="660" 
d="M9 329q0 66 24 126t66.5 105t100 72t125.5 27q67 0 125 -27t100.5 -72t66.5 -105t24 -126t-24 -126t-66.5 -105t-100.5 -72t-125 -27q-68 0 -125.5 27t-100 72t-66.5 105t-24 126zM85 329q0 -52 17.5 -98t49 -80.5t76 -55t97.5 -20.5t97.5 20.5t76.5 55t49.5 80.5
t17.5 98q0 50 -18.5 96t-50.5 81.5t-76 56.5t-96 21q-53 0 -97.5 -20.5t-76 -55.5t-49 -81.5t-17.5 -97.5zM420 727l-55 -40l-127 179l56 40z" />
    <glyph glyph-name="Ohungarumlaut" unicode="&#x150;" horiz-adv-x="660" 
d="M9 329q0 66 24 126t66.5 105t100 72t125.5 27q67 0 125 -27t100.5 -72t66.5 -105t24 -126t-24 -126t-66.5 -105t-100.5 -72t-125 -27q-68 0 -125.5 27t-100 72t-66.5 105t-24 126zM85 329q0 -52 17.5 -98t49 -80.5t76 -55t97.5 -20.5t97.5 20.5t76.5 55t49.5 80.5
t17.5 98q0 50 -18.5 96t-50.5 81.5t-76 56.5t-96 21q-53 0 -97.5 -20.5t-76 -55.5t-49 -81.5t-17.5 -97.5zM297 906l56 -40l-108 -179l-56 40zM414 906l56 -40l-108 -179l-56 40z" />
    <glyph glyph-name="Omacron" unicode="&#x14c;" horiz-adv-x="660" 
d="M9 329q0 66 24 126t66.5 105t100 72t125.5 27q67 0 125 -27t100.5 -72t66.5 -105t24 -126t-24 -126t-66.5 -105t-100.5 -72t-125 -27q-68 0 -125.5 27t-100 72t-66.5 105t-24 126zM85 329q0 -52 17.5 -98t49 -80.5t76 -55t97.5 -20.5t97.5 20.5t76.5 55t49.5 80.5
t17.5 98q0 50 -18.5 96t-50.5 81.5t-76 56.5t-96 21q-53 0 -97.5 -20.5t-76 -55.5t-49 -81.5t-17.5 -97.5zM192 804h275v-66h-275v66z" />
    <glyph glyph-name="Oslash" unicode="&#xd8;" horiz-adv-x="660" 
d="M486 677h84l-396 -696h-84zM9 329q0 66 24 126t66.5 105t100 72t125.5 27q67 0 125 -27t100.5 -72t66.5 -105t24 -126t-24 -126t-66.5 -105t-100.5 -72t-125 -27q-68 0 -125.5 27t-100 72t-66.5 105t-24 126zM85 329q0 -52 17.5 -98t49 -80.5t76 -55t97.5 -20.5
t97.5 20.5t76.5 55t49.5 80.5t17.5 98q0 50 -18.5 96t-50.5 81.5t-76 56.5t-96 21q-53 0 -97.5 -20.5t-76 -55.5t-49 -81.5t-17.5 -97.5z" />
    <glyph glyph-name="Oslashacute" unicode="&#x1fe;" horiz-adv-x="660" 
d="M90 -19h84l396 696h-84zM9 329q0 -66 24 -126t66.5 -105t100 -72t125.5 -27q67 0 125 27t100.5 72t66.5 105t24 126t-24 126t-66.5 105t-100.5 72t-125 27q-68 0 -125.5 -27t-100 -72t-66.5 -105t-24 -126zM85 329q0 51 17.5 97.5t49 81.5t76 55.5t97.5 20.5q52 0 96 -21
t76 -56.5t50.5 -81.5t18.5 -96q0 -52 -17.5 -98t-49.5 -80.5t-76.5 -55t-97.5 -20.5t-97.5 20.5t-76 55t-49 80.5t-17.5 98zM398 900l45 -51l-181 -162l-45 51z" />
    <glyph glyph-name="Otilde" unicode="&#xd5;" horiz-adv-x="660" 
d="M9 329q0 66 24 126t66.5 105t100 72t125.5 27q67 0 125 -27t100.5 -72t66.5 -105t24 -126t-24 -126t-66.5 -105t-100.5 -72t-125 -27q-68 0 -125.5 27t-100 72t-66.5 105t-24 126zM85 329q0 -52 17.5 -98t49 -80.5t76 -55t97.5 -20.5t97.5 20.5t76.5 55t49.5 80.5
t17.5 98q0 50 -18.5 96t-50.5 81.5t-76 56.5t-96 21q-53 0 -97.5 -20.5t-76 -55.5t-49 -81.5t-17.5 -97.5zM465 805q-8 -12 -18.5 -25t-23.5 -24t-27.5 -18t-29.5 -7q-11 0 -21 5.5t-19 12.5t-17.5 12.5t-17.5 5.5q-5 0 -12 -4t-13.5 -10t-12.5 -12.5t-9 -10.5l-51 35
q7 11 18 24t24.5 24t28 18.5t28.5 7.5q12 0 22 -5.5t19 -12.5t17.5 -12.5t17.5 -5.5q6 0 12.5 4t13 10t12 12.5t8.5 10.5z" />
    <glyph glyph-name="OE" unicode="&#x152;" horiz-adv-x="649" 
d="M325 -1q-68 0 -125.5 27t-100 72t-66.5 105t-24 126t24 125.5t66.5 105t100 72.5t125.5 27l305 -1v-74h-254v-218h254v-75h-254v-216h254v-75zM85 329q0 -48 15 -92t43.5 -78.5t68.5 -56.5t90 -26v506q-50 -5 -90 -27t-68 -56t-43.5 -78t-15.5 -92z" />
    <glyph glyph-name="Racute" unicode="&#x154;" horiz-adv-x="489" 
d="M19 658h137q50 0 98.5 -12.5t86 -39t60.5 -67t23 -97.5q0 -69 -35.5 -118.5t-99.5 -74.5l190 -249h-95l-174 229q-29 -3 -58.5 -3h-58.5v-226h-74v658zM93 584v-283h63q33 0 67.5 7.5t62 24t45.5 43.5t18 66t-17.5 66.5t-45.5 44t-62.5 24t-67.5 7.5h-63zM256 900l45 -51
l-181 -162l-45 51z" />
    <glyph glyph-name="Rcaron" unicode="&#x158;" horiz-adv-x="489" 
d="M19 658h137q50 0 98.5 -12.5t86 -39t60.5 -67t23 -97.5q0 -69 -35.5 -118.5t-99.5 -74.5l190 -249h-95l-174 229q-29 -3 -58.5 -3h-58.5v-226h-74v658zM93 584v-283h63q33 0 67.5 7.5t62 24t45.5 43.5t18 66t-17.5 66.5t-45.5 44t-62.5 24t-67.5 7.5h-63zM164 696
l-89 180h65l56 -116l58 116h64l-90 -180h-64z" />
    <glyph glyph-name="Rcommaaccent" unicode="&#x156;" horiz-adv-x="489" 
d="M19 658h137q50 0 98.5 -12.5t86 -39t60.5 -67t23 -97.5q0 -69 -35.5 -118.5t-99.5 -74.5l190 -249h-95l-174 229q-29 -3 -58.5 -3h-58.5v-226h-74v658zM93 584v-283h63q33 0 67.5 7.5t62 24t45.5 43.5t18 66t-17.5 66.5t-45.5 44t-62.5 24t-67.5 7.5h-63zM184 -39h75
q1 -14 1.5 -26.5t0.5 -26.5q0 -17 -1 -30.5t-3.5 -25.5t-7.5 -24t-14 -27h-38q10 10 16.5 23.5t6.5 27.5q0 16 -10.5 25t-25.5 11v73z" />
    <glyph glyph-name="Sacute" unicode="&#x15a;" horiz-adv-x="429" 
d="M87 488q0 -40 24.5 -66.5t60.5 -47t79 -38t79 -40t60.5 -53t24.5 -76.5q0 -43 -16.5 -74.5t-44 -52.5t-63.5 -31t-75 -10q-25 0 -53.5 5.5t-55.5 17t-50 28t-38 38.5l57 49q27 -30 64 -46t78 -16q20 0 41 4.5t38.5 14.5t28.5 26.5t11 40.5q0 34 -24.5 56.5t-60.5 40
t-79 34.5t-79 41t-60.5 59t-24.5 88q0 42 17.5 75.5t47 56.5t66.5 35.5t76 12.5q26 0 53.5 -6t53.5 -17.5t48 -28.5t37 -40l-57 -49q-26 31 -61.5 48.5t-75.5 17.5q-20 0 -42.5 -6.5t-41.5 -18.5t-31 -30t-12 -42zM282 900l45 -51l-181 -162l-45 51z" />
    <glyph glyph-name="Scaron" unicode="&#x160;" horiz-adv-x="429" 
d="M87 488q0 -40 24.5 -66.5t60.5 -47t79 -38t79 -40t60.5 -53t24.5 -76.5q0 -43 -16.5 -74.5t-44 -52.5t-63.5 -31t-75 -10q-25 0 -53.5 5.5t-55.5 17t-50 28t-38 38.5l57 49q27 -30 64 -46t78 -16q20 0 41 4.5t38.5 14.5t28.5 26.5t11 40.5q0 34 -24.5 56.5t-60.5 40
t-79 34.5t-79 41t-60.5 59t-24.5 88q0 42 17.5 75.5t47 56.5t66.5 35.5t76 12.5q26 0 53.5 -6t53.5 -17.5t48 -28.5t37 -40l-57 -49q-26 31 -61.5 48.5t-75.5 17.5q-20 0 -42.5 -6.5t-41.5 -18.5t-31 -30t-12 -42zM182 696l-89 180h65l56 -116l58 116h64l-90 -180h-64z" />
    <glyph glyph-name="Scedilla" unicode="&#x15e;" horiz-adv-x="429" 
d="M87 488q0 -40 24.5 -66.5t60.5 -47t79 -38t79 -40t60.5 -53t24.5 -76.5q0 -43 -16.5 -74.5t-44 -52.5t-63.5 -31t-75 -10q-25 0 -53.5 5.5t-55.5 17t-50 28t-38 38.5l57 49q27 -30 64 -46t78 -16q20 0 41 4.5t38.5 14.5t28.5 26.5t11 40.5q0 34 -24.5 56.5t-60.5 40
t-79 34.5t-79 41t-60.5 59t-24.5 88q0 42 17.5 75.5t47 56.5t66.5 35.5t76 12.5q26 0 53.5 -6t53.5 -17.5t48 -28.5t37 -40l-57 -49q-26 31 -61.5 48.5t-75.5 17.5q-20 0 -42.5 -6.5t-41.5 -18.5t-31 -30t-12 -42zM187 37h65v-74q17 -6 37 -13.5t37.5 -19t29 -27t11.5 -37.5
q0 -29 -14.5 -47t-36.5 -28.5t-48 -14.5t-48 -4q-30 0 -61 5t-58 19l48 49q5 -3 15 -5t21.5 -3.5t22 -2t16.5 -0.5q7 0 19 1t24 4t20.5 9.5t8.5 17.5q0 10 -14 18t-32.5 14.5t-36.5 11l-26 6.5v121z" />
    <glyph glyph-name="Scircumflex" unicode="&#x15c;" horiz-adv-x="429" 
d="M87 488q0 -40 24.5 -66.5t60.5 -47t79 -38t79 -40t60.5 -53t24.5 -76.5q0 -43 -16.5 -74.5t-44 -52.5t-63.5 -31t-75 -10q-25 0 -53.5 5.5t-55.5 17t-50 28t-38 38.5l57 49q27 -30 64 -46t78 -16q20 0 41 4.5t38.5 14.5t28.5 26.5t11 40.5q0 34 -24.5 56.5t-60.5 40
t-79 34.5t-79 41t-60.5 59t-24.5 88q0 42 17.5 75.5t47 56.5t66.5 35.5t76 12.5q26 0 53.5 -6t53.5 -17.5t48 -28.5t37 -40l-57 -49q-26 31 -61.5 48.5t-75.5 17.5q-20 0 -42.5 -6.5t-41.5 -18.5t-31 -30t-12 -42zM246 895l90 -180h-64l-58 115l-56 -115h-65l89 180h64z" />
    <glyph glyph-name="Scommaaccent" unicode="&#x218;" horiz-adv-x="429" 
d="M87 488q0 -40 24.5 -66.5t60.5 -47t79 -38t79 -40t60.5 -53t24.5 -76.5q0 -43 -16.5 -74.5t-44 -52.5t-63.5 -31t-75 -10q-25 0 -53.5 5.5t-55.5 17t-50 28t-38 38.5l57 49q27 -30 64 -46t78 -16q20 0 41 4.5t38.5 14.5t28.5 26.5t11 40.5q0 34 -24.5 56.5t-60.5 40
t-79 34.5t-79 41t-60.5 59t-24.5 88q0 42 17.5 75.5t47 56.5t66.5 35.5t76 12.5q26 0 53.5 -6t53.5 -17.5t48 -28.5t37 -40l-57 -49q-26 31 -61.5 48.5t-75.5 17.5q-20 0 -42.5 -6.5t-41.5 -18.5t-31 -30t-12 -42zM176 -39h75q1 -14 1.5 -26.5t0.5 -26.5q0 -17 -1 -30.5
t-3.5 -25.5t-7.5 -24t-14 -27h-38q10 10 16.5 23.5t6.5 27.5q0 16 -10.5 25t-25.5 11v73z" />
    <glyph glyph-name="Tbar" unicode="&#x166;" horiz-adv-x="519" 
d="M296 584v-584h-74v584h-213v74h500v-74h-213zM456 508v-75h-396v75h396z" />
    <glyph glyph-name="Tcaron" unicode="&#x164;" horiz-adv-x="519" 
d="M296 584v-584h-74v584h-213v74h500v-74h-213zM226 696l-89 180h65l56 -116l58 116h64l-90 -180h-64z" />
    <glyph glyph-name="Tcommaaccent" unicode="&#x162;" horiz-adv-x="519" 
d="M296 584v-584h-74v584h-213v74h500v-74h-213zM219 -39h75q1 -14 1.5 -26.5t0.5 -26.5q0 -17 -1 -30.5t-3.5 -25.5t-7.5 -24t-14 -27h-38q10 10 16.5 23.5t6.5 27.5q0 16 -10.5 25t-25.5 11v73z" />
    <glyph glyph-name="Uacute" unicode="&#xda;" horiz-adv-x="491" 
d="M472 658v-348q0 -56 -11.5 -112t-38 -100t-71 -71.5t-110.5 -27.5t-110.5 27.5t-71.5 71.5t-38.5 99.5t-11.5 112.5v348h76v-348q0 -40 5.5 -82t22 -76t47.5 -55.5t81 -21.5t80.5 21.5t47 55.5t22 76t5.5 82v348h76zM313 900l45 -51l-181 -162l-45 51z" />
    <glyph glyph-name="Ubreve" unicode="&#x16c;" horiz-adv-x="491" 
d="M472 658v-348q0 -56 -11.5 -112t-38 -100t-71 -71.5t-110.5 -27.5t-110.5 27.5t-71.5 71.5t-38.5 99.5t-11.5 112.5v348h76v-348q0 -40 5.5 -82t22 -76t47.5 -55.5t81 -21.5t80.5 21.5t47 55.5t22 76t5.5 82v348h76zM371 853q-4 -56 -35 -93t-91 -37q-59 0 -90.5 36.5
t-36.5 92.5h66q2 -26 17 -48t44 -22t43.5 22.5t16.5 48.5h66z" />
    <glyph glyph-name="Ucircumflex" unicode="&#xdb;" horiz-adv-x="491" 
d="M472 658v-348q0 -56 -11.5 -112t-38 -100t-71 -71.5t-110.5 -27.5t-110.5 27.5t-71.5 71.5t-38.5 99.5t-11.5 112.5v348h76v-348q0 -40 5.5 -82t22 -76t47.5 -55.5t81 -21.5t80.5 21.5t47 55.5t22 76t5.5 82v348h76zM276 895l90 -180h-64l-58 115l-56 -115h-65l89 180h64
z" />
    <glyph glyph-name="Udieresis" unicode="&#xdc;" horiz-adv-x="491" 
d="M472 658v-348q0 -56 -11.5 -112t-38 -100t-71 -71.5t-110.5 -27.5t-110.5 27.5t-71.5 71.5t-38.5 99.5t-11.5 112.5v348h76v-348q0 -40 5.5 -82t22 -76t47.5 -55.5t81 -21.5t80.5 21.5t47 55.5t22 76t5.5 82v348h76zM145 804h67v-66h-67v66zM277 804h67v-66h-67v66z" />
    <glyph glyph-name="Ugrave" unicode="&#xd9;" horiz-adv-x="491" 
d="M472 658v-348q0 -56 -11.5 -112t-38 -100t-71 -71.5t-110.5 -27.5t-110.5 27.5t-71.5 71.5t-38.5 99.5t-11.5 112.5v348h76v-348q0 -40 5.5 -82t22 -76t47.5 -55.5t81 -21.5t80.5 21.5t47 55.5t22 76t5.5 82v348h76zM335 727l-55 -40l-127 179l56 40z" />
    <glyph glyph-name="Uhungarumlaut" unicode="&#x170;" horiz-adv-x="491" 
d="M472 658v-348q0 -56 -11.5 -112t-38 -100t-71 -71.5t-110.5 -27.5t-110.5 27.5t-71.5 71.5t-38.5 99.5t-11.5 112.5v348h76v-348q0 -40 5.5 -82t22 -76t47.5 -55.5t81 -21.5t80.5 21.5t47 55.5t22 76t5.5 82v348h76zM212 906l56 -40l-108 -179l-56 40zM329 906l56 -40
l-108 -179l-56 40z" />
    <glyph glyph-name="Umacron" unicode="&#x16a;" horiz-adv-x="491" 
d="M472 658v-348q0 -56 -11.5 -112t-38 -100t-71 -71.5t-110.5 -27.5t-110.5 27.5t-71.5 71.5t-38.5 99.5t-11.5 112.5v348h76v-348q0 -40 5.5 -82t22 -76t47.5 -55.5t81 -21.5t80.5 21.5t47 55.5t22 76t5.5 82v348h76zM107 804h275v-66h-275v66z" />
    <glyph glyph-name="Uogonek" unicode="&#x172;" horiz-adv-x="491" 
d="M472 658v-348q0 -56 -11.5 -112t-38 -100t-71 -71.5t-110.5 -27.5t-110.5 27.5t-71.5 71.5t-38.5 99.5t-11.5 112.5v348h76v-348q0 -40 5.5 -82t22 -76t47.5 -55.5t81 -21.5t80.5 21.5t47 55.5t22 76t5.5 82v348h76zM293 10q-6 -8 -15.5 -21t-18.5 -27t-15.5 -28
t-6.5 -25q0 -14 12.5 -16.5t23.5 -2.5q10 0 21 1t20 6l17 -61q-15 -7 -32 -9t-34 -2t-34.5 2t-31.5 9t-22.5 20t-8.5 34q0 32 15.5 63t34.5 57h75z" />
    <glyph glyph-name="Uring" unicode="&#x16e;" horiz-adv-x="491" 
d="M472 658v-348q0 -56 -11.5 -112t-38 -100t-71 -71.5t-110.5 -27.5t-110.5 27.5t-71.5 71.5t-38.5 99.5t-11.5 112.5v348h76v-348q0 -40 5.5 -82t22 -76t47.5 -55.5t81 -21.5t80.5 21.5t47 55.5t22 76t5.5 82v348h76zM146 812q0 21 7.5 40t20.5 33.5t31.5 23t39.5 8.5
t39 -8.5t31.5 -23t21.5 -33.5t8 -40t-8 -40t-21.5 -33.5t-31.5 -23t-39 -8.5t-39.5 8.5t-31.5 23t-20.5 33.5t-7.5 40zM201 812q0 -20 11 -35t33 -15t33.5 15t11.5 35q0 19 -12.5 35t-32.5 16q-23 0 -33.5 -15t-10.5 -36z" />
    <glyph glyph-name="Utilde" unicode="&#x168;" horiz-adv-x="491" 
d="M472 658v-348q0 -56 -11.5 -112t-38 -100t-71 -71.5t-110.5 -27.5t-110.5 27.5t-71.5 71.5t-38.5 99.5t-11.5 112.5v348h76v-348q0 -40 5.5 -82t22 -76t47.5 -55.5t81 -21.5t80.5 21.5t47 55.5t22 76t5.5 82v348h76zM380 805q-8 -12 -18.5 -25t-23.5 -24t-27.5 -18
t-29.5 -7q-11 0 -21 5.5t-19 12.5t-17.5 12.5t-17.5 5.5q-5 0 -12 -4t-13.5 -10t-12.5 -12.5t-9 -10.5l-51 35q7 11 18 24t24.5 24t28 18.5t28.5 7.5q12 0 22 -5.5t19 -12.5t17.5 -12.5t17.5 -5.5q6 0 12.5 4t13 10t12 12.5t8.5 10.5z" />
    <glyph glyph-name="Wacute" unicode="&#x1e82;" horiz-adv-x="830" 
d="M411 527l-149 -527h-75l-186 658h74l149 -529l150 529h74l149 -527l149 527h75l-186 -658h-76zM483 900l45 -51l-181 -162l-45 51z" />
    <glyph glyph-name="Wcircumflex" unicode="&#x174;" horiz-adv-x="830" 
d="M411 527l-149 -527h-75l-186 658h74l149 -529l150 529h74l149 -527l149 527h75l-186 -658h-76zM446 895l90 -180h-64l-58 115l-56 -115h-65l89 180h64z" />
    <glyph glyph-name="Wdieresis" unicode="&#x1e84;" horiz-adv-x="830" 
d="M411 527l-149 -527h-75l-186 658h74l149 -529l150 529h74l149 -527l149 527h75l-186 -658h-76zM315 804h67v-66h-67v66zM447 804h67v-66h-67v66z" />
    <glyph glyph-name="Wgrave" unicode="&#x1e80;" horiz-adv-x="830" 
d="M411 527l-149 -527h-75l-186 658h74l149 -529l150 529h74l149 -527l149 527h75l-186 -658h-76zM505 727l-55 -40l-127 179l56 40z" />
    <glyph glyph-name="Yacute" unicode="&#xdd;" horiz-adv-x="506" 
d="M496 658l-210 -432v-226h-75v226l-210 432h80l164 -338h7l164 338h80zM321 900l45 -51l-181 -162l-45 51z" />
    <glyph glyph-name="Ycircumflex" unicode="&#x176;" horiz-adv-x="506" 
d="M496 658l-210 -432v-226h-75v226l-210 432h80l164 -338h7l164 338h80zM284 895l90 -180h-64l-58 115l-56 -115h-65l89 180h64z" />
    <glyph glyph-name="Ydieresis" unicode="&#x178;" horiz-adv-x="506" 
d="M496 658l-210 -432v-226h-75v226l-210 432h80l164 -338h7l164 338h80zM153 804h67v-66h-67v66zM285 804h67v-66h-67v66z" />
    <glyph glyph-name="Ygrave" unicode="&#x1ef2;" horiz-adv-x="506" 
d="M496 658l-210 -432v-226h-75v226l-210 432h80l164 -338h7l164 338h80zM343 727l-55 -40l-127 179l56 40z" />
    <glyph glyph-name="Zacute" unicode="&#x179;" horiz-adv-x="465" 
d="M98 75h353v-75h-442v75l353 509h-353v74h442v-74zM300 900l45 -51l-181 -162l-45 51z" />
    <glyph glyph-name="Zcaron" unicode="&#x17d;" horiz-adv-x="465" 
d="M98 75h353v-75h-442v75l353 509h-353v74h442v-74zM200 696l-89 180h65l56 -116l58 116h64l-90 -180h-64z" />
    <glyph glyph-name="Zdotaccent" unicode="&#x17b;" horiz-adv-x="465" 
d="M98 75h353v-75h-442v75l353 509h-353v74h442v-74zM199 804h67v-66h-67v66z" />
    <glyph glyph-name="aacute" unicode="&#xe1;" horiz-adv-x="472" 
d="M378 58q-29 -28 -67.5 -43.5t-79.5 -15.5q-48 0 -88.5 19.5t-70.5 52t-46.5 75t-16.5 89.5q0 46 16.5 89t46.5 75.5t70.5 52t88.5 19.5q42 0 80 -16t67 -44v59h75v-470h-75v58zM85 235q0 -32 10 -61t29 -51t46 -35t61 -13t61 13t46 35t29 51t10 61q0 30 -11 59
t-30.5 51.5t-46 36t-58.5 13.5q-34 0 -61 -13t-46 -35t-29 -51t-10 -61zM295 711l45 -51l-181 -162l-45 51z" />
    <glyph glyph-name="abreve" unicode="&#x103;" horiz-adv-x="472" 
d="M378 58q-29 -28 -67.5 -43.5t-79.5 -15.5q-48 0 -88.5 19.5t-70.5 52t-46.5 75t-16.5 89.5q0 46 16.5 89t46.5 75.5t70.5 52t88.5 19.5q42 0 80 -16t67 -44v59h75v-470h-75v58zM85 235q0 -32 10 -61t29 -51t46 -35t61 -13t61 13t46 35t29 51t10 61q0 30 -11 59
t-30.5 51.5t-46 36t-58.5 13.5q-34 0 -61 -13t-46 -35t-29 -51t-10 -61zM362 664q-4 -56 -35 -93t-91 -37q-59 0 -90.5 36.5t-36.5 92.5h66q2 -26 17 -48t44 -22t43.5 22.5t16.5 48.5h66z" />
    <glyph glyph-name="acircumflex" unicode="&#xe2;" horiz-adv-x="472" 
d="M378 58q-29 -28 -67.5 -43.5t-79.5 -15.5q-48 0 -88.5 19.5t-70.5 52t-46.5 75t-16.5 89.5q0 46 16.5 89t46.5 75.5t70.5 52t88.5 19.5q42 0 80 -16t67 -44v59h75v-470h-75v58zM85 235q0 -32 10 -61t29 -51t46 -35t61 -13t61 13t46 35t29 51t10 61q0 30 -11 59
t-30.5 51.5t-46 36t-58.5 13.5q-34 0 -61 -13t-46 -35t-29 -51t-10 -61zM267 706l90 -180h-64l-58 115l-56 -115h-65l89 180h64z" />
    <glyph glyph-name="adieresis" unicode="&#xe4;" horiz-adv-x="472" 
d="M378 58q-29 -28 -67.5 -43.5t-79.5 -15.5q-48 0 -88.5 19.5t-70.5 52t-46.5 75t-16.5 89.5q0 46 16.5 89t46.5 75.5t70.5 52t88.5 19.5q42 0 80 -16t67 -44v59h75v-470h-75v58zM85 235q0 -32 10 -61t29 -51t46 -35t61 -13t61 13t46 35t29 51t10 61q0 30 -11 59
t-30.5 51.5t-46 36t-58.5 13.5q-34 0 -61 -13t-46 -35t-29 -51t-10 -61zM136 615h67v-66h-67v66zM268 615h67v-66h-67v66z" />
    <glyph glyph-name="agrave" unicode="&#xe0;" horiz-adv-x="472" 
d="M378 58q-29 -28 -67.5 -43.5t-79.5 -15.5q-48 0 -88.5 19.5t-70.5 52t-46.5 75t-16.5 89.5q0 46 16.5 89t46.5 75.5t70.5 52t88.5 19.5q42 0 80 -16t67 -44v59h75v-470h-75v58zM85 235q0 -32 10 -61t29 -51t46 -35t61 -13t61 13t46 35t29 51t10 61q0 30 -11 59
t-30.5 51.5t-46 36t-58.5 13.5q-34 0 -61 -13t-46 -35t-29 -51t-10 -61zM326 538l-55 -40l-127 179l56 40z" />
    <glyph glyph-name="amacron" unicode="&#x101;" horiz-adv-x="472" 
d="M378 58q-29 -28 -67.5 -43.5t-79.5 -15.5q-48 0 -88.5 19.5t-70.5 52t-46.5 75t-16.5 89.5q0 46 16.5 89t46.5 75.5t70.5 52t88.5 19.5q42 0 80 -16t67 -44v59h75v-470h-75v58zM85 235q0 -32 10 -61t29 -51t46 -35t61 -13t61 13t46 35t29 51t10 61q0 30 -11 59
t-30.5 51.5t-46 36t-58.5 13.5q-34 0 -61 -13t-46 -35t-29 -51t-10 -61zM98 615h275v-66h-275v66z" />
    <glyph glyph-name="aogonek" unicode="&#x105;" horiz-adv-x="472" 
d="M378 58q-29 -28 -67.5 -43.5t-79.5 -15.5q-48 0 -88.5 19.5t-70.5 52t-46.5 75t-16.5 89.5q0 46 16.5 89t46.5 75.5t70.5 52t88.5 19.5q42 0 80 -16t67 -44v59h75v-470h-75v58zM85 235q0 -32 10 -61t29 -51t46 -35t61 -13t61 13t46 35t29 51t10 61q0 30 -11 59
t-30.5 51.5t-46 36t-58.5 13.5q-34 0 -61 -13t-46 -35t-29 -51t-10 -61zM453 0q-6 -8 -15.5 -21t-18.5 -27t-15.5 -28t-6.5 -25q0 -14 12.5 -16.5t23.5 -2.5q10 0 21 1t20 6l17 -61q-15 -7 -32 -9t-34 -2t-34.5 2t-31.5 9t-22.5 20t-8.5 34q0 32 15.5 63t34.5 57h75z" />
    <glyph glyph-name="aring" unicode="&#xe5;" horiz-adv-x="472" 
d="M378 58q-29 -28 -67.5 -43.5t-79.5 -15.5q-48 0 -88.5 19.5t-70.5 52t-46.5 75t-16.5 89.5q0 46 16.5 89t46.5 75.5t70.5 52t88.5 19.5q42 0 80 -16t67 -44v59h75v-470h-75v58zM85 235q0 -32 10 -61t29 -51t46 -35t61 -13t61 13t46 35t29 51t10 61q0 30 -11 59
t-30.5 51.5t-46 36t-58.5 13.5q-34 0 -61 -13t-46 -35t-29 -51t-10 -61zM136 623q0 21 7.5 40t20.5 33.5t31.5 23t39.5 8.5t39 -8.5t31.5 -23t21.5 -33.5t8 -40t-8 -40t-21.5 -33.5t-31.5 -23t-39 -8.5t-39.5 8.5t-31.5 23t-20.5 33.5t-7.5 40zM191 623q0 -20 11 -35t33 -15
t33.5 15t11.5 35q0 19 -12.5 35t-32.5 16q-23 0 -33.5 -15t-10.5 -36z" />
    <glyph glyph-name="atilde" unicode="&#xe3;" horiz-adv-x="472" 
d="M378 58q-29 -28 -67.5 -43.5t-79.5 -15.5q-48 0 -88.5 19.5t-70.5 52t-46.5 75t-16.5 89.5q0 46 16.5 89t46.5 75.5t70.5 52t88.5 19.5q42 0 80 -16t67 -44v59h75v-470h-75v58zM85 235q0 -32 10 -61t29 -51t46 -35t61 -13t61 13t46 35t29 51t10 61q0 30 -11 59
t-30.5 51.5t-46 36t-58.5 13.5q-34 0 -61 -13t-46 -35t-29 -51t-10 -61zM371 616q-8 -12 -18.5 -25t-23.5 -24t-27.5 -18t-29.5 -7q-11 0 -21 5.5t-19 12.5t-17.5 12.5t-17.5 5.5q-5 0 -12 -4t-13.5 -10t-12.5 -12.5t-9 -10.5l-51 35q7 11 18 24t24.5 24t28 18.5t28.5 7.5
q12 0 22 -5.5t19 -12.5t17.5 -12.5t17.5 -5.5q6 0 12.5 4t13 10t12 12.5t8.5 10.5z" />
    <glyph glyph-name="ae" unicode="&#xe6;" horiz-adv-x="821" 
d="M600 75q32 0 60.5 12.5t48.5 37.5l51 -53q-30 -35 -72 -54t-88 -19q-85 0 -147 59v-58h-75v58q-30 -28 -67.5 -43.5t-79.5 -15.5q-48 0 -88.5 19.5t-70.5 52t-46.5 75t-16.5 89.5q0 46 16.5 89t46.5 75.5t70.5 52t88.5 19.5q42 0 79.5 -15.5t67.5 -44.5v59h75v-55
q28 26 63.5 41t74.5 15q47 0 86 -20.5t66.5 -53.5t43 -75.5t15.5 -86.5q0 -14 -2 -28t-5 -28h-334q15 -48 52 -76t87 -28zM85 235q0 -32 10 -61t29 -51t46 -35t61 -13t61 13t46 35t29 51t10 61q0 30 -11 59t-30.5 51.5t-46 36t-58.5 13.5q-34 0 -61 -13t-46 -35t-29 -51
t-10 -61zM590 395q-31 0 -55 -11t-41 -30t-27 -45t-12 -55h270q-2 27 -12.5 52.5t-28 45t-41.5 31.5t-53 12z" />
    <glyph glyph-name="aeacute" unicode="&#x1fd;" horiz-adv-x="821" 
d="M600 75q32 0 60.5 12.5t48.5 37.5l51 -53q-30 -35 -72 -54t-88 -19q-85 0 -147 59v-58h-75v58q-30 -28 -67.5 -43.5t-79.5 -15.5q-48 0 -88.5 19.5t-70.5 52t-46.5 75t-16.5 89.5q0 46 16.5 89t46.5 75.5t70.5 52t88.5 19.5q42 0 79.5 -15.5t67.5 -44.5v59h75v-55
q28 26 63.5 41t74.5 15q47 0 86 -20.5t66.5 -53.5t43 -75.5t15.5 -86.5q0 -14 -2 -28t-5 -28h-334q15 -48 52 -76t87 -28zM85 235q0 -32 10 -61t29 -51t46 -35t61 -13t61 13t46 35t29 51t10 61q0 30 -11 59t-30.5 51.5t-46 36t-58.5 13.5q-34 0 -61 -13t-46 -35t-29 -51
t-10 -61zM590 395q-31 0 -55 -11t-41 -30t-27 -45t-12 -55h270q-2 27 -12.5 52.5t-28 45t-41.5 31.5t-53 12zM479 711l45 -51l-181 -162l-45 51z" />
    <glyph glyph-name="cacute" unicode="&#x107;" horiz-adv-x="401" 
d="M226 471q47 0 88 -20t73 -53l-51 -53q-21 23 -49.5 36.5t-60.5 13.5q-34 0 -61 -13t-46 -35t-29 -51t-10 -61t10 -61t29 -51t46 -35t61 -13q32 0 60.5 12.5t49.5 37.5l51 -53q-31 -35 -72.5 -54t-88.5 -19q-48 0 -88.5 19.5t-70 52.5t-46 75.5t-16.5 88.5t16.5 88.5
t46 75.5t70 52.5t88.5 19.5zM268 711l45 -51l-181 -162l-45 51z" />
    <glyph glyph-name="ccaron" unicode="&#x10d;" horiz-adv-x="401" 
d="M226 471q47 0 88 -20t73 -53l-51 -53q-21 23 -49.5 36.5t-60.5 13.5q-34 0 -61 -13t-46 -35t-29 -51t-10 -61t10 -61t29 -51t46 -35t61 -13q32 0 60.5 12.5t49.5 37.5l51 -53q-31 -35 -72.5 -54t-88.5 -19q-48 0 -88.5 19.5t-70 52.5t-46 75.5t-16.5 88.5t16.5 88.5
t46 75.5t70 52.5t88.5 19.5zM180 507l-89 180h65l56 -116l58 116h64l-90 -180h-64z" />
    <glyph glyph-name="ccedilla" unicode="&#xe7;" horiz-adv-x="401" 
d="M226 471q47 0 88 -20t73 -53l-51 -53q-21 23 -49.5 36.5t-60.5 13.5q-34 0 -61 -13t-46 -35t-29 -51t-10 -61t10 -61t29 -51t46 -35t61 -13q32 0 60.5 12.5t49.5 37.5l51 -53q-31 -35 -72.5 -54t-88.5 -19q-48 0 -88.5 19.5t-70 52.5t-46 75.5t-16.5 88.5t16.5 88.5
t46 75.5t70 52.5t88.5 19.5zM192 37h65v-74q17 -6 37 -13.5t37.5 -19t29 -27t11.5 -37.5q0 -29 -14.5 -47t-36.5 -28.5t-48 -14.5t-48 -4q-30 0 -61 5t-58 19l48 49q5 -3 15 -5t21.5 -3.5t22 -2t16.5 -0.5q7 0 19 1t24 4t20.5 9.5t8.5 17.5q0 10 -14 18t-32.5 14.5t-36.5 11
l-26 6.5v121z" />
    <glyph glyph-name="ccircumflex" unicode="&#x109;" horiz-adv-x="401" 
d="M226 471q47 0 88 -20t73 -53l-51 -53q-21 23 -49.5 36.5t-60.5 13.5q-34 0 -61 -13t-46 -35t-29 -51t-10 -61t10 -61t29 -51t46 -35t61 -13q32 0 60.5 12.5t49.5 37.5l51 -53q-31 -35 -72.5 -54t-88.5 -19q-48 0 -88.5 19.5t-70 52.5t-46 75.5t-16.5 88.5t16.5 88.5
t46 75.5t70 52.5t88.5 19.5zM245 706l90 -180h-64l-58 115l-56 -115h-65l89 180h64z" />
    <glyph glyph-name="cdotaccent" unicode="&#x10b;" horiz-adv-x="401" 
d="M226 471q47 0 88 -20t73 -53l-51 -53q-21 23 -49.5 36.5t-60.5 13.5q-34 0 -61 -13t-46 -35t-29 -51t-10 -61t10 -61t29 -51t46 -35t61 -13q32 0 60.5 12.5t49.5 37.5l51 -53q-31 -35 -72.5 -54t-88.5 -19q-48 0 -88.5 19.5t-70 52.5t-46 75.5t-16.5 88.5t16.5 88.5
t46 75.5t70 52.5t88.5 19.5zM195 615h67v-66h-67v66z" />
    <glyph glyph-name="dcaron" unicode="&#x10f;" horiz-adv-x="595" 
d="M378 58q-29 -28 -67.5 -43.5t-79.5 -15.5q-48 0 -88.5 19.5t-70.5 52t-46.5 75t-16.5 89.5q0 46 16.5 89t46.5 75.5t70.5 52t88.5 19.5q42 0 80 -16t67 -44v247h75v-658h-75v58zM85 235q0 -32 10 -61t29 -51t46 -35t61 -13t61 13t46 35t29 51t10 61q0 30 -11 59
t-30.5 51.5t-46 36t-58.5 13.5q-34 0 -61 -13t-46 -35t-29 -51t-10 -61zM500 584h75q1 -14 1.5 -26.5t0.5 -26.5q0 -17 -1 -30.5t-3.5 -25.5t-7.5 -24t-14 -27h-38q9 11 16 24t7 27q0 17 -10.5 25.5t-25.5 10.5v73z" />
    <glyph glyph-name="dcroat" unicode="&#x111;" horiz-adv-x="542" 
d="M528 573v-74h-225v74h225zM378 58q-29 -28 -67.5 -43.5t-79.5 -15.5q-48 0 -88.5 19.5t-70.5 52t-46.5 75t-16.5 89.5q0 46 16.5 89t46.5 75.5t70.5 52t88.5 19.5q42 0 80 -16t67 -44v247h75v-658h-75v58zM85 235q0 -32 10 -61t29 -51t46 -35t61 -13t61 13t46 35t29 51
t10 61q0 30 -11 59t-30.5 51.5t-46 36t-58.5 13.5q-34 0 -61 -13t-46 -35t-29 -51t-10 -61z" />
    <glyph glyph-name="eacute" unicode="&#xe9;" horiz-adv-x="453" 
d="M232 75q32 0 60.5 12.5t48.5 37.5l51 -53q-30 -35 -72 -54t-88 -19q-48 0 -88.5 19.5t-70.5 52t-46.5 75t-16.5 89.5q0 45 15.5 87.5t43.5 75.5t67 53t87 20q47 0 86 -20.5t66.5 -53.5t43 -75.5t15.5 -86.5q0 -14 -2 -28t-5 -28h-333q14 -48 51 -76t87 -28zM222 395
q-31 0 -55 -11t-41 -30.5t-27 -45t-12 -54.5h270q-3 27 -13.5 52.5t-27.5 45t-41 31.5t-53 12zM295 711l45 -51l-181 -162l-45 51z" />
    <glyph glyph-name="ebreve" unicode="&#x115;" horiz-adv-x="453" 
d="M232 75q32 0 60.5 12.5t48.5 37.5l51 -53q-30 -35 -72 -54t-88 -19q-48 0 -88.5 19.5t-70.5 52t-46.5 75t-16.5 89.5q0 45 15.5 87.5t43.5 75.5t67 53t87 20q47 0 86 -20.5t66.5 -53.5t43 -75.5t15.5 -86.5q0 -14 -2 -28t-5 -28h-333q14 -48 51 -76t87 -28zM222 395
q-31 0 -55 -11t-41 -30.5t-27 -45t-12 -54.5h270q-3 27 -13.5 52.5t-27.5 45t-41 31.5t-53 12zM353 664q-4 -56 -35 -93t-91 -37q-59 0 -90.5 36.5t-36.5 92.5h66q2 -26 17 -48t44 -22t43.5 22.5t16.5 48.5h66z" />
    <glyph glyph-name="ecaron" unicode="&#x11b;" horiz-adv-x="453" 
d="M232 75q32 0 60.5 12.5t48.5 37.5l51 -53q-30 -35 -72 -54t-88 -19q-48 0 -88.5 19.5t-70.5 52t-46.5 75t-16.5 89.5q0 45 15.5 87.5t43.5 75.5t67 53t87 20q47 0 86 -20.5t66.5 -53.5t43 -75.5t15.5 -86.5q0 -14 -2 -28t-5 -28h-333q14 -48 51 -76t87 -28zM222 395
q-31 0 -55 -11t-41 -30.5t-27 -45t-12 -54.5h270q-3 27 -13.5 52.5t-27.5 45t-41 31.5t-53 12zM193 507l-89 180h65l56 -116l58 116h64l-90 -180h-64z" />
    <glyph glyph-name="ecircumflex" unicode="&#xea;" horiz-adv-x="453" 
d="M232 75q32 0 60.5 12.5t48.5 37.5l51 -53q-30 -35 -72 -54t-88 -19q-48 0 -88.5 19.5t-70.5 52t-46.5 75t-16.5 89.5q0 45 15.5 87.5t43.5 75.5t67 53t87 20q47 0 86 -20.5t66.5 -53.5t43 -75.5t15.5 -86.5q0 -14 -2 -28t-5 -28h-333q14 -48 51 -76t87 -28zM222 395
q-31 0 -55 -11t-41 -30.5t-27 -45t-12 -54.5h270q-3 27 -13.5 52.5t-27.5 45t-41 31.5t-53 12zM257 706l90 -180h-64l-58 115l-56 -115h-65l89 180h64z" />
    <glyph glyph-name="edieresis" unicode="&#xeb;" horiz-adv-x="453" 
d="M232 75q32 0 60.5 12.5t48.5 37.5l51 -53q-30 -35 -72 -54t-88 -19q-48 0 -88.5 19.5t-70.5 52t-46.5 75t-16.5 89.5q0 45 15.5 87.5t43.5 75.5t67 53t87 20q47 0 86 -20.5t66.5 -53.5t43 -75.5t15.5 -86.5q0 -14 -2 -28t-5 -28h-333q14 -48 51 -76t87 -28zM222 395
q-31 0 -55 -11t-41 -30.5t-27 -45t-12 -54.5h270q-3 27 -13.5 52.5t-27.5 45t-41 31.5t-53 12zM127 615h67v-66h-67v66zM259 615h67v-66h-67v66z" />
    <glyph glyph-name="edotaccent" unicode="&#x117;" horiz-adv-x="453" 
d="M232 75q32 0 60.5 12.5t48.5 37.5l51 -53q-30 -35 -72 -54t-88 -19q-48 0 -88.5 19.5t-70.5 52t-46.5 75t-16.5 89.5q0 45 15.5 87.5t43.5 75.5t67 53t87 20q47 0 86 -20.5t66.5 -53.5t43 -75.5t15.5 -86.5q0 -14 -2 -28t-5 -28h-333q14 -48 51 -76t87 -28zM222 395
q-31 0 -55 -11t-41 -30.5t-27 -45t-12 -54.5h270q-3 27 -13.5 52.5t-27.5 45t-41 31.5t-53 12zM193 615h67v-66h-67v66z" />
    <glyph glyph-name="egrave" unicode="&#xe8;" horiz-adv-x="453" 
d="M232 75q32 0 60.5 12.5t48.5 37.5l51 -53q-30 -35 -72 -54t-88 -19q-48 0 -88.5 19.5t-70.5 52t-46.5 75t-16.5 89.5q0 45 15.5 87.5t43.5 75.5t67 53t87 20q47 0 86 -20.5t66.5 -53.5t43 -75.5t15.5 -86.5q0 -14 -2 -28t-5 -28h-333q14 -48 51 -76t87 -28zM222 395
q-31 0 -55 -11t-41 -30.5t-27 -45t-12 -54.5h270q-3 27 -13.5 52.5t-27.5 45t-41 31.5t-53 12zM316 538l-55 -40l-127 179l56 40z" />
    <glyph glyph-name="emacron" unicode="&#x113;" horiz-adv-x="453" 
d="M232 75q32 0 60.5 12.5t48.5 37.5l51 -53q-30 -35 -72 -54t-88 -19q-48 0 -88.5 19.5t-70.5 52t-46.5 75t-16.5 89.5q0 45 15.5 87.5t43.5 75.5t67 53t87 20q47 0 86 -20.5t66.5 -53.5t43 -75.5t15.5 -86.5q0 -14 -2 -28t-5 -28h-333q14 -48 51 -76t87 -28zM222 395
q-31 0 -55 -11t-41 -30.5t-27 -45t-12 -54.5h270q-3 27 -13.5 52.5t-27.5 45t-41 31.5t-53 12zM88 615h275v-66h-275v66z" />
    <glyph glyph-name="eogonek" unicode="&#x119;" horiz-adv-x="453" 
d="M392 72q-6 -8 -15.5 -21t-18.5 -27.5t-15.5 -29t-6.5 -24.5l7 -13q7 -4 15 -4.5t16 -0.5q9 0 19.5 0.5t19.5 5.5l17 -60q-15 -7 -32 -9t-34 -2t-34 2.5t-31 9t-23 19t-9 33.5q0 14 3.5 27t8.5 26q-11 -3 -23 -4t-24 -1q-48 0 -88.5 19.5t-70.5 52t-46.5 75t-16.5 89.5
q0 45 15.5 87.5t43.5 75.5t67 53t87 20q47 0 86 -20.5t66.5 -53.5t43 -75.5t15.5 -86.5q0 -14 -2 -28t-5 -28h-334q15 -48 52 -76t87 -28q32 0 60.5 12.5t48.5 37.5zM222 395q-31 0 -55 -11t-41 -30.5t-27 -45t-12 -54.5h271q-3 27 -13.5 52.5t-28 45t-41.5 31.5t-53 12z
" />
    <glyph glyph-name="gbreve" unicode="&#x11f;" horiz-adv-x="472" 
d="M453 470v-424q0 -47 -16.5 -89.5t-46.5 -75t-70.5 -52t-88.5 -19.5q-46 0 -88 19t-72 54l51 53q20 -24 48.5 -37t60.5 -13q34 0 61 13t46 35t29 51t10 61v11q-30 -28 -67.5 -43t-78.5 -15q-48 0 -88.5 19.5t-70.5 52t-46.5 75t-16.5 89.5q0 46 16.5 89t46.5 75.5t70.5 52
t88.5 19.5q41 0 79 -15.5t67 -43.5v58h76zM85 235q0 -32 10 -61t29 -51t46 -35t61 -13q32 0 58.5 12t46 33t30.5 48.5t11 59.5q0 31 -10 61.5t-29 53.5t-46 37.5t-61 14.5t-61 -13t-46 -35t-29 -51t-10 -61zM371 664q-4 -56 -35 -93t-91 -37q-59 0 -90.5 36.5t-36.5 92.5h66
q2 -26 17 -48t44 -22t43.5 22.5t16.5 48.5h66z" />
    <glyph glyph-name="gcircumflex" unicode="&#x11d;" horiz-adv-x="472" 
d="M453 470v-424q0 -47 -16.5 -89.5t-46.5 -75t-70.5 -52t-88.5 -19.5q-46 0 -88 19t-72 54l51 53q20 -24 48.5 -37t60.5 -13q34 0 61 13t46 35t29 51t10 61v11q-30 -28 -67.5 -43t-78.5 -15q-48 0 -88.5 19.5t-70.5 52t-46.5 75t-16.5 89.5q0 46 16.5 89t46.5 75.5t70.5 52
t88.5 19.5q41 0 79 -15.5t67 -43.5v58h76zM85 235q0 -32 10 -61t29 -51t46 -35t61 -13q32 0 58.5 12t46 33t30.5 48.5t11 59.5q0 31 -10 61.5t-29 53.5t-46 37.5t-61 14.5t-61 -13t-46 -35t-29 -51t-10 -61zM276 706l90 -180h-64l-58 115l-56 -115h-65l89 180h64z" />
    <glyph glyph-name="gcommaaccent" unicode="&#x123;" horiz-adv-x="472" 
d="M453 470v-424q0 -47 -16.5 -89.5t-46.5 -75t-70.5 -52t-88.5 -19.5q-46 0 -88 19t-72 54l51 53q20 -24 48.5 -37t60.5 -13q34 0 61 13t46 35t29 51t10 61v11q-30 -28 -67.5 -43t-78.5 -15q-48 0 -88.5 19.5t-70.5 52t-46.5 75t-16.5 89.5q0 46 16.5 89t46.5 75.5t70.5 52
t88.5 19.5q41 0 79 -15.5t67 -43.5v58h76zM85 235q0 -32 10 -61t29 -51t46 -35t61 -13q32 0 58.5 12t46 33t30.5 48.5t11 59.5q0 31 -10 61.5t-29 53.5t-46 37.5t-61 14.5t-61 -13t-46 -35t-29 -51t-10 -61zM286 528h-75q-1 14 -1.5 26.5t-0.5 26.5q0 34 4.5 56t21.5 51h38
q-10 -10 -16.5 -23.5t-6.5 -27.5q0 -16 10.5 -25t25.5 -11v-73z" />
    <glyph glyph-name="gdotaccent" unicode="&#x121;" horiz-adv-x="472" 
d="M453 470v-424q0 -47 -16.5 -89.5t-46.5 -75t-70.5 -52t-88.5 -19.5q-46 0 -88 19t-72 54l51 53q20 -24 48.5 -37t60.5 -13q34 0 61 13t46 35t29 51t10 61v11q-30 -28 -67.5 -43t-78.5 -15q-48 0 -88.5 19.5t-70.5 52t-46.5 75t-16.5 89.5q0 46 16.5 89t46.5 75.5t70.5 52
t88.5 19.5q41 0 79 -15.5t67 -43.5v58h76zM85 235q0 -32 10 -61t29 -51t46 -35t61 -13q32 0 58.5 12t46 33t30.5 48.5t11 59.5q0 31 -10 61.5t-29 53.5t-46 37.5t-61 14.5t-61 -13t-46 -35t-29 -51t-10 -61zM211 606h67v-66h-67v66z" />
    <glyph glyph-name="hbar" unicode="&#x127;" horiz-adv-x="509" 
d="M85 499h-75v74h75v85h74v-85h77v-74h-77v-78q26 25 59.5 37t69.5 12q49 0 86.5 -19.5t63.5 -52t39.5 -74.5t13.5 -87v-237h-76v237q0 29 -7.5 57.5t-23 50.5t-39.5 35.5t-57 13.5t-57 -13.5t-40 -35.5t-23.5 -50.5t-7.5 -57.5v-237h-75v499z" />
    <glyph glyph-name="hcircumflex" unicode="&#x125;" horiz-adv-x="434" 
d="M9 658h75v-236q26 24 59.5 36t68.5 12q49 0 86.5 -19.5t63.5 -51.5t39.5 -74.5t13.5 -87.5v-237h-75v237q0 29 -7.5 57.5t-23.5 50.5t-40 35.5t-57 13.5t-57 -13.5t-39.5 -35.5t-23 -50.5t-7.5 -57.5v-237h-76v658zM248 706l90 -180h-64l-58 115l-56 -115h-65l89 180h64z
" />
    <glyph glyph-name="iacute" unicode="&#xed;" horiz-adv-x="188" 
d="M56 470h75v-470h-75v470zM163 711l45 -51l-181 -162l-45 51z" />
    <glyph glyph-name="ibreve" unicode="&#x12d;" horiz-adv-x="188" 
d="M56 470h75v-470h-75v470zM220 664q-4 -56 -35 -93t-91 -37q-59 0 -90.5 36.5t-36.5 92.5h66q2 -26 17 -48t44 -22t43.5 22.5t16.5 48.5h66z" />
    <glyph glyph-name="icircumflex" unicode="&#xee;" horiz-adv-x="188" 
d="M56 470h75v-470h-75v470zM125 706l90 -180h-64l-58 115l-56 -115h-65l89 180h64z" />
    <glyph glyph-name="idieresis" unicode="&#xef;" horiz-adv-x="188" 
d="M56 470h75v-470h-75v470zM-6 615h67v-66h-67v66zM126 615h67v-66h-67v66z" />
    <glyph glyph-name="igrave" unicode="&#xec;" horiz-adv-x="188" 
d="M56 470h75v-470h-75v470zM184 538l-55 -40l-127 179l56 40z" />
    <glyph glyph-name="imacron" unicode="&#x12b;" horiz-adv-x="188" 
d="M56 470h75v-470h-75v470zM-44 615h275v-66h-275v66z" />
    <glyph glyph-name="iogonek" unicode="&#x12f;" horiz-adv-x="188" 
d="M56 470h75v-470h-75v470zM56 581h75v-74h-75v74zM131 0q-6 -8 -15.5 -21t-18.5 -27t-15.5 -28t-6.5 -25q0 -14 12.5 -16.5t23.5 -2.5q10 0 21 1t20 6l17 -61q-15 -7 -32 -9t-34 -2t-34.5 2t-31.5 9t-22.5 20t-8.5 34q0 32 15.5 63t34.5 57h75z" />
    <glyph glyph-name="itilde" unicode="&#x129;" horiz-adv-x="188" 
d="M56 470h75v-470h-75v470zM229 616q-8 -12 -18.5 -25t-23.5 -24t-27.5 -18t-29.5 -7q-11 0 -21 5.5t-19 12.5t-17.5 12.5t-17.5 5.5q-5 0 -12 -4t-13.5 -10t-12.5 -12.5t-9 -10.5l-51 35q7 11 18 24t24.5 24t28 18.5t28.5 7.5q12 0 22 -5.5t19 -12.5t17.5 -12.5t17.5 -5.5
q6 0 12.5 4t13 10t12 12.5t8.5 10.5z" />
    <glyph glyph-name="jcircumflex" unicode="&#x135;" horiz-adv-x="189" 
d="M-107 -96q23 -17 55 -17q31 0 52 15t33.5 38t17.5 50.5t5 53.5v426h76v-426q0 -43 -10.5 -85t-32.5 -75t-57 -53t-84 -20q-21 0 -42 4.5t-40 14.5zM126 706l90 -180h-64l-58 115l-56 -115h-65l89 180h64z" />
    <glyph glyph-name="kcommaaccent" unicode="&#x137;" 
d="M19 658h74v-391l170 203h99l-167 -197l209 -273h-96l-162 215l-53 -62v-153h-74v658zM165 -39h75q1 -14 1.5 -26.5t0.5 -26.5q0 -17 -1 -30.5t-3.5 -25.5t-7.5 -24t-14 -27h-38q10 10 16.5 23.5t6.5 27.5q0 16 -10.5 25t-25.5 11v73z" />
    <glyph glyph-name="kgreenlandic" unicode="&#x138;" 
d="M19 470h74v-203l170 203h99l-167 -197l209 -273h-96l-162 215l-53 -62v-153h-74v470z" />
    <glyph glyph-name="lacute" unicode="&#x13a;" horiz-adv-x="188" 
d="M56 658h75v-658h-75v658zM163 900l45 -51l-181 -162l-45 51z" />
    <glyph glyph-name="lcaron" unicode="&#x13e;" horiz-adv-x="236" 
d="M28 658h75v-658h-75v658zM140 584h75q1 -14 1.5 -26.5t0.5 -26.5q0 -17 -1 -30.5t-3.5 -25.5t-7.5 -24t-14 -27h-38q9 11 16 24t7 27q0 17 -10.5 25.5t-25.5 10.5v73z" />
    <glyph glyph-name="lcommaaccent" unicode="&#x13c;" horiz-adv-x="131" 
d="M28 658h75v-658h-75v658zM28 -39h75q1 -14 1.5 -26.5t0.5 -26.5q0 -17 -1 -30.5t-3.5 -25.5t-7.5 -24t-14 -27h-38q10 10 16.5 23.5t6.5 27.5q0 16 -10.5 25t-25.5 11v73z" />
    <glyph glyph-name="ldot" unicode="&#x140;" horiz-adv-x="234" 
d="M28 658h75v-658h-75v658zM140 375h75v-73h-75v73z" />
    <glyph glyph-name="lslash" unicode="&#x142;" horiz-adv-x="332" 
d="M123 658h74v-299l90 63l38 -56l-128 -90v-276h-74v225l-83 -58l-39 56l122 85v350z" />
    <glyph glyph-name="nacute" unicode="&#x144;" horiz-adv-x="434" 
d="M9 470h75v-48q26 24 59.5 36t68.5 12q49 0 86.5 -19.5t63.5 -51.5t39.5 -74.5t13.5 -87.5v-237h-75v237q0 29 -7.5 57.5t-23.5 50.5t-40 35.5t-57 13.5t-57 -13.5t-39.5 -35.5t-23 -50.5t-7.5 -57.5v-237h-76v470zM285 711l45 -51l-181 -162l-45 51z" />
    <glyph glyph-name="napostrophe" unicode="&#x149;" horiz-adv-x="529" 
d="M104 470h75v-48q26 24 59.5 36t68.5 12q49 0 86.5 -19.5t63.5 -51.5t39.5 -74.5t13.5 -87.5v-237h-75v237q0 29 -7.5 57.5t-23.5 50.5t-40 35.5t-57 13.5t-57 -13.5t-39.5 -35.5t-23 -50.5t-7.5 -57.5v-237h-76v470zM10 612h75q1 -14 1.5 -26.5t0.5 -26.5q0 -17 -1 -30.5
t-3.5 -25.5t-7.5 -24t-14 -27h-38q10 10 16.5 23.5t6.5 27.5q0 16 -10.5 25t-25.5 11v73z" />
    <glyph glyph-name="ncaron" unicode="&#x148;" horiz-adv-x="434" 
d="M9 470h75v-48q26 24 59.5 36t68.5 12q49 0 86.5 -19.5t63.5 -51.5t39.5 -74.5t13.5 -87.5v-237h-75v237q0 29 -7.5 57.5t-23.5 50.5t-40 35.5t-57 13.5t-57 -13.5t-39.5 -35.5t-23 -50.5t-7.5 -57.5v-237h-76v470zM184 507l-89 180h65l56 -116l58 116h64l-90 -180h-64z
" />
    <glyph glyph-name="ncommaaccent" unicode="&#x146;" horiz-adv-x="434" 
d="M9 470h75v-48q26 24 59.5 36t68.5 12q49 0 86.5 -19.5t63.5 -51.5t39.5 -74.5t13.5 -87.5v-237h-75v237q0 29 -7.5 57.5t-23.5 50.5t-40 35.5t-57 13.5t-57 -13.5t-39.5 -35.5t-23 -50.5t-7.5 -57.5v-237h-76v470zM175 -39h75q1 -14 1.5 -26.5t0.5 -26.5q0 -17 -1 -30.5
t-3.5 -25.5t-7.5 -24t-14 -27h-38q10 10 16.5 23.5t6.5 27.5q0 16 -10.5 25t-25.5 11v73z" />
    <glyph glyph-name="ntilde" unicode="&#xf1;" horiz-adv-x="434" 
d="M9 470h75v-48q26 24 59.5 36t68.5 12q49 0 86.5 -19.5t63.5 -51.5t39.5 -74.5t13.5 -87.5v-237h-75v237q0 29 -7.5 57.5t-23.5 50.5t-40 35.5t-57 13.5t-57 -13.5t-39.5 -35.5t-23 -50.5t-7.5 -57.5v-237h-76v470zM352 616q-8 -12 -18.5 -25t-23.5 -24t-27.5 -18
t-29.5 -7q-11 0 -21 5.5t-19 12.5t-17.5 12.5t-17.5 5.5q-5 0 -12 -4t-13.5 -10t-12.5 -12.5t-9 -10.5l-51 35q7 11 18 24t24.5 24t28 18.5t28.5 7.5q12 0 22 -5.5t19 -12.5t17.5 -12.5t17.5 -5.5q6 0 12.5 4t13 10t12 12.5t8.5 10.5z" />
    <glyph glyph-name="oacute" unicode="&#xf3;" horiz-adv-x="467" 
d="M9 235q0 46 16.5 89t46.5 75.5t70.5 52t88.5 19.5t88.5 -19.5t70.5 -52t46.5 -75.5t16.5 -89q0 -47 -16.5 -89.5t-46.5 -75t-70.5 -52t-88.5 -19.5t-88.5 19.5t-70.5 52t-46.5 75t-16.5 89.5zM85 235q0 -32 10 -61t29 -51t46 -35t61 -13t61 13t46 35t29 51t10 61
q0 30 -11 59t-30.5 51.5t-46 36t-58.5 13.5q-34 0 -61 -13t-46 -35t-29 -51t-10 -61zM301 711l45 -51l-181 -162l-45 51z" />
    <glyph glyph-name="obreve" unicode="&#x14f;" horiz-adv-x="467" 
d="M9 235q0 46 16.5 89t46.5 75.5t70.5 52t88.5 19.5t88.5 -19.5t70.5 -52t46.5 -75.5t16.5 -89q0 -47 -16.5 -89.5t-46.5 -75t-70.5 -52t-88.5 -19.5t-88.5 19.5t-70.5 52t-46.5 75t-16.5 89.5zM85 235q0 -32 10 -61t29 -51t46 -35t61 -13t61 13t46 35t29 51t10 61
q0 30 -11 59t-30.5 51.5t-46 36t-58.5 13.5q-34 0 -61 -13t-46 -35t-29 -51t-10 -61zM359 664q-4 -56 -35 -93t-91 -37q-59 0 -90.5 36.5t-36.5 92.5h66q2 -26 17 -48t44 -22t43.5 22.5t16.5 48.5h66z" />
    <glyph glyph-name="ocircumflex" unicode="&#xf4;" horiz-adv-x="467" 
d="M9 235q0 46 16.5 89t46.5 75.5t70.5 52t88.5 19.5t88.5 -19.5t70.5 -52t46.5 -75.5t16.5 -89q0 -47 -16.5 -89.5t-46.5 -75t-70.5 -52t-88.5 -19.5t-88.5 19.5t-70.5 52t-46.5 75t-16.5 89.5zM85 235q0 -32 10 -61t29 -51t46 -35t61 -13t61 13t46 35t29 51t10 61
q0 30 -11 59t-30.5 51.5t-46 36t-58.5 13.5q-34 0 -61 -13t-46 -35t-29 -51t-10 -61zM265 706l90 -180h-64l-58 115l-56 -115h-65l89 180h64z" />
    <glyph glyph-name="odieresis" unicode="&#xf6;" horiz-adv-x="467" 
d="M9 235q0 46 16.5 89t46.5 75.5t70.5 52t88.5 19.5t88.5 -19.5t70.5 -52t46.5 -75.5t16.5 -89q0 -47 -16.5 -89.5t-46.5 -75t-70.5 -52t-88.5 -19.5t-88.5 19.5t-70.5 52t-46.5 75t-16.5 89.5zM85 235q0 -32 10 -61t29 -51t46 -35t61 -13t61 13t46 35t29 51t10 61
q0 30 -11 59t-30.5 51.5t-46 36t-58.5 13.5q-34 0 -61 -13t-46 -35t-29 -51t-10 -61zM134 615h67v-66h-67v66zM266 615h67v-66h-67v66z" />
    <glyph glyph-name="ograve" unicode="&#xf2;" horiz-adv-x="467" 
d="M9 235q0 46 16.5 89t46.5 75.5t70.5 52t88.5 19.5t88.5 -19.5t70.5 -52t46.5 -75.5t16.5 -89q0 -47 -16.5 -89.5t-46.5 -75t-70.5 -52t-88.5 -19.5t-88.5 19.5t-70.5 52t-46.5 75t-16.5 89.5zM85 235q0 -32 10 -61t29 -51t46 -35t61 -13t61 13t46 35t29 51t10 61
q0 30 -11 59t-30.5 51.5t-46 36t-58.5 13.5q-34 0 -61 -13t-46 -35t-29 -51t-10 -61zM324 538l-55 -40l-127 179l56 40z" />
    <glyph glyph-name="ohungarumlaut" unicode="&#x151;" horiz-adv-x="467" 
d="M9 235q0 46 16.5 89t46.5 75.5t70.5 52t88.5 19.5t88.5 -19.5t70.5 -52t46.5 -75.5t16.5 -89q0 -47 -16.5 -89.5t-46.5 -75t-70.5 -52t-88.5 -19.5t-88.5 19.5t-70.5 52t-46.5 75t-16.5 89.5zM85 235q0 -32 10 -61t29 -51t46 -35t61 -13t61 13t46 35t29 51t10 61
q0 30 -11 59t-30.5 51.5t-46 36t-58.5 13.5q-34 0 -61 -13t-46 -35t-29 -51t-10 -61zM201 717l56 -40l-108 -179l-56 40zM318 717l56 -40l-108 -179l-56 40z" />
    <glyph glyph-name="omacron" unicode="&#x14d;" horiz-adv-x="467" 
d="M9 235q0 46 16.5 89t46.5 75.5t70.5 52t88.5 19.5t88.5 -19.5t70.5 -52t46.5 -75.5t16.5 -89q0 -47 -16.5 -89.5t-46.5 -75t-70.5 -52t-88.5 -19.5t-88.5 19.5t-70.5 52t-46.5 75t-16.5 89.5zM85 235q0 -32 10 -61t29 -51t46 -35t61 -13t61 13t46 35t29 51t10 61
q0 30 -11 59t-30.5 51.5t-46 36t-58.5 13.5q-34 0 -61 -13t-46 -35t-29 -51t-10 -61zM96 615h275v-66h-275v66z" />
    <glyph glyph-name="oslash" unicode="&#xf8;" horiz-adv-x="467" 
d="M9 235q0 46 16.5 89t46.5 75.5t70.5 52t88.5 19.5t88.5 -19.5t70.5 -52t46.5 -75.5t16.5 -89q0 -47 -16.5 -89.5t-46.5 -75t-70.5 -52t-88.5 -19.5t-88.5 19.5t-70.5 52t-46.5 75t-16.5 89.5zM85 235q0 -32 10 -61t29 -51t46 -35t61 -13t61 13t46 35t29 51t10 61
q0 30 -11 59t-30.5 51.5t-46 36t-58.5 13.5q-34 0 -61 -13t-46 -35t-29 -51t-10 -61zM290 564h75l-189 -658h-75z" />
    <glyph glyph-name="oslashacute" unicode="&#x1ff;" horiz-adv-x="467" 
d="M9 235q0 46 16.5 89t46.5 75.5t70.5 52t88.5 19.5t88.5 -19.5t70.5 -52t46.5 -75.5t16.5 -89q0 -47 -16.5 -89.5t-46.5 -75t-70.5 -52t-88.5 -19.5t-88.5 19.5t-70.5 52t-46.5 75t-16.5 89.5zM85 235q0 -32 10 -61t29 -51t46 -35t61 -13t61 13t46 35t29 51t10 61
q0 30 -11 59t-30.5 51.5t-46 36t-58.5 13.5q-34 0 -61 -13t-46 -35t-29 -51t-10 -61zM290 564h75l-189 -658h-75zM301 711l45 -51l-181 -162l-45 51z" />
    <glyph glyph-name="otilde" unicode="&#xf5;" horiz-adv-x="467" 
d="M9 235q0 46 16.5 89t46.5 75.5t70.5 52t88.5 19.5t88.5 -19.5t70.5 -52t46.5 -75.5t16.5 -89q0 -47 -16.5 -89.5t-46.5 -75t-70.5 -52t-88.5 -19.5t-88.5 19.5t-70.5 52t-46.5 75t-16.5 89.5zM85 235q0 -32 10 -61t29 -51t46 -35t61 -13t61 13t46 35t29 51t10 61
q0 30 -11 59t-30.5 51.5t-46 36t-58.5 13.5q-34 0 -61 -13t-46 -35t-29 -51t-10 -61zM369 616q-8 -12 -18.5 -25t-23.5 -24t-27.5 -18t-29.5 -7q-11 0 -21 5.5t-19 12.5t-17.5 12.5t-17.5 5.5q-5 0 -12 -4t-13.5 -10t-12.5 -12.5t-9 -10.5l-51 35q7 11 18 24t24.5 24
t28 18.5t28.5 7.5q12 0 22 -5.5t19 -12.5t17.5 -12.5t17.5 -5.5q6 0 12.5 4t13 10t12 12.5t8.5 10.5z" />
    <glyph glyph-name="oe" unicode="&#x153;" horiz-adv-x="731" 
d="M372 179q14 -48 51 -76t87 -28q32 0 60.5 12.5t49.5 37.5l51 -53q-31 -35 -72.5 -54t-88.5 -19q-38 0 -74.5 13t-65.5 39q-29 -25 -65 -38.5t-74 -13.5q-48 0 -88.5 19.5t-70.5 52t-46.5 75t-16.5 89.5q0 46 16.5 89t46.5 75.5t70.5 52t88.5 19.5q38 0 73 -14t64 -38
q27 25 61.5 38.5t71.5 13.5q47 0 86 -20.5t66.5 -53.5t43 -75.5t15.5 -86.5q0 -14 -2 -28l-4 -28h-334zM289 235q0 33 7.5 64.5t24.5 60.5q-19 17 -42 26t-48 9q-34 0 -61 -13t-46 -35t-29 -51t-10 -61t10 -61t29 -51t46 -35t61 -13q53 0 92 33q-17 29 -25.5 61.5t-8.5 65.5
zM500 395q-31 0 -55 -11t-41 -30.5t-26.5 -45t-12.5 -54.5h271q-3 27 -13.5 52.5t-28 45t-41.5 31.5t-53 12z" />
    <glyph glyph-name="racute" unicode="&#x155;" horiz-adv-x="292" 
d="M258 377q-12 8 -27.5 12.5t-30.5 4.5q-31 0 -51.5 -15t-32.5 -38t-17 -51t-5 -53v-237h-75v470h74v-37q23 20 51 28.5t57 8.5q42 0 82 -19zM214 711l45 -51l-181 -162l-45 51z" />
    <glyph glyph-name="rcaron" unicode="&#x159;" horiz-adv-x="292" 
d="M258 377q-12 8 -27.5 12.5t-30.5 4.5q-31 0 -51.5 -15t-32.5 -38t-17 -51t-5 -53v-237h-75v470h74v-37q23 20 51 28.5t57 8.5q42 0 82 -19zM113 507l-89 180h65l56 -116l58 116h64l-90 -180h-64z" />
    <glyph glyph-name="rcommaaccent" unicode="&#x157;" horiz-adv-x="292" 
d="M258 377q-12 8 -27.5 12.5t-30.5 4.5q-31 0 -51.5 -15t-32.5 -38t-17 -51t-5 -53v-237h-75v470h74v-37q23 20 51 28.5t57 8.5q42 0 82 -19zM19 -77h75q1 -14 1.5 -26.5t0.5 -26.5q0 -17 -1 -30.5t-3.5 -25.5t-7.5 -24t-14 -27h-38q10 10 16.5 23.5t6.5 27.5
q0 16 -10.5 25t-25.5 11v73z" />
    <glyph glyph-name="sacute" unicode="&#x15b;" horiz-adv-x="335" 
d="M87 337q0 -21 17.5 -35.5t43.5 -27t56 -25t56 -28.5t43.5 -38t17.5 -54q0 -33 -13.5 -57t-35.5 -40.5t-50 -24.5t-57 -8q-42 0 -82 17.5t-64 52.5l57 49q19 -20 40.5 -31.5t50.5 -11.5q10 0 23.5 2.5t24.5 8.5t19 15.5t8 22.5q0 20 -17.5 33.5t-43 24.5t-56 22.5
t-56 27.5t-43 39t-17.5 58q0 33 12.5 59t34 45t50 29t59.5 10q43 0 84 -18.5t65 -55.5l-57 -49q-18 21 -41.5 34t-52.5 13q-12 0 -25.5 -4t-25 -11.5t-18.5 -18.5t-7 -25zM235 711l45 -51l-181 -162l-45 51z" />
    <glyph glyph-name="scaron" unicode="&#x161;" horiz-adv-x="335" 
d="M87 337q0 -21 17.5 -35.5t43.5 -27t56 -25t56 -28.5t43.5 -38t17.5 -54q0 -33 -13.5 -57t-35.5 -40.5t-50 -24.5t-57 -8q-42 0 -82 17.5t-64 52.5l57 49q19 -20 40.5 -31.5t50.5 -11.5q10 0 23.5 2.5t24.5 8.5t19 15.5t8 22.5q0 20 -17.5 33.5t-43 24.5t-56 22.5
t-56 27.5t-43 39t-17.5 58q0 33 12.5 59t34 45t50 29t59.5 10q43 0 84 -18.5t65 -55.5l-57 -49q-18 21 -41.5 34t-52.5 13q-12 0 -25.5 -4t-25 -11.5t-18.5 -18.5t-7 -25zM135 507l-89 180h65l56 -116l58 116h64l-90 -180h-64z" />
    <glyph glyph-name="scedilla" unicode="&#x15f;" horiz-adv-x="335" 
d="M87 337q0 -21 17.5 -35.5t43.5 -27t56 -25t56 -28.5t43.5 -38t17.5 -54q0 -33 -13.5 -57t-35.5 -40.5t-50 -24.5t-57 -8q-42 0 -82 17.5t-64 52.5l57 49q19 -20 40.5 -31.5t50.5 -11.5q10 0 23.5 2.5t24.5 8.5t19 15.5t8 22.5q0 20 -17.5 33.5t-43 24.5t-56 22.5
t-56 27.5t-43 39t-17.5 58q0 33 12.5 59t34 45t50 29t59.5 10q43 0 84 -18.5t65 -55.5l-57 -49q-18 21 -41.5 34t-52.5 13q-12 0 -25.5 -4t-25 -11.5t-18.5 -18.5t-7 -25zM121 37h65v-74q17 -6 37 -13.5t37.5 -19t29 -27t11.5 -37.5q0 -29 -14.5 -47t-36.5 -28.5t-48 -14.5
t-48 -4q-30 0 -61 5t-58 19l48 49q5 -3 15 -5t21.5 -3.5t22 -2t16.5 -0.5q7 0 19 1t24 4t20.5 9.5t8.5 17.5q0 10 -14 18t-32.5 14.5t-36.5 11l-26 6.5v121z" />
    <glyph glyph-name="scircumflex" unicode="&#x15d;" horiz-adv-x="335" 
d="M87 337q0 -21 17.5 -35.5t43.5 -27t56 -25t56 -28.5t43.5 -38t17.5 -54q0 -33 -13.5 -57t-35.5 -40.5t-50 -24.5t-57 -8q-42 0 -82 17.5t-64 52.5l57 49q19 -20 40.5 -31.5t50.5 -11.5q10 0 23.5 2.5t24.5 8.5t19 15.5t8 22.5q0 20 -17.5 33.5t-43 24.5t-56 22.5
t-56 27.5t-43 39t-17.5 58q0 33 12.5 59t34 45t50 29t59.5 10q43 0 84 -18.5t65 -55.5l-57 -49q-18 21 -41.5 34t-52.5 13q-12 0 -25.5 -4t-25 -11.5t-18.5 -18.5t-7 -25zM199 706l90 -180h-64l-58 115l-56 -115h-65l89 180h64z" />
    <glyph glyph-name="scommaaccent" unicode="&#x219;" horiz-adv-x="335" 
d="M87 337q0 -21 17.5 -35.5t43.5 -27t56 -25t56 -28.5t43.5 -38t17.5 -54q0 -33 -13.5 -57t-35.5 -40.5t-50 -24.5t-57 -8q-42 0 -82 17.5t-64 52.5l57 49q19 -20 40.5 -31.5t50.5 -11.5q10 0 23.5 2.5t24.5 8.5t19 15.5t8 22.5q0 20 -17.5 33.5t-43 24.5t-56 22.5
t-56 27.5t-43 39t-17.5 58q0 33 12.5 59t34 45t50 29t59.5 10q43 0 84 -18.5t65 -55.5l-57 -49q-18 21 -41.5 34t-52.5 13q-12 0 -25.5 -4t-25 -11.5t-18.5 -18.5t-7 -25zM126 -39h75q1 -14 1.5 -26.5t0.5 -26.5q0 -17 -1 -30.5t-3.5 -25.5t-7.5 -24t-14 -27h-38
q10 10 16.5 23.5t6.5 27.5q0 16 -10.5 25t-25.5 11v73z" />
    <glyph glyph-name="tbar" unicode="&#x167;" horiz-adv-x="342" 
d="M206 274v-274h-75v274h-122v74h122v38h-122v74h122v198h75v-198h122v-74h-122v-38h122v-74h-122z" />
    <glyph glyph-name="tcaron" unicode="&#x165;" horiz-adv-x="438" 
d="M206 386v-386h-75v386h-122v74h122v198h75v-198h122v-74h-122zM342 584h75q1 -14 1.5 -26.5t0.5 -26.5q0 -17 -1 -30.5t-3.5 -25.5t-7.5 -24t-14 -27h-38q9 11 16 24t7 27q0 17 -10.5 25.5t-25.5 10.5v73z" />
    <glyph glyph-name="tcommaaccent" unicode="&#x163;" horiz-adv-x="342" 
d="M206 386v-386h-75v386h-122v74h122v198h75v-198h122v-74h-122zM131 -39h75q1 -14 1.5 -26.5t0.5 -26.5q0 -17 -1 -30.5t-3.5 -25.5t-7.5 -24t-14 -27h-38q10 10 16.5 23.5t6.5 27.5q0 16 -10.5 25t-25.5 11v73z" />
    <glyph glyph-name="uacute" unicode="&#xfa;" horiz-adv-x="434" 
d="M415 0h-74v48q-56 -48 -129 -48q-49 0 -86.5 19.5t-63.5 52t-39.5 74.5t-13.5 87v237h76v-237q0 -29 7.5 -57.5t23 -51t39.5 -36t57 -13.5t57 13.5t40 36t23.5 51t7.5 57.5v237h75v-470zM285 711l45 -51l-181 -162l-45 51z" />
    <glyph glyph-name="ubreve" unicode="&#x16d;" horiz-adv-x="434" 
d="M415 0h-74v48q-56 -48 -129 -48q-49 0 -86.5 19.5t-63.5 52t-39.5 74.5t-13.5 87v237h76v-237q0 -29 7.5 -57.5t23 -51t39.5 -36t57 -13.5t57 13.5t40 36t23.5 51t7.5 57.5v237h75v-470zM343 664q-4 -56 -35 -93t-91 -37q-59 0 -90.5 36.5t-36.5 92.5h66q2 -26 17 -48
t44 -22t43.5 22.5t16.5 48.5h66z" />
    <glyph glyph-name="ucircumflex" unicode="&#xfb;" horiz-adv-x="434" 
d="M415 0h-74v48q-56 -48 -129 -48q-49 0 -86.5 19.5t-63.5 52t-39.5 74.5t-13.5 87v237h76v-237q0 -29 7.5 -57.5t23 -51t39.5 -36t57 -13.5t57 13.5t40 36t23.5 51t7.5 57.5v237h75v-470zM248 706l90 -180h-64l-58 115l-56 -115h-65l89 180h64z" />
    <glyph glyph-name="udieresis" unicode="&#xfc;" horiz-adv-x="434" 
d="M415 0h-74v48q-56 -48 -129 -48q-49 0 -86.5 19.5t-63.5 52t-39.5 74.5t-13.5 87v237h76v-237q0 -29 7.5 -57.5t23 -51t39.5 -36t57 -13.5t57 13.5t40 36t23.5 51t7.5 57.5v237h75v-470zM117 615h67v-66h-67v66zM249 615h67v-66h-67v66z" />
    <glyph glyph-name="uhungarumlaut" unicode="&#x171;" horiz-adv-x="434" 
d="M415 0h-74v48q-56 -48 -129 -48q-49 0 -86.5 19.5t-63.5 52t-39.5 74.5t-13.5 87v237h76v-237q0 -29 7.5 -57.5t23 -51t39.5 -36t57 -13.5t57 13.5t40 36t23.5 51t7.5 57.5v237h75v-470zM184 717l56 -40l-108 -179l-56 40zM301 717l56 -40l-108 -179l-56 40z" />
    <glyph glyph-name="ugrave" unicode="&#xf9;" horiz-adv-x="434" 
d="M415 0h-74v48q-56 -48 -129 -48q-49 0 -86.5 19.5t-63.5 52t-39.5 74.5t-13.5 87v237h76v-237q0 -29 7.5 -57.5t23 -51t39.5 -36t57 -13.5t57 13.5t40 36t23.5 51t7.5 57.5v237h75v-470zM307 538l-55 -40l-127 179l56 40z" />
    <glyph glyph-name="umacron" unicode="&#x16b;" horiz-adv-x="434" 
d="M415 0h-74v48q-56 -48 -129 -48q-49 0 -86.5 19.5t-63.5 52t-39.5 74.5t-13.5 87v237h76v-237q0 -29 7.5 -57.5t23 -51t39.5 -36t57 -13.5t57 13.5t40 36t23.5 51t7.5 57.5v237h75v-470zM79 615h275v-66h-275v66z" />
    <glyph glyph-name="uogonek" unicode="&#x173;" horiz-adv-x="434" 
d="M415 0h-74v48q-56 -48 -129 -48q-49 0 -86.5 19.5t-63.5 52t-39.5 74.5t-13.5 87v237h76v-237q0 -29 7.5 -57.5t23 -51t39.5 -36t57 -13.5t57 13.5t40 36t23.5 51t7.5 57.5v237h75v-470zM415 0q-6 -8 -15.5 -21t-18.5 -27t-15.5 -28t-6.5 -25q0 -14 12.5 -16.5t23.5 -2.5
q10 0 21 1t20 6l17 -61q-15 -7 -32 -9t-34 -2t-34.5 2t-31.5 9t-22.5 20t-8.5 34q0 32 15.5 63t34.5 57h75z" />
    <glyph glyph-name="uring" unicode="&#x16f;" horiz-adv-x="434" 
d="M415 0h-74v48q-56 -48 -129 -48q-49 0 -86.5 19.5t-63.5 52t-39.5 74.5t-13.5 87v237h76v-237q0 -29 7.5 -57.5t23 -51t39.5 -36t57 -13.5t57 13.5t40 36t23.5 51t7.5 57.5v237h75v-470zM117 623q0 21 7.5 40t20.5 33.5t31.5 23t39.5 8.5t39 -8.5t31.5 -23t21.5 -33.5
t8 -40t-8 -40t-21.5 -33.5t-31.5 -23t-39 -8.5t-39.5 8.5t-31.5 23t-20.5 33.5t-7.5 40zM172 623q0 -20 11 -35t33 -15t33.5 15t11.5 35q0 19 -12.5 35t-32.5 16q-23 0 -33.5 -15t-10.5 -36z" />
    <glyph glyph-name="utilde" unicode="&#x169;" horiz-adv-x="434" 
d="M415 0h-74v48q-56 -48 -129 -48q-49 0 -86.5 19.5t-63.5 52t-39.5 74.5t-13.5 87v237h76v-237q0 -29 7.5 -57.5t23 -51t39.5 -36t57 -13.5t57 13.5t40 36t23.5 51t7.5 57.5v237h75v-470zM352 616q-8 -12 -18.5 -25t-23.5 -24t-27.5 -18t-29.5 -7q-11 0 -21 5.5t-19 12.5
t-17.5 12.5t-17.5 5.5q-5 0 -12 -4t-13.5 -10t-12.5 -12.5t-9 -10.5l-51 35q7 11 18 24t24.5 24t28 18.5t28.5 7.5q12 0 22 -5.5t19 -12.5t17.5 -12.5t17.5 -5.5q6 0 12.5 4t13 10t12 12.5t8.5 10.5z" />
    <glyph glyph-name="wacute" unicode="&#x1e83;" horiz-adv-x="617" 
d="M134 0l-133 470h74l96 -339l96 339h74l96 -339l96 339h74l-133 -470h-74l-96 339l-96 -339h-74zM367 720l45 -51l-181 -162l-45 51z" />
    <glyph glyph-name="wcircumflex" unicode="&#x175;" horiz-adv-x="617" 
d="M134 0l-133 470h74l96 -339l96 339h74l96 -339l96 339h74l-133 -470h-74l-96 339l-96 -339h-74zM339 706l90 -180h-64l-58 115l-56 -115h-65l89 180h64z" />
    <glyph glyph-name="wdieresis" unicode="&#x1e85;" horiz-adv-x="617" 
d="M134 0l-133 470h74l96 -339l96 339h74l96 -339l96 339h74l-133 -470h-74l-96 339l-96 -339h-74zM209 615h67v-66h-67v66zM341 615h67v-66h-67v66z" />
    <glyph glyph-name="wgrave" unicode="&#x1e81;" horiz-adv-x="617" 
d="M134 0l-133 470h74l96 -339l96 339h74l96 -339l96 339h74l-133 -470h-74l-96 339l-96 -339h-74zM408 547l-55 -40l-127 179l56 40z" />
    <glyph glyph-name="yacute" unicode="&#xfd;" 
d="M97 -189l65 189l-161 470h80l121 -354l122 354h80l-227 -659h-80zM294 711l45 -51l-181 -162l-45 51z" />
    <glyph glyph-name="ycircumflex" unicode="&#x177;" 
d="M97 -189l65 189l-161 470h80l121 -354l122 354h80l-227 -659h-80zM237 706l90 -180h-64l-58 115l-56 -115h-65l89 180h64z" />
    <glyph glyph-name="ydieresis" unicode="&#xff;" 
d="M97 -189l65 189l-161 470h80l121 -354l122 354h80l-227 -659h-80zM107 615h67v-66h-67v66zM239 615h67v-66h-67v66z" />
    <glyph glyph-name="ygrave" unicode="&#x1ef3;" 
d="M97 -189l65 189l-161 470h80l121 -354l122 354h80l-227 -659h-80zM287 538l-55 -40l-127 179l56 40z" />
    <glyph glyph-name="zacute" unicode="&#x17a;" horiz-adv-x="338" 
d="M98 75h221v-75h-310v75l221 320h-221v75h310v-75zM237 711l45 -51l-181 -162l-45 51z" />
    <glyph glyph-name="zcaron" unicode="&#x17e;" horiz-adv-x="338" 
d="M98 75h221v-75h-310v75l221 320h-221v75h310v-75zM136 507l-89 180h65l56 -116l58 116h64l-90 -180h-64z" />
    <glyph glyph-name="zdotaccent" unicode="&#x17c;" horiz-adv-x="338" 
d="M98 75h221v-75h-310v75l221 320h-221v75h310v-75zM126 615h67v-66h-67v66z" />
    <glyph glyph-name="Eth" unicode="&#xd0;" horiz-adv-x="538" 
d="M57 658h165q68 0 123 -27t93.5 -73t59.5 -105.5t21 -123.5q0 -65 -21 -124t-59.5 -105t-93.5 -73t-123 -27h-165v658zM444 329q0 49 -15 94.5t-43.5 80.5t-70 56.5t-93.5 22.5l-91 1v-509h91q54 0 95.5 21t69.5 56t42.5 81t14.5 96zM9 363h275v-66h-275v66z" />
    <glyph glyph-name="uni1E02" unicode="&#x1e02;" horiz-adv-x="410" 
d="M19 658h165q40 0 74 -12.5t58.5 -35.5t38 -56t13.5 -74q0 -23 -5.5 -47.5t-17 -45.5t-29 -36.5t-42.5 -21.5q29 -2 51 -16.5t37 -36t22.5 -48t7.5 -53.5q0 -40 -13 -72.5t-37 -55t-57 -35t-73 -12.5h-193v658zM212 75q48 0 78.5 31.5t30.5 78.5q0 50 -33 78.5t-81 28.5
h-114v-217h119zM184 368q48 0 78 31t30 78q0 51 -33 79t-81 28h-85v-216h91zM125 804h67v-66h-67v66z" />
    <glyph glyph-name="uni1E03" unicode="&#x1e03;" horiz-adv-x="467" 
d="M9 658h75v-247q30 29 67.5 44.5t79.5 15.5q48 0 88.5 -19.5t70.5 -52t46.5 -75.5t16.5 -89q0 -47 -16.5 -89.5t-46.5 -75t-70.5 -52t-88.5 -19.5q-85 0 -147 59v-58h-75v658zM85 235q0 -32 10 -61t29 -51t46 -35t61 -13t61 13t46 35t29 51t10 61q0 30 -11 59t-30.5 51.5
t-46 36t-58.5 13.5q-34 0 -61 -13t-46 -35t-29 -51t-10 -61zM210 615h67v-66h-67v66z" />
    <glyph glyph-name="uni1E0A" unicode="&#x1e0a;" horiz-adv-x="495" 
d="M19 658h165q68 0 123 -27t93.5 -73t59.5 -105.5t21 -123.5q0 -65 -21 -124t-59.5 -105t-93.5 -73t-123 -27h-165v658zM406 329q0 49 -15 94.5t-43.5 80.5t-70 56.5t-93.5 22.5l-91 1v-509h91q54 0 95.5 21t69.5 56t42.5 81t14.5 96zM158 804h67v-66h-67v66z" />
    <glyph glyph-name="uni1E0B" unicode="&#x1e0b;" horiz-adv-x="472" 
d="M378 58q-29 -28 -67.5 -43.5t-79.5 -15.5q-48 0 -88.5 19.5t-70.5 52t-46.5 75t-16.5 89.5q0 46 16.5 89t46.5 75.5t70.5 52t88.5 19.5q42 0 80 -16t67 -44v247h75v-658h-75v58zM85 235q0 -32 10 -61t29 -51t46 -35t61 -13t61 13t46 35t29 51t10 61q0 30 -11 59
t-30.5 51.5t-46 36t-58.5 13.5q-34 0 -61 -13t-46 -35t-29 -51t-10 -61zM202 615h67v-66h-67v66z" />
    <glyph glyph-name="uni1E1E" unicode="&#x1e1e;" 
d="M93 291v-291h-74v658h375v-74h-301v-218h301v-75h-301zM173 804h67v-66h-67v66z" />
    <glyph glyph-name="uni1E1F" unicode="&#x1e1f;" horiz-adv-x="341" 
d="M141 291v-291h-75v291h-57v75h57q0 48 5 100t23.5 94.5t55 70t100.5 27.5q21 0 42 -4t40 -14l-27 -74q-25 17 -55 17q-31 0 -52 -15t-33.5 -38.5t-18 -51.5t-5.5 -53v-59h168v-75h-168zM212 765h67v-66h-67v66z" />
    <glyph glyph-name="uni1E40" unicode="&#x1e40;" horiz-adv-x="667" 
d="M62 658h80l187 -542l186 542h80l53 -658h-74l-39 483l-166 -483h-80l-166 482l-39 -482h-75zM300 804h67v-66h-67v66z" />
    <glyph glyph-name="uni1E41" unicode="&#x1e41;" horiz-adv-x="689" 
d="M9 470h75v-41q23 20 51 30.5t58 10.5q47 0 85 -22.5t61 -62.5q24 39 62 62t85 23t82 -21t57.5 -54t33.5 -74.5t11 -83.5v-237h-76v237q0 24 -6 51.5t-19 51t-33.5 39t-49.5 15.5t-50 -15.5t-34 -39t-19 -51t-6 -51.5v-237h-75v237q0 24 -6 51.5t-19.5 51t-34 39
t-49.5 15.5t-49.5 -15.5t-33.5 -39t-19 -51t-6 -51.5v-237h-76v470zM310 615h67v-66h-67v66z" />
    <glyph glyph-name="uni1E56" unicode="&#x1e56;" horiz-adv-x="439" 
d="M19 658h137q50 0 98.5 -12.5t86 -39t60.5 -67t23 -97.5q0 -73 -30.5 -115.5t-78.5 -65t-107 -29t-115 -6.5v-226h-74v658zM93 584v-283h63q33 0 67.5 7.5t62 24t45.5 43.5t18 66t-17.5 66.5t-45.5 44t-62.5 24t-67.5 7.5h-63zM148 804h67v-66h-67v66z" />
    <glyph glyph-name="uni1E57" unicode="&#x1e57;" horiz-adv-x="467" 
d="M9 470h75v-59q30 29 67.5 44.5t79.5 15.5q48 0 88.5 -19.5t70.5 -52t46.5 -75.5t16.5 -89q0 -47 -16.5 -89.5t-46.5 -75t-70.5 -52t-88.5 -19.5q-85 0 -147 59v-247h-75v659zM85 235q0 -32 10 -61t29 -51t46 -35t61 -13t61 13t46 35t29 51t10 61q0 30 -11 59t-30.5 51.5
t-46 36t-58.5 13.5q-34 0 -61 -13t-46 -35t-29 -51t-10 -61zM210 615h67v-66h-67v66z" />
    <glyph glyph-name="uni1E60" unicode="&#x1e60;" horiz-adv-x="429" 
d="M87 488q0 -40 24.5 -66.5t60.5 -47t79 -38t79 -40t60.5 -53t24.5 -76.5q0 -43 -16.5 -74.5t-44 -52.5t-63.5 -31t-75 -10q-25 0 -53.5 5.5t-55.5 17t-50 28t-38 38.5l57 49q27 -30 64 -46t78 -16q20 0 41 4.5t38.5 14.5t28.5 26.5t11 40.5q0 34 -24.5 56.5t-60.5 40
t-79 34.5t-79 41t-60.5 59t-24.5 88q0 42 17.5 75.5t47 56.5t66.5 35.5t76 12.5q26 0 53.5 -6t53.5 -17.5t48 -28.5t37 -40l-57 -49q-26 31 -61.5 48.5t-75.5 17.5q-20 0 -42.5 -6.5t-41.5 -18.5t-31 -30t-12 -42zM181 804h67v-66h-67v66z" />
    <glyph glyph-name="uni1E61" unicode="&#x1e61;" horiz-adv-x="335" 
d="M87 337q0 -21 17.5 -35.5t43.5 -27t56 -25t56 -28.5t43.5 -38t17.5 -54q0 -33 -13.5 -57t-35.5 -40.5t-50 -24.5t-57 -8q-42 0 -82 17.5t-64 52.5l57 49q19 -20 40.5 -31.5t50.5 -11.5q10 0 23.5 2.5t24.5 8.5t19 15.5t8 22.5q0 20 -17.5 33.5t-43 24.5t-56 22.5
t-56 27.5t-43 39t-17.5 58q0 33 12.5 59t34 45t50 29t59.5 10q43 0 84 -18.5t65 -55.5l-57 -49q-18 21 -41.5 34t-52.5 13q-12 0 -25.5 -4t-25 -11.5t-18.5 -18.5t-7 -25zM134 615h67v-66h-67v66z" />
    <glyph glyph-name="uni1E6A" unicode="&#x1e6a;" horiz-adv-x="519" 
d="M296 584v-584h-74v584h-213v74h500v-74h-213zM226 804h67v-66h-67v66z" />
    <glyph glyph-name="uni1E6B" unicode="&#x1e6b;" horiz-adv-x="342" 
d="M206 386v-386h-75v386h-122v74h122v198h75v-198h122v-74h-122zM135 794h67v-66h-67v66z" />
    <glyph glyph-name="A" unicode="A" horiz-adv-x="539" 
d="M307 658l227 -658h-81l-68 197h-237l-67 -197h-80l226 658h80zM174 272h185l-92 269z" />
    <glyph glyph-name="B" unicode="B" horiz-adv-x="410" 
d="M19 658h165q40 0 74 -12.5t58.5 -35.5t38 -56t13.5 -74q0 -23 -5.5 -47.5t-17 -45.5t-29 -36.5t-42.5 -21.5q29 -2 51 -16.5t37 -36t22.5 -48t7.5 -53.5q0 -40 -13 -72.5t-37 -55t-57 -35t-73 -12.5h-193v658zM212 75q48 0 78.5 31.5t30.5 78.5q0 50 -33 78.5t-81 28.5
h-114v-217h119zM184 368q48 0 78 31t30 78q0 51 -33 79t-81 28h-85v-216h91z" />
    <glyph glyph-name="D" unicode="D" horiz-adv-x="495" 
d="M19 658h165q68 0 123 -27t93.5 -73t59.5 -105.5t21 -123.5q0 -65 -21 -124t-59.5 -105t-93.5 -73t-123 -27h-165v658zM406 329q0 49 -15 94.5t-43.5 80.5t-70 56.5t-93.5 22.5l-91 1v-509h91q54 0 95.5 21t69.5 56t42.5 81t14.5 96z" />
    </font>
</defs>
</svg>
